# Tiled2Unity generated file. Do not modify by hand.
# Wavefront file for 'WorldMapV1_mesh_0042.obj'

# Vertices (Count = 264)
v -368 -64 -0.02666667
v -384 -64 -0.02666667
v -384 -48 -0.02666667
v -368 -48 -0.02666667
v -384 -64 -0.02666667
v -400 -64 -0.02666667
v -400 -48 -0.02666667
v -384 -48 -0.02666667
v -400 -64 -0.02666667
v -416 -64 -0.02666667
v -416 -48 -0.02666667
v -400 -48 -0.02666667
v -544 -64 -0.02666667
v -560 -64 -0.02666667
v -560 -48 -0.02666667
v -544 -48 -0.02666667
v -560 -64 -0.02666667
v -576 -64 -0.02666667
v -576 -48 -0.02666667
v -560 -48 -0.02666667
v -576 -64 -0.02666667
v -592 -64 -0.02666667
v -592 -48 -0.02666667
v -576 -48 -0.02666667
v -368 -80 -0.03333334
v -384 -80 -0.03333334
v -384 -64 -0.03333334
v -368 -64 -0.03333334
v -384 -80 -0.03333334
v -400 -80 -0.03333334
v -400 -64 -0.03333334
v -384 -64 -0.03333334
v -400 -80 -0.03333334
v -416 -80 -0.03333334
v -416 -64 -0.03333334
v -400 -64 -0.03333334
v -544 -80 -0.03333334
v -560 -80 -0.03333334
v -560 -64 -0.03333334
v -544 -64 -0.03333334
v -560 -80 -0.03333334
v -576 -80 -0.03333334
v -576 -64 -0.03333334
v -560 -64 -0.03333334
v -576 -80 -0.03333334
v -592 -80 -0.03333334
v -592 -64 -0.03333334
v -576 -64 -0.03333334
v -368 -96 -0.04
v -384 -96 -0.04
v -384 -80 -0.04
v -368 -80 -0.04
v -384 -96 -0.04
v -400 -96 -0.04
v -400 -80 -0.04
v -384 -80 -0.04
v -400 -96 -0.04
v -416 -96 -0.04
v -416 -80 -0.04
v -400 -80 -0.04
v -544 -96 -0.04
v -560 -96 -0.04
v -560 -80 -0.04
v -544 -80 -0.04
v -560 -96 -0.04
v -576 -96 -0.04
v -576 -80 -0.04
v -560 -80 -0.04
v -576 -96 -0.04
v -592 -96 -0.04
v -592 -80 -0.04
v -576 -80 -0.04
v -432 -112 -0.04666667
v -448 -112 -0.04666667
v -448 -96 -0.04666667
v -432 -96 -0.04666667
v -448 -112 -0.04666667
v -464 -112 -0.04666667
v -464 -96 -0.04666667
v -448 -96 -0.04666667
v -464 -112 -0.04666667
v -480 -112 -0.04666667
v -480 -96 -0.04666667
v -464 -96 -0.04666667
v -480 -112 -0.04666667
v -496 -112 -0.04666667
v -496 -96 -0.04666667
v -480 -96 -0.04666667
v -496 -112 -0.04666667
v -512 -112 -0.04666667
v -512 -96 -0.04666667
v -496 -96 -0.04666667
v -512 -112 -0.04666667
v -528 -112 -0.04666667
v -528 -96 -0.04666667
v -512 -96 -0.04666667
v -432 -128 -0.05333333
v -448 -128 -0.05333333
v -448 -112 -0.05333333
v -432 -112 -0.05333333
v -448 -128 -0.05333333
v -464 -128 -0.05333333
v -464 -112 -0.05333333
v -448 -112 -0.05333333
v -464 -128 -0.05333333
v -480 -128 -0.05333333
v -480 -112 -0.05333333
v -464 -112 -0.05333333
v -480 -128 -0.05333333
v -496 -128 -0.05333333
v -496 -112 -0.05333333
v -480 -112 -0.05333333
v -496 -128 -0.05333333
v -512 -128 -0.05333333
v -512 -112 -0.05333333
v -496 -112 -0.05333333
v -512 -128 -0.05333333
v -528 -128 -0.05333333
v -528 -112 -0.05333333
v -512 -112 -0.05333333
v -432 -144 -0.06
v -448 -144 -0.06
v -448 -128 -0.06
v -432 -128 -0.06
v -448 -144 -0.06
v -464 -144 -0.06
v -464 -128 -0.06
v -448 -128 -0.06
v -464 -144 -0.06
v -480 -144 -0.06
v -480 -128 -0.06
v -464 -128 -0.06
v -480 -144 -0.06
v -496 -144 -0.06
v -496 -128 -0.06
v -480 -128 -0.06
v -496 -144 -0.06
v -512 -144 -0.06
v -512 -128 -0.06
v -496 -128 -0.06
v -512 -144 -0.06
v -528 -144 -0.06
v -528 -128 -0.06
v -512 -128 -0.06
v -432 -160 -0.06666667
v -448 -160 -0.06666667
v -448 -144 -0.06666667
v -432 -144 -0.06666667
v -448 -160 -0.06666667
v -464 -160 -0.06666667
v -464 -144 -0.06666667
v -448 -144 -0.06666667
v -464 -160 -0.06666667
v -480 -160 -0.06666667
v -480 -144 -0.06666667
v -464 -144 -0.06666667
v -480 -160 -0.06666667
v -496 -160 -0.06666667
v -496 -144 -0.06666667
v -480 -144 -0.06666667
v -496 -160 -0.06666667
v -512 -160 -0.06666667
v -512 -144 -0.06666667
v -496 -144 -0.06666667
v -512 -160 -0.06666667
v -528 -160 -0.06666667
v -528 -144 -0.06666667
v -512 -144 -0.06666667
v -432 -176 -0.07333333
v -448 -176 -0.07333333
v -448 -160 -0.07333333
v -432 -160 -0.07333333
v -448 -176 -0.07333333
v -464 -176 -0.07333333
v -464 -160 -0.07333333
v -448 -160 -0.07333333
v -464 -176 -0.07333333
v -480 -176 -0.07333333
v -480 -160 -0.07333333
v -464 -160 -0.07333333
v -480 -176 -0.07333333
v -496 -176 -0.07333333
v -496 -160 -0.07333333
v -480 -160 -0.07333333
v -496 -176 -0.07333333
v -512 -176 -0.07333333
v -512 -160 -0.07333333
v -496 -160 -0.07333333
v -512 -176 -0.07333333
v -528 -176 -0.07333333
v -528 -160 -0.07333333
v -512 -160 -0.07333333
v -368 -208 -0.08666667
v -384 -208 -0.08666667
v -384 -192 -0.08666667
v -368 -192 -0.08666667
v -384 -208 -0.08666667
v -400 -208 -0.08666667
v -400 -192 -0.08666667
v -384 -192 -0.08666667
v -400 -208 -0.08666667
v -416 -208 -0.08666667
v -416 -192 -0.08666667
v -400 -192 -0.08666667
v -544 -208 -0.08666667
v -560 -208 -0.08666667
v -560 -192 -0.08666667
v -544 -192 -0.08666667
v -560 -208 -0.08666667
v -576 -208 -0.08666667
v -576 -192 -0.08666667
v -560 -192 -0.08666667
v -576 -208 -0.08666667
v -592 -208 -0.08666667
v -592 -192 -0.08666667
v -576 -192 -0.08666667
v -368 -224 -0.09333333
v -384 -224 -0.09333333
v -384 -208 -0.09333333
v -368 -208 -0.09333333
v -384 -224 -0.09333333
v -400 -224 -0.09333333
v -400 -208 -0.09333333
v -384 -208 -0.09333333
v -400 -224 -0.09333333
v -416 -224 -0.09333333
v -416 -208 -0.09333333
v -400 -208 -0.09333333
v -544 -224 -0.09333333
v -560 -224 -0.09333333
v -560 -208 -0.09333333
v -544 -208 -0.09333333
v -560 -224 -0.09333333
v -576 -224 -0.09333333
v -576 -208 -0.09333333
v -560 -208 -0.09333333
v -576 -224 -0.09333333
v -592 -224 -0.09333333
v -592 -208 -0.09333333
v -576 -208 -0.09333333
v -368 -240 -0.1
v -384 -240 -0.1
v -384 -224 -0.1
v -368 -224 -0.1
v -384 -240 -0.1
v -400 -240 -0.1
v -400 -224 -0.1
v -384 -224 -0.1
v -400 -240 -0.1
v -416 -240 -0.1
v -416 -224 -0.1
v -400 -224 -0.1
v -544 -240 -0.1
v -560 -240 -0.1
v -560 -224 -0.1
v -544 -224 -0.1
v -560 -240 -0.1
v -576 -240 -0.1
v -576 -224 -0.1
v -560 -224 -0.1
v -576 -240 -0.1
v -592 -240 -0.1
v -592 -224 -0.1
v -576 -224 -0.1

# Texture cooridinates (Count = 45)
vt 0.1666667 0.5
vt 0.3333333 0.5
vt 0.3333333 0.5833334
vt 0.1666667 0.5833334
vt 0.5 0.6666666
vt 0.6666667 0.6666666
vt 0.6666667 0.75
vt 0.5 0.75
vt 0.6666667 0.5
vt 0.8333333 0.5
vt 0.8333333 0.5833334
vt 0.6666667 0.5833334
vt 0.8333333 0.6666666
vt 0.8333333 0.75
vt 0.8333333 0.8333333
vt 1 0.8333333
vt 1 0.9166667
vt 0.8333333 0.9166667
vt 0.5 0.4166667
vt 0.6666667 0.4166667
vt 0.5 0.5
vt 0.3333333 0.8333333
vt 0.5 0.8333333
vt 0.5 0.9166667
vt 0.3333333 0.9166667
vt 0.1666667 0.4166667
vt 0.3333333 0.4166667
vt 0.1666667 0.25
vt 0.3333333 0.25
vt 0.3333333 0.3333333
vt 0.1666667 0.3333333
vt 0.5 0.25
vt 0.6666667 0.25
vt 0.6666667 0.3333333
vt 0.5 0.3333333
vt 0.8333333 0.25
vt 0.8333333 0.3333333
vt 0.6666667 0.9166667
vt 0.6666667 1
vt 0.5 1
vt 0.5 0.5833334
vt 1 0.75
vt 0.3333333 0.75
vt 0.8333333 0.4166667
vt 0.8333333 1

# Normal
vn 0 0 -1

# Mesh description
g WorldMapV1_mesh_0042

# Faces
f 1/1/1 2/2/1 3/3/1 4/4/1
f 5/5/1 6/6/1 7/7/1 8/8/1
f 9/9/1 10/10/1 11/11/1 12/12/1
f 13/1/1 14/2/1 15/3/1 16/4/1
f 17/6/1 18/13/1 19/14/1 20/7/1
f 21/9/1 22/10/1 23/11/1 24/12/1
f 25/15/1 26/16/1 27/17/1 28/18/1
f 29/19/1 30/20/1 31/9/1 32/21/1
f 33/22/1 34/23/1 35/24/1 36/25/1
f 37/26/1 38/27/1 39/2/1 40/1/1
f 41/27/1 42/19/1 43/21/1 44/2/1
f 45/22/1 46/23/1 47/24/1 48/25/1
f 49/28/1 50/29/1 51/30/1 52/31/1
f 53/32/1 54/33/1 55/34/1 56/35/1
f 57/33/1 58/36/1 59/37/1 60/34/1
f 61/28/1 62/29/1 63/30/1 64/31/1
f 65/24/1 66/38/1 67/39/1 68/40/1
f 69/33/1 70/36/1 71/37/1 72/34/1
f 73/1/1 74/2/1 75/3/1 76/4/1
f 77/21/1 78/9/1 79/12/1 80/41/1
f 81/6/1 82/13/1 83/14/1 84/7/1
f 85/2/1 86/21/1 87/41/1 88/3/1
f 89/6/1 90/13/1 91/14/1 92/7/1
f 93/9/1 94/10/1 95/11/1 96/12/1
f 97/14/1 98/42/1 99/16/1 100/15/1
f 101/19/1 102/20/1 103/9/1 104/21/1
f 105/35/1 106/34/1 107/20/1 108/19/1
f 109/35/1 110/34/1 111/20/1 112/19/1
f 113/35/1 114/34/1 115/20/1 116/19/1
f 117/43/1 118/8/1 119/23/1 120/22/1
f 121/15/1 122/16/1 123/17/1 124/18/1
f 125/35/1 126/34/1 127/20/1 128/19/1
f 129/27/1 130/19/1 131/21/1 132/2/1
f 133/35/1 134/34/1 135/20/1 136/19/1
f 137/35/1 138/34/1 139/20/1 140/19/1
f 141/34/1 142/37/1 143/44/1 144/20/1
f 145/14/1 146/42/1 147/16/1 148/15/1
f 149/19/1 150/20/1 151/9/1 152/21/1
f 153/30/1 154/35/1 155/19/1 156/27/1
f 157/30/1 158/35/1 159/19/1 160/27/1
f 161/27/1 162/19/1 163/21/1 164/2/1
f 165/20/1 166/44/1 167/10/1 168/9/1
f 169/28/1 170/29/1 171/30/1 172/31/1
f 173/29/1 174/32/1 175/35/1 176/30/1
f 177/38/1 178/18/1 179/45/1 180/39/1
f 181/38/1 182/18/1 183/45/1 184/39/1
f 185/24/1 186/38/1 187/39/1 188/40/1
f 189/33/1 190/36/1 191/37/1 192/34/1
f 193/1/1 194/2/1 195/3/1 196/4/1
f 197/21/1 198/9/1 199/12/1 200/41/1
f 201/9/1 202/10/1 203/11/1 204/12/1
f 205/1/1 206/2/1 207/3/1 208/4/1
f 209/21/1 210/9/1 211/12/1 212/41/1
f 213/9/1 214/10/1 215/11/1 216/12/1
f 217/14/1 218/42/1 219/16/1 220/15/1
f 221/19/1 222/20/1 223/9/1 224/21/1
f 225/20/1 226/44/1 227/10/1 228/9/1
f 229/15/1 230/16/1 231/17/1 232/18/1
f 233/27/1 234/19/1 235/21/1 236/2/1
f 237/22/1 238/23/1 239/24/1 240/25/1
f 241/28/1 242/29/1 243/30/1 244/31/1
f 245/32/1 246/33/1 247/34/1 248/35/1
f 249/33/1 250/36/1 251/37/1 252/34/1
f 253/28/1 254/29/1 255/30/1 256/31/1
f 257/29/1 258/32/1 259/35/1 260/30/1
f 261/33/1 262/36/1 263/37/1 264/34/1

