# Tiled2Unity generated file. Do not modify by hand.
# Wavefront file for 'WorldMapV1_mesh_0003.obj'

# Vertices (Count = 16)
v -2176 -2064 -0.86
v -2192 -2064 -0.86
v -2192 -2048 -0.86
v -2176 -2048 -0.86
v -2176 -2080 -0.8666667
v -2192 -2080 -0.8666667
v -2192 -2064 -0.8666667
v -2176 -2064 -0.8666667
v -2176 -2096 -0.8733333
v -2192 -2096 -0.8733333
v -2192 -2080 -0.8733333
v -2176 -2080 -0.8733333
v -2176 -2112 -0.88
v -2192 -2112 -0.88
v -2192 -2096 -0.88
v -2176 -2096 -0.88

# Texture cooridinates (Count = 6)
vt 0.04761905 0.5384616
vt 0.0952381 0.5384616
vt 0.0952381 0.5641025
vt 0.04761905 0.5641025
vt 0.0952381 0.5897436
vt 0.04761905 0.5897436

# Normal
vn 0 0 -1

# Mesh description
g WorldMapV1_mesh_0003

# Faces
f 1/1/1 2/2/1 3/3/1 4/4/1
f 5/1/1 6/2/1 7/3/1 8/4/1
f 9/1/1 10/2/1 11/3/1 12/4/1
f 13/4/1 14/3/1 15/5/1 16/6/1

