# Tiled2Unity generated file. Do not modify by hand.
# Wavefront file for 'WorldMapV1_mesh_0059.obj'

# Vertices (Count = 40)
v -1536 -32 -0.01333333
v -1552 -32 -0.01333333
v -1552 -16 -0.01333333
v -1536 -16 -0.01333333
v -1696 -32 -0.01333333
v -1712 -32 -0.01333333
v -1712 -16 -0.01333333
v -1696 -16 -0.01333333
v -1744 -32 -0.01333333
v -1760 -32 -0.01333333
v -1760 -16 -0.01333333
v -1744 -16 -0.01333333
v -1792 -32 -0.01333333
v -1808 -32 -0.01333333
v -1808 -16 -0.01333333
v -1792 -16 -0.01333333
v -1968 -32 -0.01333333
v -1984 -32 -0.01333333
v -1984 -16 -0.01333333
v -1968 -16 -0.01333333
v -1536 -288 -0.12
v -1552 -288 -0.12
v -1552 -272 -0.12
v -1536 -272 -0.12
v -1696 -288 -0.12
v -1712 -288 -0.12
v -1712 -272 -0.12
v -1696 -272 -0.12
v -1744 -288 -0.12
v -1760 -288 -0.12
v -1760 -272 -0.12
v -1744 -272 -0.12
v -1792 -288 -0.12
v -1808 -288 -0.12
v -1808 -272 -0.12
v -1792 -272 -0.12
v -1968 -288 -0.12
v -1984 -288 -0.12
v -1984 -272 -0.12
v -1968 -272 -0.12

# Texture cooridinates (Count = 6)
vt 0.125 0.625
vt 0.25 0.625
vt 0.25 0.75
vt 0.125 0.75
vt 0.375 0.625
vt 0.375 0.75

# Normal
vn 0 0 -1

# Mesh description
g WorldMapV1_mesh_0059

# Faces
f 1/1/1 2/2/1 3/3/1 4/4/1
f 5/2/1 6/5/1 7/6/1 8/3/1
f 9/2/1 10/5/1 11/6/1 12/3/1
f 13/2/1 14/5/1 15/6/1 16/3/1
f 17/1/1 18/2/1 19/3/1 20/4/1
f 21/1/1 22/2/1 23/3/1 24/4/1
f 25/2/1 26/5/1 27/6/1 28/3/1
f 29/2/1 30/5/1 31/6/1 32/3/1
f 33/2/1 34/5/1 35/6/1 36/3/1
f 37/1/1 38/2/1 39/3/1 40/4/1

