# Tiled2Unity generated file. Do not modify by hand.
# Wavefront file for 'WorldMapV1_mesh_0072.obj'

# Vertices (Count = 44)
v -1280 -1456 -0.6066667
v -1296 -1456 -0.6066667
v -1296 -1440 -0.6066667
v -1280 -1440 -0.6066667
v -1728 -1456 -0.6066667
v -1744 -1456 -0.6066667
v -1744 -1440 -0.6066667
v -1728 -1440 -0.6066667
v -1280 -1472 -0.6133333
v -1296 -1472 -0.6133333
v -1296 -1456 -0.6133333
v -1280 -1456 -0.6133333
v -2016 -1536 -0.64
v -2032 -1536 -0.64
v -2032 -1520 -0.64
v -2016 -1520 -0.64
v -1296 -1584 -0.66
v -1312 -1584 -0.66
v -1312 -1568 -0.66
v -1296 -1568 -0.66
v -2000 -1744 -0.7266667
v -2016 -1744 -0.7266667
v -2016 -1728 -0.7266667
v -2000 -1728 -0.7266667
v -2112 -1760 -0.7333333
v -2128 -1760 -0.7333333
v -2128 -1744 -0.7333333
v -2112 -1744 -0.7333333
v -1840 -1952 -0.8133333
v -1856 -1952 -0.8133333
v -1856 -1936 -0.8133333
v -1840 -1936 -0.8133333
v -1856 -1952 -0.8133333
v -1872 -1952 -0.8133333
v -1872 -1936 -0.8133333
v -1856 -1936 -0.8133333
v -1488 -1984 -0.8266667
v -1504 -1984 -0.8266667
v -1504 -1968 -0.8266667
v -1488 -1968 -0.8266667
v -1968 -2080 -0.8666667
v -1984 -2080 -0.8666667
v -1984 -2064 -0.8666667
v -1968 -2064 -0.8666667

# Texture cooridinates (Count = 6)
vt 0.125 0.8571429
vt 0.25 0.8571429
vt 0.25 1
vt 0.125 1
vt 0 0.8571429
vt 0 1

# Normal
vn 0 0 -1

# Mesh description
g WorldMapV1_mesh_0072

# Faces
f 1/1/1 2/2/1 3/3/1 4/4/1
f 5/1/1 6/2/1 7/3/1 8/4/1
f 9/1/1 10/2/1 11/3/1 12/4/1
f 13/5/1 14/1/1 15/4/1 16/6/1
f 17/1/1 18/2/1 19/3/1 20/4/1
f 21/1/1 22/2/1 23/3/1 24/4/1
f 25/5/1 26/1/1 27/4/1 28/6/1
f 29/1/1 30/2/1 31/3/1 32/4/1
f 33/1/1 34/2/1 35/3/1 36/4/1
f 37/1/1 38/2/1 39/3/1 40/4/1
f 41/1/1 42/2/1 43/3/1 44/4/1

