# Tiled2Unity generated file. Do not modify by hand.
# Wavefront file for 'WorldMapV1_mesh_0074.obj'

# Vertices (Count = 16)
v -1808 -1776 -0.74
v -1824 -1776 -0.74
v -1824 -1760 -0.74
v -1808 -1760 -0.74
v -1824 -1776 -0.74
v -1840 -1776 -0.74
v -1840 -1760 -0.74
v -1824 -1760 -0.74
v -1808 -1792 -0.7466667
v -1824 -1792 -0.7466667
v -1824 -1776 -0.7466667
v -1808 -1776 -0.7466667
v -1824 -1792 -0.7466667
v -1840 -1792 -0.7466667
v -1840 -1776 -0.7466667
v -1824 -1776 -0.7466667

# Texture cooridinates (Count = 9)
vt 0 0.75
vt 0.1666667 0.75
vt 0.1666667 1
vt 0 1
vt 0.3333333 0.75
vt 0.3333333 1
vt 0 0.5
vt 0.1666667 0.5
vt 0.3333333 0.5

# Normal
vn 0 0 -1

# Mesh description
g WorldMapV1_mesh_0074

# Faces
f 1/1/1 2/2/1 3/3/1 4/4/1
f 5/2/1 6/5/1 7/6/1 8/3/1
f 9/7/1 10/8/1 11/2/1 12/1/1
f 13/8/1 14/9/1 15/5/1 16/2/1

