# Tiled2Unity generated file. Do not modify by hand.
# Wavefront file for 'WorldMapV1_mesh_0058.obj'

# Vertices (Count = 260)
v -2208 -432 -0.18
v -2224 -432 -0.18
v -2224 -416 -0.18
v -2208 -416 -0.18
v -1632 -448 -0.1866667
v -1648 -448 -0.1866667
v -1648 -432 -0.1866667
v -1632 -432 -0.1866667
v -1648 -448 -0.1866667
v -1664 -448 -0.1866667
v -1664 -432 -0.1866667
v -1648 -432 -0.1866667
v -1680 -448 -0.1866667
v -1696 -448 -0.1866667
v -1696 -432 -0.1866667
v -1680 -432 -0.1866667
v -1696 -448 -0.1866667
v -1712 -448 -0.1866667
v -1712 -432 -0.1866667
v -1696 -432 -0.1866667
v -1776 -448 -0.1866667
v -1792 -448 -0.1866667
v -1792 -432 -0.1866667
v -1776 -432 -0.1866667
v -1792 -448 -0.1866667
v -1808 -448 -0.1866667
v -1808 -432 -0.1866667
v -1792 -432 -0.1866667
v -1824 -448 -0.1866667
v -1840 -448 -0.1866667
v -1840 -432 -0.1866667
v -1824 -432 -0.1866667
v -1840 -448 -0.1866667
v -1856 -448 -0.1866667
v -1856 -432 -0.1866667
v -1840 -432 -0.1866667
v -1632 -464 -0.1933333
v -1648 -464 -0.1933333
v -1648 -448 -0.1933333
v -1632 -448 -0.1933333
v -1648 -464 -0.1933333
v -1664 -464 -0.1933333
v -1664 -448 -0.1933333
v -1648 -448 -0.1933333
v -1680 -464 -0.1933333
v -1696 -464 -0.1933333
v -1696 -448 -0.1933333
v -1680 -448 -0.1933333
v -1696 -464 -0.1933333
v -1712 -464 -0.1933333
v -1712 -448 -0.1933333
v -1696 -448 -0.1933333
v -1776 -464 -0.1933333
v -1792 -464 -0.1933333
v -1792 -448 -0.1933333
v -1776 -448 -0.1933333
v -1792 -464 -0.1933333
v -1808 -464 -0.1933333
v -1808 -448 -0.1933333
v -1792 -448 -0.1933333
v -1824 -464 -0.1933333
v -1840 -464 -0.1933333
v -1840 -448 -0.1933333
v -1824 -448 -0.1933333
v -1840 -464 -0.1933333
v -1856 -464 -0.1933333
v -1856 -448 -0.1933333
v -1840 -448 -0.1933333
v -1632 -480 -0.2
v -1648 -480 -0.2
v -1648 -464 -0.2
v -1632 -464 -0.2
v -1648 -480 -0.2
v -1664 -480 -0.2
v -1664 -464 -0.2
v -1648 -464 -0.2
v -1680 -480 -0.2
v -1696 -480 -0.2
v -1696 -464 -0.2
v -1680 -464 -0.2
v -1696 -480 -0.2
v -1712 -480 -0.2
v -1712 -464 -0.2
v -1696 -464 -0.2
v -1776 -480 -0.2
v -1792 -480 -0.2
v -1792 -464 -0.2
v -1776 -464 -0.2
v -1792 -480 -0.2
v -1808 -480 -0.2
v -1808 -464 -0.2
v -1792 -464 -0.2
v -1824 -480 -0.2
v -1840 -480 -0.2
v -1840 -464 -0.2
v -1824 -464 -0.2
v -1840 -480 -0.2
v -1856 -480 -0.2
v -1856 -464 -0.2
v -1840 -464 -0.2
v -1632 -496 -0.2066667
v -1648 -496 -0.2066667
v -1648 -480 -0.2066667
v -1632 -480 -0.2066667
v -1648 -496 -0.2066667
v -1664 -496 -0.2066667
v -1664 -480 -0.2066667
v -1648 -480 -0.2066667
v -1824 -496 -0.2066667
v -1840 -496 -0.2066667
v -1840 -480 -0.2066667
v -1824 -480 -0.2066667
v -1840 -496 -0.2066667
v -1856 -496 -0.2066667
v -1856 -480 -0.2066667
v -1840 -480 -0.2066667
v -1648 -512 -0.2133333
v -1664 -512 -0.2133333
v -1664 -496 -0.2133333
v -1648 -496 -0.2133333
v -1728 -512 -0.2133333
v -1744 -512 -0.2133333
v -1744 -496 -0.2133333
v -1728 -496 -0.2133333
v -1744 -512 -0.2133333
v -1760 -512 -0.2133333
v -1760 -496 -0.2133333
v -1744 -496 -0.2133333
v -1824 -512 -0.2133333
v -1840 -512 -0.2133333
v -1840 -496 -0.2133333
v -1824 -496 -0.2133333
v -1648 -528 -0.22
v -1664 -528 -0.22
v -1664 -512 -0.22
v -1648 -512 -0.22
v -1728 -528 -0.22
v -1744 -528 -0.22
v -1744 -512 -0.22
v -1728 -512 -0.22
v -1744 -528 -0.22
v -1760 -528 -0.22
v -1760 -512 -0.22
v -1744 -512 -0.22
v -1824 -528 -0.22
v -1840 -528 -0.22
v -1840 -512 -0.22
v -1824 -512 -0.22
v -1648 -544 -0.2266667
v -1664 -544 -0.2266667
v -1664 -528 -0.2266667
v -1648 -528 -0.2266667
v -1728 -544 -0.2266667
v -1744 -544 -0.2266667
v -1744 -528 -0.2266667
v -1728 -528 -0.2266667
v -1744 -544 -0.2266667
v -1760 -544 -0.2266667
v -1760 -528 -0.2266667
v -1744 -528 -0.2266667
v -1824 -544 -0.2266667
v -1840 -544 -0.2266667
v -1840 -528 -0.2266667
v -1824 -528 -0.2266667
v -1648 -560 -0.2333333
v -1664 -560 -0.2333333
v -1664 -544 -0.2333333
v -1648 -544 -0.2333333
v -1728 -560 -0.2333333
v -1744 -560 -0.2333333
v -1744 -544 -0.2333333
v -1728 -544 -0.2333333
v -1744 -560 -0.2333333
v -1760 -560 -0.2333333
v -1760 -544 -0.2333333
v -1744 -544 -0.2333333
v -1824 -560 -0.2333333
v -1840 -560 -0.2333333
v -1840 -544 -0.2333333
v -1824 -544 -0.2333333
v -1648 -576 -0.24
v -1664 -576 -0.24
v -1664 -560 -0.24
v -1648 -560 -0.24
v -1728 -576 -0.24
v -1744 -576 -0.24
v -1744 -560 -0.24
v -1728 -560 -0.24
v -1744 -576 -0.24
v -1760 -576 -0.24
v -1760 -560 -0.24
v -1744 -560 -0.24
v -1824 -576 -0.24
v -1840 -576 -0.24
v -1840 -560 -0.24
v -1824 -560 -0.24
v -1648 -592 -0.2466667
v -1664 -592 -0.2466667
v -1664 -576 -0.2466667
v -1648 -576 -0.2466667
v -1728 -592 -0.2466667
v -1744 -592 -0.2466667
v -1744 -576 -0.2466667
v -1728 -576 -0.2466667
v -1744 -592 -0.2466667
v -1760 -592 -0.2466667
v -1760 -576 -0.2466667
v -1744 -576 -0.2466667
v -1824 -592 -0.2466667
v -1840 -592 -0.2466667
v -1840 -576 -0.2466667
v -1824 -576 -0.2466667
v -1648 -608 -0.2533333
v -1664 -608 -0.2533333
v -1664 -592 -0.2533333
v -1648 -592 -0.2533333
v -1728 -608 -0.2533333
v -1744 -608 -0.2533333
v -1744 -592 -0.2533333
v -1728 -592 -0.2533333
v -1744 -608 -0.2533333
v -1760 -608 -0.2533333
v -1760 -592 -0.2533333
v -1744 -592 -0.2533333
v -1824 -608 -0.2533333
v -1840 -608 -0.2533333
v -1840 -592 -0.2533333
v -1824 -592 -0.2533333
v -1648 -624 -0.26
v -1664 -624 -0.26
v -1664 -608 -0.26
v -1648 -608 -0.26
v -1728 -624 -0.26
v -1744 -624 -0.26
v -1744 -608 -0.26
v -1728 -608 -0.26
v -1744 -624 -0.26
v -1760 -624 -0.26
v -1760 -608 -0.26
v -1744 -608 -0.26
v -1824 -624 -0.26
v -1840 -624 -0.26
v -1840 -608 -0.26
v -1824 -608 -0.26
v -1648 -640 -0.2666667
v -1664 -640 -0.2666667
v -1664 -624 -0.2666667
v -1648 -624 -0.2666667
v -1728 -640 -0.2666667
v -1744 -640 -0.2666667
v -1744 -624 -0.2666667
v -1728 -624 -0.2666667
v -1744 -640 -0.2666667
v -1760 -640 -0.2666667
v -1760 -624 -0.2666667
v -1744 -624 -0.2666667
v -1824 -640 -0.2666667
v -1840 -640 -0.2666667
v -1840 -624 -0.2666667
v -1824 -624 -0.2666667

# Texture cooridinates (Count = 57)
vt 0.6333333 0.5
vt 0.6666667 0.5
vt 0.6666667 0.55
vt 0.6333333 0.55
vt 0.8666667 0.65
vt 0.9 0.65
vt 0.9 0.7
vt 0.8666667 0.7
vt 0.9333333 0.65
vt 0.9333333 0.7
vt 0.3333333 0.7
vt 0.3666667 0.7
vt 0.3666667 0.75
vt 0.3333333 0.75
vt 0.4 0.7
vt 0.4 0.75
vt 0.8666667 0.6
vt 0.9 0.6
vt 0.9333333 0.6
vt 0.3333333 0.65
vt 0.3666667 0.65
vt 0.4 0.65
vt 0.8666667 0.55
vt 0.9 0.55
vt 0.9333333 0.55
vt 0.3333333 0.6
vt 0.3666667 0.6
vt 0.4 0.6
vt 0.8666667 0.5
vt 0.9 0.5
vt 0.9333333 0.5
vt 0.4333333 0.75
vt 0.4666667 0.75
vt 0.4666667 0.8
vt 0.4333333 0.8
vt 0.4333333 0.65
vt 0.4333333 0.7
vt 0 0.15
vt 0.03333334 0.15
vt 0.03333334 0.2
vt 0 0.2
vt 0.5 0.15
vt 0.5333334 0.15
vt 0.5333334 0.2
vt 0.5 0.2
vt 0 0.1
vt 0.03333334 0.1
vt 0.5 0.1
vt 0.5333334 0.1
vt 0 0.05000001
vt 0.03333334 0.05000001
vt 0.5 0.05000001
vt 0.5333334 0.05000001
vt 0 0
vt 0.03333334 0
vt 0.5 0
vt 0.5333334 0

# Normal
vn 0 0 -1

# Mesh description
g WorldMapV1_mesh_0058

# Faces
f 1/1/1 2/2/1 3/3/1 4/4/1
f 5/5/1 6/6/1 7/7/1 8/8/1
f 9/6/1 10/9/1 11/10/1 12/7/1
f 13/11/1 14/12/1 15/13/1 16/14/1
f 17/12/1 18/15/1 19/16/1 20/13/1
f 21/11/1 22/12/1 23/13/1 24/14/1
f 25/12/1 26/15/1 27/16/1 28/13/1
f 29/5/1 30/6/1 31/7/1 32/8/1
f 33/6/1 34/9/1 35/10/1 36/7/1
f 37/17/1 38/18/1 39/6/1 40/5/1
f 41/18/1 42/19/1 43/9/1 44/6/1
f 45/20/1 46/21/1 47/12/1 48/11/1
f 49/21/1 50/22/1 51/15/1 52/12/1
f 53/20/1 54/21/1 55/12/1 56/11/1
f 57/21/1 58/22/1 59/15/1 60/12/1
f 61/17/1 62/18/1 63/6/1 64/5/1
f 65/18/1 66/19/1 67/9/1 68/6/1
f 69/23/1 70/24/1 71/18/1 72/17/1
f 73/24/1 74/25/1 75/19/1 76/18/1
f 77/26/1 78/27/1 79/21/1 80/20/1
f 81/27/1 82/28/1 83/22/1 84/21/1
f 85/26/1 86/27/1 87/21/1 88/20/1
f 89/27/1 90/28/1 91/22/1 92/21/1
f 93/23/1 94/24/1 95/18/1 96/17/1
f 97/24/1 98/25/1 99/19/1 100/18/1
f 101/29/1 102/30/1 103/24/1 104/23/1
f 105/30/1 106/31/1 107/25/1 108/24/1
f 109/29/1 110/30/1 111/24/1 112/23/1
f 113/30/1 114/31/1 115/25/1 116/24/1
f 117/32/1 118/33/1 119/34/1 120/35/1
f 121/22/1 122/36/1 123/37/1 124/15/1
f 125/32/1 126/33/1 127/34/1 128/35/1
f 129/22/1 130/36/1 131/37/1 132/15/1
f 133/38/1 134/39/1 135/40/1 136/41/1
f 137/42/1 138/43/1 139/44/1 140/45/1
f 141/38/1 142/39/1 143/40/1 144/41/1
f 145/42/1 146/43/1 147/44/1 148/45/1
f 149/46/1 150/47/1 151/39/1 152/38/1
f 153/48/1 154/49/1 155/43/1 156/42/1
f 157/46/1 158/47/1 159/39/1 160/38/1
f 161/48/1 162/49/1 163/43/1 164/42/1
f 165/50/1 166/51/1 167/47/1 168/46/1
f 169/52/1 170/53/1 171/49/1 172/48/1
f 173/50/1 174/51/1 175/47/1 176/46/1
f 177/52/1 178/53/1 179/49/1 180/48/1
f 181/54/1 182/55/1 183/51/1 184/50/1
f 185/56/1 186/57/1 187/53/1 188/52/1
f 189/54/1 190/55/1 191/51/1 192/50/1
f 193/56/1 194/57/1 195/53/1 196/52/1
f 197/54/1 198/55/1 199/51/1 200/50/1
f 201/56/1 202/57/1 203/53/1 204/52/1
f 205/54/1 206/55/1 207/51/1 208/50/1
f 209/56/1 210/57/1 211/53/1 212/52/1
f 213/46/1 214/47/1 215/39/1 216/38/1
f 217/48/1 218/49/1 219/43/1 220/42/1
f 221/46/1 222/47/1 223/39/1 224/38/1
f 225/48/1 226/49/1 227/43/1 228/42/1
f 229/50/1 230/51/1 231/47/1 232/46/1
f 233/52/1 234/53/1 235/49/1 236/48/1
f 237/50/1 238/51/1 239/47/1 240/46/1
f 241/52/1 242/53/1 243/49/1 244/48/1
f 245/54/1 246/55/1 247/51/1 248/50/1
f 249/56/1 250/57/1 251/53/1 252/52/1
f 253/54/1 254/55/1 255/51/1 256/50/1
f 257/56/1 258/57/1 259/53/1 260/52/1

