# Tiled2Unity generated file. Do not modify by hand.
# Wavefront file for 'ShopAndStartBuilding_mesh_0005.obj'

# Vertices (Count = 400)
v -16 -144 -0.36
v -32 -144 -0.36
v -32 -128 -0.36
v -16 -128 -0.36
v -32 -144 -0.36
v -48 -144 -0.36
v -48 -128 -0.36
v -32 -128 -0.36
v -48 -144 -0.36
v -64 -144 -0.36
v -64 -128 -0.36
v -48 -128 -0.36
v -64 -144 -0.36
v -80 -144 -0.36
v -80 -128 -0.36
v -64 -128 -0.36
v -80 -144 -0.36
v -96 -144 -0.36
v -96 -128 -0.36
v -80 -128 -0.36
v -96 -144 -0.36
v -112 -144 -0.36
v -112 -128 -0.36
v -96 -128 -0.36
v -112 -144 -0.36
v -128 -144 -0.36
v -128 -128 -0.36
v -112 -128 -0.36
v -128 -144 -0.36
v -144 -144 -0.36
v -144 -128 -0.36
v -128 -128 -0.36
v -144 -144 -0.36
v -160 -144 -0.36
v -160 -128 -0.36
v -144 -128 -0.36
v -160 -144 -0.36
v -176 -144 -0.36
v -176 -128 -0.36
v -160 -128 -0.36
v -176 -144 -0.36
v -192 -144 -0.36
v -192 -128 -0.36
v -176 -128 -0.36
v -192 -144 -0.36
v -208 -144 -0.36
v -208 -128 -0.36
v -192 -128 -0.36
v -208 -144 -0.36
v -224 -144 -0.36
v -224 -128 -0.36
v -208 -128 -0.36
v -224 -144 -0.36
v -240 -144 -0.36
v -240 -128 -0.36
v -224 -128 -0.36
v -240 -144 -0.36
v -256 -144 -0.36
v -256 -128 -0.36
v -240 -128 -0.36
v -256 -144 -0.36
v -272 -144 -0.36
v -272 -128 -0.36
v -256 -128 -0.36
v -272 -144 -0.36
v -288 -144 -0.36
v -288 -128 -0.36
v -272 -128 -0.36
v -304 -144 -0.36
v -320 -144 -0.36
v -320 -128 -0.36
v -304 -128 -0.36
v -16 -160 -0.4
v -32 -160 -0.4
v -32 -144 -0.4
v -16 -144 -0.4
v -32 -160 -0.4
v -48 -160 -0.4
v -48 -144 -0.4
v -32 -144 -0.4
v -48 -160 -0.4
v -64 -160 -0.4
v -64 -144 -0.4
v -48 -144 -0.4
v -64 -160 -0.4
v -80 -160 -0.4
v -80 -144 -0.4
v -64 -144 -0.4
v -80 -160 -0.4
v -96 -160 -0.4
v -96 -144 -0.4
v -80 -144 -0.4
v -96 -160 -0.4
v -112 -160 -0.4
v -112 -144 -0.4
v -96 -144 -0.4
v -112 -160 -0.4
v -128 -160 -0.4
v -128 -144 -0.4
v -112 -144 -0.4
v -128 -160 -0.4
v -144 -160 -0.4
v -144 -144 -0.4
v -128 -144 -0.4
v -144 -160 -0.4
v -160 -160 -0.4
v -160 -144 -0.4
v -144 -144 -0.4
v -160 -160 -0.4
v -176 -160 -0.4
v -176 -144 -0.4
v -160 -144 -0.4
v -176 -160 -0.4
v -192 -160 -0.4
v -192 -144 -0.4
v -176 -144 -0.4
v -192 -160 -0.4
v -208 -160 -0.4
v -208 -144 -0.4
v -192 -144 -0.4
v -208 -160 -0.4
v -224 -160 -0.4
v -224 -144 -0.4
v -208 -144 -0.4
v -224 -160 -0.4
v -240 -160 -0.4
v -240 -144 -0.4
v -224 -144 -0.4
v -240 -160 -0.4
v -256 -160 -0.4
v -256 -144 -0.4
v -240 -144 -0.4
v -256 -160 -0.4
v -272 -160 -0.4
v -272 -144 -0.4
v -256 -144 -0.4
v -272 -160 -0.4
v -288 -160 -0.4
v -288 -144 -0.4
v -272 -144 -0.4
v -288 -176 -0.44
v -304 -176 -0.44
v -304 -160 -0.44
v -288 -160 -0.44
v -304 -176 -0.44
v -320 -176 -0.44
v -320 -160 -0.44
v -304 -160 -0.44
v -32 -192 -0.48
v -48 -192 -0.48
v -48 -176 -0.48
v -32 -176 -0.48
v -48 -192 -0.48
v -64 -192 -0.48
v -64 -176 -0.48
v -48 -176 -0.48
v -80 -192 -0.48
v -96 -192 -0.48
v -96 -176 -0.48
v -80 -176 -0.48
v -96 -192 -0.48
v -112 -192 -0.48
v -112 -176 -0.48
v -96 -176 -0.48
v -112 -192 -0.48
v -128 -192 -0.48
v -128 -176 -0.48
v -112 -176 -0.48
v -80 -208 -0.52
v -96 -208 -0.52
v -96 -192 -0.52
v -80 -192 -0.52
v -96 -208 -0.52
v -112 -208 -0.52
v -112 -192 -0.52
v -96 -192 -0.52
v -112 -208 -0.52
v -128 -208 -0.52
v -128 -192 -0.52
v -112 -192 -0.52
v -160 -208 -0.52
v -176 -208 -0.52
v -176 -192 -0.52
v -160 -192 -0.52
v -176 -208 -0.52
v -192 -208 -0.52
v -192 -192 -0.52
v -176 -192 -0.52
v -192 -208 -0.52
v -208 -208 -0.52
v -208 -192 -0.52
v -192 -192 -0.52
v -304 -208 -0.52
v -320 -208 -0.52
v -320 -192 -0.52
v -304 -192 -0.52
v -80 -224 -0.56
v -96 -224 -0.56
v -96 -208 -0.56
v -80 -208 -0.56
v -96 -224 -0.56
v -112 -224 -0.56
v -112 -208 -0.56
v -96 -208 -0.56
v -112 -224 -0.56
v -128 -224 -0.56
v -128 -208 -0.56
v -112 -208 -0.56
v -80 -256 -0.64
v -96 -256 -0.64
v -96 -240 -0.64
v -80 -240 -0.64
v -96 -256 -0.64
v -112 -256 -0.64
v -112 -240 -0.64
v -96 -240 -0.64
v -112 -256 -0.64
v -128 -256 -0.64
v -128 -240 -0.64
v -112 -240 -0.64
v -176 -256 -0.64
v -192 -256 -0.64
v -192 -240 -0.64
v -176 -240 -0.64
v -192 -256 -0.64
v -208 -256 -0.64
v -208 -240 -0.64
v -192 -240 -0.64
v -208 -256 -0.64
v -224 -256 -0.64
v -224 -240 -0.64
v -208 -240 -0.64
v -176 -272 -0.68
v -192 -272 -0.68
v -192 -256 -0.68
v -176 -256 -0.68
v -192 -272 -0.68
v -208 -272 -0.68
v -208 -256 -0.68
v -192 -256 -0.68
v -208 -272 -0.68
v -224 -272 -0.68
v -224 -256 -0.68
v -208 -256 -0.68
v -272 -272 -0.68
v -288 -272 -0.68
v -288 -256 -0.68
v -272 -256 -0.68
v -304 -272 -0.68
v -320 -272 -0.68
v -320 -256 -0.68
v -304 -256 -0.68
v -352 -272 -0.68
v -368 -272 -0.68
v -368 -256 -0.68
v -352 -256 -0.68
v -80 -288 -0.72
v -96 -288 -0.72
v -96 -272 -0.72
v -80 -272 -0.72
v -96 -288 -0.72
v -112 -288 -0.72
v -112 -272 -0.72
v -96 -272 -0.72
v -112 -288 -0.72
v -128 -288 -0.72
v -128 -272 -0.72
v -112 -272 -0.72
v -176 -288 -0.72
v -192 -288 -0.72
v -192 -272 -0.72
v -176 -272 -0.72
v -192 -288 -0.72
v -208 -288 -0.72
v -208 -272 -0.72
v -192 -272 -0.72
v -208 -288 -0.72
v -224 -288 -0.72
v -224 -272 -0.72
v -208 -272 -0.72
v -80 -304 -0.76
v -96 -304 -0.76
v -96 -288 -0.76
v -80 -288 -0.76
v -96 -304 -0.76
v -112 -304 -0.76
v -112 -288 -0.76
v -96 -288 -0.76
v -112 -304 -0.76
v -128 -304 -0.76
v -128 -288 -0.76
v -112 -288 -0.76
v -320 -304 -0.76
v -336 -304 -0.76
v -336 -288 -0.76
v -320 -288 -0.76
v -336 -304 -0.76
v -352 -304 -0.76
v -352 -288 -0.76
v -336 -288 -0.76
v -352 -304 -0.76
v -368 -304 -0.76
v -368 -288 -0.76
v -352 -288 -0.76
v -16 -320 -0.8
v -32 -320 -0.8
v -32 -304 -0.8
v -16 -304 -0.8
v -32 -320 -0.8
v -48 -320 -0.8
v -48 -304 -0.8
v -32 -304 -0.8
v -48 -320 -0.8
v -64 -320 -0.8
v -64 -304 -0.8
v -48 -304 -0.8
v -80 -320 -0.8
v -96 -320 -0.8
v -96 -304 -0.8
v -80 -304 -0.8
v -96 -320 -0.8
v -112 -320 -0.8
v -112 -304 -0.8
v -96 -304 -0.8
v -112 -320 -0.8
v -128 -320 -0.8
v -128 -304 -0.8
v -112 -304 -0.8
v -176 -320 -0.8
v -192 -320 -0.8
v -192 -304 -0.8
v -176 -304 -0.8
v -192 -320 -0.8
v -208 -320 -0.8
v -208 -304 -0.8
v -192 -304 -0.8
v -208 -320 -0.8
v -224 -320 -0.8
v -224 -304 -0.8
v -208 -304 -0.8
v -240 -320 -0.8
v -256 -320 -0.8
v -256 -304 -0.8
v -240 -304 -0.8
v -256 -320 -0.8
v -272 -320 -0.8
v -272 -304 -0.8
v -256 -304 -0.8
v -272 -320 -0.8
v -288 -320 -0.8
v -288 -304 -0.8
v -272 -304 -0.8
v -16 -336 -0.84
v -32 -336 -0.84
v -32 -320 -0.84
v -16 -320 -0.84
v -32 -336 -0.84
v -48 -336 -0.84
v -48 -320 -0.84
v -32 -320 -0.84
v -48 -336 -0.84
v -64 -336 -0.84
v -64 -320 -0.84
v -48 -320 -0.84
v -240 -336 -0.84
v -256 -336 -0.84
v -256 -320 -0.84
v -240 -320 -0.84
v -256 -336 -0.84
v -272 -336 -0.84
v -272 -320 -0.84
v -256 -320 -0.84
v -272 -336 -0.84
v -288 -336 -0.84
v -288 -320 -0.84
v -272 -320 -0.84
v -16 -352 -0.88
v -32 -352 -0.88
v -32 -336 -0.88
v -16 -336 -0.88
v -32 -352 -0.88
v -48 -352 -0.88
v -48 -336 -0.88
v -32 -336 -0.88
v -48 -352 -0.88
v -64 -352 -0.88
v -64 -336 -0.88
v -48 -336 -0.88
v -240 -352 -0.88
v -256 -352 -0.88
v -256 -336 -0.88
v -240 -336 -0.88
v -256 -352 -0.88
v -272 -352 -0.88
v -272 -336 -0.88
v -256 -336 -0.88
v -272 -352 -0.88
v -288 -352 -0.88
v -288 -336 -0.88
v -272 -336 -0.88

# Texture cooridinates (Count = 46)
vt 0 0.5
vt 0.125 0.5
vt 0.125 0.5454545
vt 0 0.5454545
vt 0.25 0.5
vt 0.25 0.5454545
vt 0.375 0.5
vt 0.375 0.5454545
vt 0 0.5909091
vt 0.125 0.5909091
vt 0.125 0.6363636
vt 0 0.6363636
vt 0 0.2272727
vt 0.125 0.2272727
vt 0.125 0.2727273
vt 0 0.2727273
vt 0.25 0.2272727
vt 0.25 0.2727273
vt 0.375 0.2272727
vt 0.375 0.2727273
vt 0.25 0.6363636
vt 0.25 0.6818182
vt 0.125 0.6818182
vt 0.375 0.6363636
vt 0.375 0.6818182
vt 0 0.6818182
vt 0 0.3181818
vt 0.125 0.3181818
vt 0.125 0.3636364
vt 0 0.3636364
vt 0.25 0.3181818
vt 0.25 0.3636364
vt 0.375 0.3181818
vt 0.375 0.3636364
vt 0.5 0.3181818
vt 0.5 0.3636364
vt 0.625 0.3181818
vt 0.625 0.3636364
vt 0.75 0.3181818
vt 0.75 0.3636364
vt 0.5 0.2727273
vt 0.625 0.2727273
vt 0.75 0.2727273
vt 0.5 0.2272727
vt 0.625 0.2272727
vt 0.75 0.2272727

# Normal
vn 0 0 -1

# Mesh description
g ShopAndStartBuilding_mesh_0005

# Faces
f 1/1/1 2/2/1 3/3/1 4/4/1
f 5/2/1 6/5/1 7/6/1 8/3/1
f 9/2/1 10/5/1 11/6/1 12/3/1
f 13/2/1 14/5/1 15/6/1 16/3/1
f 17/2/1 18/5/1 19/6/1 20/3/1
f 21/2/1 22/5/1 23/6/1 24/3/1
f 25/2/1 26/5/1 27/6/1 28/3/1
f 29/2/1 30/5/1 31/6/1 32/3/1
f 33/2/1 34/5/1 35/6/1 36/3/1
f 37/2/1 38/5/1 39/6/1 40/3/1
f 41/2/1 42/5/1 43/6/1 44/3/1
f 45/2/1 46/5/1 47/6/1 48/3/1
f 49/2/1 50/5/1 51/6/1 52/3/1
f 53/2/1 54/5/1 55/6/1 56/3/1
f 57/2/1 58/5/1 59/6/1 60/3/1
f 61/2/1 62/5/1 63/6/1 64/3/1
f 65/5/1 66/7/1 67/8/1 68/6/1
f 69/9/1 70/10/1 71/11/1 72/12/1
f 73/13/1 74/14/1 75/15/1 76/16/1
f 77/14/1 78/17/1 79/18/1 80/15/1
f 81/14/1 82/17/1 83/18/1 84/15/1
f 85/14/1 86/17/1 87/18/1 88/15/1
f 89/14/1 90/17/1 91/18/1 92/15/1
f 93/14/1 94/17/1 95/18/1 96/15/1
f 97/14/1 98/17/1 99/18/1 100/15/1
f 101/14/1 102/17/1 103/18/1 104/15/1
f 105/14/1 106/17/1 107/18/1 108/15/1
f 109/14/1 110/17/1 111/18/1 112/15/1
f 113/14/1 114/17/1 115/18/1 116/15/1
f 117/14/1 118/17/1 119/18/1 120/15/1
f 121/14/1 122/17/1 123/18/1 124/15/1
f 125/14/1 126/17/1 127/18/1 128/15/1
f 129/14/1 130/17/1 131/18/1 132/15/1
f 133/14/1 134/17/1 135/18/1 136/15/1
f 137/17/1 138/19/1 139/20/1 140/18/1
f 141/11/1 142/21/1 143/22/1 144/23/1
f 145/21/1 146/24/1 147/25/1 148/22/1
f 149/12/1 150/11/1 151/23/1 152/26/1
f 153/11/1 154/21/1 155/22/1 156/23/1
f 157/27/1 158/28/1 159/29/1 160/30/1
f 161/28/1 162/31/1 163/32/1 164/29/1
f 165/31/1 166/33/1 167/34/1 168/32/1
f 169/16/1 170/15/1 171/28/1 172/27/1
f 173/15/1 174/18/1 175/31/1 176/28/1
f 177/18/1 178/20/1 179/33/1 180/31/1
f 181/12/1 182/11/1 183/23/1 184/26/1
f 185/11/1 186/21/1 187/22/1 188/23/1
f 189/21/1 190/24/1 191/25/1 192/22/1
f 193/9/1 194/10/1 195/11/1 196/12/1
f 197/13/1 198/14/1 199/15/1 200/16/1
f 201/14/1 202/17/1 203/18/1 204/15/1
f 205/17/1 206/19/1 207/20/1 208/18/1
f 209/12/1 210/11/1 211/23/1 212/26/1
f 213/11/1 214/21/1 215/22/1 216/23/1
f 217/21/1 218/24/1 219/25/1 220/22/1
f 221/27/1 222/28/1 223/29/1 224/30/1
f 225/28/1 226/31/1 227/32/1 228/29/1
f 229/31/1 230/33/1 231/34/1 232/32/1
f 233/16/1 234/15/1 235/28/1 236/27/1
f 237/15/1 238/18/1 239/31/1 240/28/1
f 241/18/1 242/20/1 243/33/1 244/31/1
f 245/9/1 246/10/1 247/11/1 248/12/1
f 249/9/1 250/10/1 251/11/1 252/12/1
f 253/9/1 254/10/1 255/11/1 256/12/1
f 257/33/1 258/35/1 259/36/1 260/34/1
f 261/35/1 262/37/1 263/38/1 264/36/1
f 265/37/1 266/39/1 267/40/1 268/38/1
f 269/13/1 270/14/1 271/15/1 272/16/1
f 273/14/1 274/17/1 275/18/1 276/15/1
f 277/17/1 278/19/1 279/20/1 280/18/1
f 281/20/1 282/41/1 283/35/1 284/33/1
f 285/41/1 286/42/1 287/37/1 288/35/1
f 289/42/1 290/43/1 291/39/1 292/37/1
f 293/12/1 294/11/1 295/23/1 296/26/1
f 297/11/1 298/21/1 299/22/1 300/23/1
f 301/21/1 302/24/1 303/25/1 304/22/1
f 305/27/1 306/28/1 307/29/1 308/30/1
f 309/28/1 310/31/1 311/32/1 312/29/1
f 313/31/1 314/33/1 315/34/1 316/32/1
f 317/19/1 318/44/1 319/41/1 320/20/1
f 321/44/1 322/45/1 323/42/1 324/41/1
f 325/45/1 326/46/1 327/43/1 328/42/1
f 329/12/1 330/11/1 331/23/1 332/26/1
f 333/11/1 334/21/1 335/22/1 336/23/1
f 337/21/1 338/24/1 339/25/1 340/22/1
f 341/33/1 342/35/1 343/36/1 344/34/1
f 345/35/1 346/37/1 347/38/1 348/36/1
f 349/37/1 350/39/1 351/40/1 352/38/1
f 353/16/1 354/15/1 355/28/1 356/27/1
f 357/15/1 358/18/1 359/31/1 360/28/1
f 361/18/1 362/20/1 363/33/1 364/31/1
f 365/20/1 366/41/1 367/35/1 368/33/1
f 369/41/1 370/42/1 371/37/1 372/35/1
f 373/42/1 374/43/1 375/39/1 376/37/1
f 377/13/1 378/14/1 379/15/1 380/16/1
f 381/14/1 382/17/1 383/18/1 384/15/1
f 385/17/1 386/19/1 387/20/1 388/18/1
f 389/19/1 390/44/1 391/41/1 392/20/1
f 393/44/1 394/45/1 395/42/1 396/41/1
f 397/45/1 398/46/1 399/43/1 400/42/1

