# Tiled2Unity generated file. Do not modify by hand.
# Wavefront file for 'ShopAndStartBuilding_mesh_0002.obj'

# Vertices (Count = 396)
v 0 -48 -0.12
v -16 -48 -0.12
v -16 -32 -0.12
v 0 -32 -0.12
v -16 -48 -0.12
v -32 -48 -0.12
v -32 -32 -0.12
v -16 -32 -0.12
v -32 -48 -0.12
v -48 -48 -0.12
v -48 -32 -0.12
v -32 -32 -0.12
v -48 -48 -0.12
v -64 -48 -0.12
v -64 -32 -0.12
v -48 -32 -0.12
v -64 -48 -0.12
v -80 -48 -0.12
v -80 -32 -0.12
v -64 -32 -0.12
v -80 -48 -0.12
v -96 -48 -0.12
v -96 -32 -0.12
v -80 -32 -0.12
v -96 -48 -0.12
v -112 -48 -0.12
v -112 -32 -0.12
v -96 -32 -0.12
v -112 -48 -0.12
v -128 -48 -0.12
v -128 -32 -0.12
v -112 -32 -0.12
v -128 -48 -0.12
v -144 -48 -0.12
v -144 -32 -0.12
v -128 -32 -0.12
v -144 -48 -0.12
v -160 -48 -0.12
v -160 -32 -0.12
v -144 -32 -0.12
v -160 -48 -0.12
v -176 -48 -0.12
v -176 -32 -0.12
v -160 -32 -0.12
v -176 -48 -0.12
v -192 -48 -0.12
v -192 -32 -0.12
v -176 -32 -0.12
v -192 -48 -0.12
v -208 -48 -0.12
v -208 -32 -0.12
v -192 -32 -0.12
v -208 -48 -0.12
v -224 -48 -0.12
v -224 -32 -0.12
v -208 -32 -0.12
v -224 -48 -0.12
v -240 -48 -0.12
v -240 -32 -0.12
v -224 -32 -0.12
v -240 -48 -0.12
v -256 -48 -0.12
v -256 -32 -0.12
v -240 -32 -0.12
v -256 -48 -0.12
v -272 -48 -0.12
v -272 -32 -0.12
v -256 -32 -0.12
v -272 -48 -0.12
v -288 -48 -0.12
v -288 -32 -0.12
v -272 -32 -0.12
v -288 -48 -0.12
v -304 -48 -0.12
v -304 -32 -0.12
v -288 -32 -0.12
v 0 -64 -0.16
v -16 -64 -0.16
v -16 -48 -0.16
v 0 -48 -0.16
v -288 -64 -0.16
v -304 -64 -0.16
v -304 -48 -0.16
v -288 -48 -0.16
v 0 -80 -0.2
v -16 -80 -0.2
v -16 -64 -0.2
v 0 -64 -0.2
v -288 -80 -0.2
v -304 -80 -0.2
v -304 -64 -0.2
v -288 -64 -0.2
v 0 -96 -0.24
v -16 -96 -0.24
v -16 -80 -0.24
v 0 -80 -0.24
v -288 -96 -0.24
v -304 -96 -0.24
v -304 -80 -0.24
v -288 -80 -0.24
v 0 -112 -0.28
v -16 -112 -0.28
v -16 -96 -0.28
v 0 -96 -0.28
v -288 -112 -0.28
v -304 -112 -0.28
v -304 -96 -0.28
v -288 -96 -0.28
v 0 -128 -0.32
v -16 -128 -0.32
v -16 -112 -0.32
v 0 -112 -0.32
v -288 -128 -0.32
v -304 -128 -0.32
v -304 -112 -0.32
v -288 -112 -0.32
v 0 -144 -0.36
v -16 -144 -0.36
v -16 -128 -0.36
v 0 -128 -0.36
v -288 -144 -0.36
v -304 -144 -0.36
v -304 -128 -0.36
v -288 -128 -0.36
v -304 -144 -0.36
v -320 -144 -0.36
v -320 -128 -0.36
v -304 -128 -0.36
v -320 -144 -0.36
v -336 -144 -0.36
v -336 -128 -0.36
v -320 -128 -0.36
v -336 -144 -0.36
v -352 -144 -0.36
v -352 -128 -0.36
v -336 -128 -0.36
v 0 -160 -0.4
v -16 -160 -0.4
v -16 -144 -0.4
v 0 -144 -0.4
v -336 -160 -0.4
v -352 -160 -0.4
v -352 -144 -0.4
v -336 -144 -0.4
v 0 -176 -0.44
v -16 -176 -0.44
v -16 -160 -0.44
v 0 -160 -0.44
v -336 -176 -0.44
v -352 -176 -0.44
v -352 -160 -0.44
v -336 -160 -0.44
v 0 -192 -0.48
v -16 -192 -0.48
v -16 -176 -0.48
v 0 -176 -0.48
v -336 -192 -0.48
v -352 -192 -0.48
v -352 -176 -0.48
v -336 -176 -0.48
v 0 -208 -0.52
v -16 -208 -0.52
v -16 -192 -0.52
v 0 -192 -0.52
v -256 -208 -0.52
v -272 -208 -0.52
v -272 -192 -0.52
v -256 -192 -0.52
v -272 -208 -0.52
v -288 -208 -0.52
v -288 -192 -0.52
v -272 -192 -0.52
v -288 -208 -0.52
v -304 -208 -0.52
v -304 -192 -0.52
v -288 -192 -0.52
v -304 -208 -0.52
v -320 -208 -0.52
v -320 -192 -0.52
v -304 -192 -0.52
v -320 -208 -0.52
v -336 -208 -0.52
v -336 -192 -0.52
v -320 -192 -0.52
v -336 -208 -0.52
v -352 -208 -0.52
v -352 -192 -0.52
v -336 -192 -0.52
v 0 -224 -0.56
v -16 -224 -0.56
v -16 -208 -0.56
v 0 -208 -0.56
v -256 -224 -0.56
v -272 -224 -0.56
v -272 -208 -0.56
v -256 -208 -0.56
v -336 -224 -0.56
v -352 -224 -0.56
v -352 -208 -0.56
v -336 -208 -0.56
v 0 -240 -0.6
v -16 -240 -0.6
v -16 -224 -0.6
v 0 -224 -0.6
v -256 -240 -0.6
v -272 -240 -0.6
v -272 -224 -0.6
v -256 -224 -0.6
v -336 -240 -0.6
v -352 -240 -0.6
v -352 -224 -0.6
v -336 -224 -0.6
v 0 -256 -0.64
v -16 -256 -0.64
v -16 -240 -0.64
v 0 -240 -0.64
v -256 -256 -0.64
v -272 -256 -0.64
v -272 -240 -0.64
v -256 -240 -0.64
v -336 -256 -0.64
v -352 -256 -0.64
v -352 -240 -0.64
v -336 -240 -0.64
v 0 -272 -0.68
v -16 -272 -0.68
v -16 -256 -0.68
v 0 -256 -0.68
v -256 -272 -0.68
v -272 -272 -0.68
v -272 -256 -0.68
v -256 -256 -0.68
v -272 -272 -0.68
v -288 -272 -0.68
v -288 -256 -0.68
v -272 -256 -0.68
v -304 -272 -0.68
v -320 -272 -0.68
v -320 -256 -0.68
v -304 -256 -0.68
v -320 -272 -0.68
v -336 -272 -0.68
v -336 -256 -0.68
v -320 -256 -0.68
v -336 -272 -0.68
v -352 -272 -0.68
v -352 -256 -0.68
v -336 -256 -0.68
v -352 -272 -0.68
v -368 -272 -0.68
v -368 -256 -0.68
v -352 -256 -0.68
v -368 -272 -0.68
v -384 -272 -0.68
v -384 -256 -0.68
v -368 -256 -0.68
v -384 -272 -0.68
v -400 -272 -0.68
v -400 -256 -0.68
v -384 -256 -0.68
v 0 -288 -0.72
v -16 -288 -0.72
v -16 -272 -0.72
v 0 -272 -0.72
v -384 -288 -0.72
v -400 -288 -0.72
v -400 -272 -0.72
v -384 -272 -0.72
v 0 -304 -0.76
v -16 -304 -0.76
v -16 -288 -0.76
v 0 -288 -0.76
v -384 -304 -0.76
v -400 -304 -0.76
v -400 -288 -0.76
v -384 -288 -0.76
v 0 -320 -0.8
v -16 -320 -0.8
v -16 -304 -0.8
v 0 -304 -0.8
v -384 -320 -0.8
v -400 -320 -0.8
v -400 -304 -0.8
v -384 -304 -0.8
v 0 -336 -0.84
v -16 -336 -0.84
v -16 -320 -0.84
v 0 -320 -0.84
v -384 -336 -0.84
v -400 -336 -0.84
v -400 -320 -0.84
v -384 -320 -0.84
v 0 -352 -0.88
v -16 -352 -0.88
v -16 -336 -0.88
v 0 -336 -0.88
v -384 -352 -0.88
v -400 -352 -0.88
v -400 -336 -0.88
v -384 -336 -0.88
v 0 -368 -0.92
v -16 -368 -0.92
v -16 -352 -0.92
v 0 -352 -0.92
v -16 -368 -0.92
v -32 -368 -0.92
v -32 -352 -0.92
v -16 -352 -0.92
v -32 -368 -0.92
v -48 -368 -0.92
v -48 -352 -0.92
v -32 -352 -0.92
v -48 -368 -0.92
v -64 -368 -0.92
v -64 -352 -0.92
v -48 -352 -0.92
v -64 -368 -0.92
v -80 -368 -0.92
v -80 -352 -0.92
v -64 -352 -0.92
v -80 -368 -0.92
v -96 -368 -0.92
v -96 -352 -0.92
v -80 -352 -0.92
v -96 -368 -0.92
v -112 -368 -0.92
v -112 -352 -0.92
v -96 -352 -0.92
v -112 -368 -0.92
v -128 -368 -0.92
v -128 -352 -0.92
v -112 -352 -0.92
v -128 -368 -0.92
v -144 -368 -0.92
v -144 -352 -0.92
v -128 -352 -0.92
v -144 -368 -0.92
v -160 -368 -0.92
v -160 -352 -0.92
v -144 -352 -0.92
v -160 -368 -0.92
v -176 -368 -0.92
v -176 -352 -0.92
v -160 -352 -0.92
v -176 -368 -0.92
v -192 -368 -0.92
v -192 -352 -0.92
v -176 -352 -0.92
v -208 -368 -0.92
v -224 -368 -0.92
v -224 -352 -0.92
v -208 -352 -0.92
v -224 -368 -0.92
v -240 -368 -0.92
v -240 -352 -0.92
v -224 -352 -0.92
v -240 -368 -0.92
v -256 -368 -0.92
v -256 -352 -0.92
v -240 -352 -0.92
v -256 -368 -0.92
v -272 -368 -0.92
v -272 -352 -0.92
v -256 -352 -0.92
v -272 -368 -0.92
v -288 -368 -0.92
v -288 -352 -0.92
v -272 -352 -0.92
v -288 -368 -0.92
v -304 -368 -0.92
v -304 -352 -0.92
v -288 -352 -0.92
v -304 -368 -0.92
v -320 -368 -0.92
v -320 -352 -0.92
v -304 -352 -0.92
v -320 -368 -0.92
v -336 -368 -0.92
v -336 -352 -0.92
v -320 -352 -0.92
v -336 -368 -0.92
v -352 -368 -0.92
v -352 -352 -0.92
v -336 -352 -0.92
v -352 -368 -0.92
v -368 -368 -0.92
v -368 -352 -0.92
v -352 -352 -0.92
v -368 -368 -0.92
v -384 -368 -0.92
v -384 -352 -0.92
v -368 -352 -0.92
v -384 -368 -0.92
v -400 -368 -0.92
v -400 -352 -0.92
v -384 -352 -0.92

# Texture cooridinates (Count = 16)
vt 0.35 0.9215686
vt 0.4 0.9215686
vt 0.4 0.9411765
vt 0.35 0.9411765
vt 0.45 0.9215686
vt 0.45 0.9411765
vt 0.5 0.9215686
vt 0.5 0.9411765
vt 0.35 0.9019608
vt 0.4 0.9019608
vt 0.35 0.8823529
vt 0.4 0.8823529
vt 0.45 0.8823529
vt 0.5 0.8823529
vt 0.5 0.9019608
vt 0.45 0.9019608

# Normal
vn 0 0 -1

# Mesh description
g ShopAndStartBuilding_mesh_0002

# Faces
f 1/1/1 2/2/1 3/3/1 4/4/1
f 5/2/1 6/5/1 7/6/1 8/3/1
f 9/2/1 10/5/1 11/6/1 12/3/1
f 13/2/1 14/5/1 15/6/1 16/3/1
f 17/2/1 18/5/1 19/6/1 20/3/1
f 21/2/1 22/5/1 23/6/1 24/3/1
f 25/2/1 26/5/1 27/6/1 28/3/1
f 29/2/1 30/5/1 31/6/1 32/3/1
f 33/2/1 34/5/1 35/6/1 36/3/1
f 37/2/1 38/5/1 39/6/1 40/3/1
f 41/2/1 42/5/1 43/6/1 44/3/1
f 45/2/1 46/5/1 47/6/1 48/3/1
f 49/2/1 50/5/1 51/6/1 52/3/1
f 53/2/1 54/5/1 55/6/1 56/3/1
f 57/2/1 58/5/1 59/6/1 60/3/1
f 61/2/1 62/5/1 63/6/1 64/3/1
f 65/2/1 66/5/1 67/6/1 68/3/1
f 69/2/1 70/5/1 71/6/1 72/3/1
f 73/5/1 74/7/1 75/8/1 76/6/1
f 77/9/1 78/10/1 79/2/1 80/1/1
f 81/9/1 82/10/1 83/2/1 84/1/1
f 85/9/1 86/10/1 87/2/1 88/1/1
f 89/9/1 90/10/1 91/2/1 92/1/1
f 93/9/1 94/10/1 95/2/1 96/1/1
f 97/9/1 98/10/1 99/2/1 100/1/1
f 101/9/1 102/10/1 103/2/1 104/1/1
f 105/9/1 106/10/1 107/2/1 108/1/1
f 109/9/1 110/10/1 111/2/1 112/1/1
f 113/9/1 114/10/1 115/2/1 116/1/1
f 117/9/1 118/10/1 119/2/1 120/1/1
f 121/11/1 122/12/1 123/10/1 124/9/1
f 125/2/1 126/5/1 127/6/1 128/3/1
f 129/2/1 130/5/1 131/6/1 132/3/1
f 133/5/1 134/7/1 135/8/1 136/6/1
f 137/9/1 138/10/1 139/2/1 140/1/1
f 141/9/1 142/10/1 143/2/1 144/1/1
f 145/9/1 146/10/1 147/2/1 148/1/1
f 149/9/1 150/10/1 151/2/1 152/1/1
f 153/9/1 154/10/1 155/2/1 156/1/1
f 157/9/1 158/10/1 159/2/1 160/1/1
f 161/9/1 162/10/1 163/2/1 164/1/1
f 165/1/1 166/2/1 167/3/1 168/4/1
f 169/2/1 170/5/1 171/6/1 172/3/1
f 173/2/1 174/5/1 175/6/1 176/3/1
f 177/2/1 178/5/1 179/6/1 180/3/1
f 181/2/1 182/5/1 183/6/1 184/3/1
f 185/9/1 186/10/1 187/2/1 188/1/1
f 189/9/1 190/10/1 191/2/1 192/1/1
f 193/9/1 194/10/1 195/2/1 196/1/1
f 197/9/1 198/10/1 199/2/1 200/1/1
f 201/9/1 202/10/1 203/2/1 204/1/1
f 205/9/1 206/10/1 207/2/1 208/1/1
f 209/9/1 210/10/1 211/2/1 212/1/1
f 213/9/1 214/10/1 215/2/1 216/1/1
f 217/9/1 218/10/1 219/2/1 220/1/1
f 221/9/1 222/10/1 223/2/1 224/1/1
f 225/9/1 226/10/1 227/2/1 228/1/1
f 229/11/1 230/12/1 231/10/1 232/9/1
f 233/2/1 234/5/1 235/6/1 236/3/1
f 237/2/1 238/5/1 239/6/1 240/3/1
f 241/2/1 242/5/1 243/6/1 244/3/1
f 245/2/1 246/5/1 247/6/1 248/3/1
f 249/2/1 250/5/1 251/6/1 252/3/1
f 253/2/1 254/5/1 255/6/1 256/3/1
f 257/5/1 258/7/1 259/8/1 260/6/1
f 261/9/1 262/10/1 263/2/1 264/1/1
f 265/9/1 266/10/1 267/2/1 268/1/1
f 269/9/1 270/10/1 271/2/1 272/1/1
f 273/9/1 274/10/1 275/2/1 276/1/1
f 277/9/1 278/10/1 279/2/1 280/1/1
f 281/9/1 282/10/1 283/2/1 284/1/1
f 285/9/1 286/10/1 287/2/1 288/1/1
f 289/9/1 290/10/1 291/2/1 292/1/1
f 293/9/1 294/10/1 295/2/1 296/1/1
f 297/9/1 298/10/1 299/2/1 300/1/1
f 301/11/1 302/12/1 303/10/1 304/9/1
f 305/2/1 306/5/1 307/6/1 308/3/1
f 309/2/1 310/5/1 311/6/1 312/3/1
f 313/2/1 314/5/1 315/6/1 316/3/1
f 317/2/1 318/5/1 319/6/1 320/3/1
f 321/2/1 322/5/1 323/6/1 324/3/1
f 325/2/1 326/5/1 327/6/1 328/3/1
f 329/2/1 330/5/1 331/6/1 332/3/1
f 333/2/1 334/5/1 335/6/1 336/3/1
f 337/2/1 338/5/1 339/6/1 340/3/1
f 341/2/1 342/5/1 343/6/1 344/3/1
f 345/2/1 346/5/1 347/6/1 348/3/1
f 349/2/1 350/5/1 351/6/1 352/3/1
f 353/2/1 354/5/1 355/6/1 356/3/1
f 357/2/1 358/5/1 359/6/1 360/3/1
f 361/2/1 362/5/1 363/6/1 364/3/1
f 365/2/1 366/5/1 367/6/1 368/3/1
f 369/2/1 370/5/1 371/6/1 372/3/1
f 373/2/1 374/5/1 375/6/1 376/3/1
f 377/2/1 378/5/1 379/6/1 380/3/1
f 381/2/1 382/5/1 383/6/1 384/3/1
f 385/2/1 386/5/1 387/6/1 388/3/1
f 389/2/1 390/5/1 391/6/1 392/3/1
f 393/13/1 394/14/1 395/15/1 396/16/1

