# Tiled2Unity generated file. Do not modify by hand.
# Wavefront file for 'ShopAndStartBuilding_mesh_0006.obj'

# Vertices (Count = 156)
v -96 -32 -0.08
v -112 -32 -0.08
v -112 -16 -0.08
v -96 -16 -0.08
v -112 -32 -0.08
v -128 -32 -0.08
v -128 -16 -0.08
v -112 -16 -0.08
v -128 -32 -0.08
v -144 -32 -0.08
v -144 -16 -0.08
v -128 -16 -0.08
v -320 -32 -0.08
v -336 -32 -0.08
v -336 -16 -0.08
v -320 -16 -0.08
v -352 -48 -0.12
v -368 -48 -0.12
v -368 -32 -0.12
v -352 -32 -0.12
v -16 -64 -0.16
v -32 -64 -0.16
v -32 -48 -0.16
v -16 -48 -0.16
v -32 -64 -0.16
v -48 -64 -0.16
v -48 -48 -0.16
v -32 -48 -0.16
v -48 -64 -0.16
v -64 -64 -0.16
v -64 -48 -0.16
v -48 -48 -0.16
v -64 -64 -0.16
v -80 -64 -0.16
v -80 -48 -0.16
v -64 -48 -0.16
v -80 -64 -0.16
v -96 -64 -0.16
v -96 -48 -0.16
v -80 -48 -0.16
v -96 -64 -0.16
v -112 -64 -0.16
v -112 -48 -0.16
v -96 -48 -0.16
v -128 -64 -0.16
v -144 -64 -0.16
v -144 -48 -0.16
v -128 -48 -0.16
v -144 -64 -0.16
v -160 -64 -0.16
v -160 -48 -0.16
v -144 -48 -0.16
v -192 -64 -0.16
v -208 -64 -0.16
v -208 -48 -0.16
v -192 -48 -0.16
v -208 -64 -0.16
v -224 -64 -0.16
v -224 -48 -0.16
v -208 -48 -0.16
v -224 -64 -0.16
v -240 -64 -0.16
v -240 -48 -0.16
v -224 -48 -0.16
v -240 -64 -0.16
v -256 -64 -0.16
v -256 -48 -0.16
v -240 -48 -0.16
v -256 -64 -0.16
v -272 -64 -0.16
v -272 -48 -0.16
v -256 -48 -0.16
v -272 -64 -0.16
v -288 -64 -0.16
v -288 -48 -0.16
v -272 -48 -0.16
v -352 -64 -0.16
v -368 -64 -0.16
v -368 -48 -0.16
v -352 -48 -0.16
v -352 -80 -0.2
v -368 -80 -0.2
v -368 -64 -0.2
v -352 -64 -0.2
v -352 -96 -0.24
v -368 -96 -0.24
v -368 -80 -0.24
v -352 -80 -0.24
v -48 -144 -0.36
v -64 -144 -0.36
v -64 -128 -0.36
v -48 -128 -0.36
v -128 -144 -0.36
v -144 -144 -0.36
v -144 -128 -0.36
v -128 -128 -0.36
v -208 -144 -0.36
v -224 -144 -0.36
v -224 -128 -0.36
v -208 -128 -0.36
v -16 -320 -0.8
v -32 -320 -0.8
v -32 -304 -0.8
v -16 -304 -0.8
v -16 -336 -0.84
v -32 -336 -0.84
v -32 -320 -0.84
v -16 -320 -0.84
v -32 -336 -0.84
v -48 -336 -0.84
v -48 -320 -0.84
v -32 -320 -0.84
v -16 -352 -0.88
v -32 -352 -0.88
v -32 -336 -0.88
v -16 -336 -0.88
v -32 -352 -0.88
v -48 -352 -0.88
v -48 -336 -0.88
v -32 -336 -0.88
v -48 -352 -0.88
v -64 -352 -0.88
v -64 -336 -0.88
v -48 -336 -0.88
v -32 -368 -0.92
v -48 -368 -0.92
v -48 -352 -0.92
v -32 -352 -0.92
v -96 -368 -0.92
v -112 -368 -0.92
v -112 -352 -0.92
v -96 -352 -0.92
v -144 -368 -0.92
v -160 -368 -0.92
v -160 -352 -0.92
v -144 -352 -0.92
v -256 -368 -0.92
v -272 -368 -0.92
v -272 -352 -0.92
v -256 -352 -0.92
v -320 -368 -0.92
v -336 -368 -0.92
v -336 -352 -0.92
v -320 -352 -0.92
v -384 -368 -0.92
v -400 -368 -0.92
v -400 -352 -0.92
v -384 -352 -0.92
v -176 -400 -1
v -192 -400 -1
v -192 -384 -1
v -176 -384 -1
v -208 -400 -1
v -224 -400 -1
v -224 -384 -1
v -208 -384 -1

# Texture cooridinates (Count = 59)
vt 0.75 0.4545454
vt 0.875 0.4545454
vt 0.875 0.5
vt 0.75 0.5
vt 0.5 0.1818182
vt 0.625 0.1818182
vt 0.625 0.2272727
vt 0.5 0.2272727
vt 0.125 0.1818182
vt 0.25 0.1818182
vt 0.25 0.2272727
vt 0.125 0.2272727
vt 0.375 0.4545454
vt 0.5 0.4545454
vt 0.5 0.5
vt 0.375 0.5
vt 0.25 0.4545454
vt 0.25 0.5
vt 0.25 0.8181818
vt 0.375 0.8181818
vt 0.375 0.8636364
vt 0.25 0.8636364
vt 0 0.8181818
vt 0.125 0.8181818
vt 0.125 0.8636364
vt 0 0.8636364
vt 0.125 0.4545454
vt 0.125 0.5
vt 0 0.4545454
vt 0 0.5
vt 0.875 0.5454545
vt 0.75 0.5454545
vt 0.625 0.3636364
vt 0.75 0.3636364
vt 0.75 0.4090909
vt 0.625 0.4090909
vt 0.625 0.6818182
vt 0.75 0.6818182
vt 0.75 0.7272727
vt 0.625 0.7272727
vt 0.5 0.6818182
vt 0.5 0.7272727
vt 0.25 0.6818182
vt 0.375 0.6818182
vt 0.375 0.7272727
vt 0.25 0.7272727
vt 0.5 0.8181818
vt 0.5 0.8636364
vt 0.625 0.8636364
vt 0.625 0.9090909
vt 0.5 0.9090909
vt 0.5 0.09090906
vt 0.625 0.09090906
vt 0.625 0.1363636
vt 0.5 0.1363636
vt 0.125 0
vt 0.25 0
vt 0.25 0.04545456
vt 0.125 0.04545456

# Normal
vn 0 0 -1

# Mesh description
g ShopAndStartBuilding_mesh_0006

# Faces
f 1/1/1 2/2/1 3/3/1 4/4/1
f 5/1/1 6/2/1 7/3/1 8/4/1
f 9/1/1 10/2/1 11/3/1 12/4/1
f 13/5/1 14/6/1 15/7/1 16/8/1
f 17/9/1 18/10/1 19/11/1 20/12/1
f 21/13/1 22/14/1 23/15/1 24/16/1
f 25/13/1 26/14/1 27/15/1 28/16/1
f 29/17/1 30/13/1 31/16/1 32/18/1
f 33/13/1 34/14/1 35/15/1 36/16/1
f 37/17/1 38/13/1 39/16/1 40/18/1
f 41/13/1 42/14/1 43/15/1 44/16/1
f 45/19/1 46/20/1 47/21/1 48/22/1
f 49/23/1 50/24/1 51/25/1 52/26/1
f 53/27/1 54/17/1 55/18/1 56/28/1
f 57/27/1 58/17/1 59/18/1 60/28/1
f 61/29/1 62/27/1 63/28/1 64/30/1
f 65/27/1 66/17/1 67/18/1 68/28/1
f 69/27/1 70/17/1 71/18/1 72/28/1
f 73/29/1 74/27/1 75/28/1 76/30/1
f 77/4/1 78/3/1 79/31/1 80/32/1
f 81/5/1 82/6/1 83/7/1 84/8/1
f 85/33/1 86/34/1 87/35/1 88/36/1
f 89/37/1 90/38/1 91/39/1 92/40/1
f 93/41/1 94/37/1 95/40/1 96/42/1
f 97/43/1 98/44/1 99/45/1 100/46/1
f 101/20/1 102/47/1 103/48/1 104/21/1
f 105/20/1 106/47/1 107/48/1 108/21/1
f 109/20/1 110/47/1 111/48/1 112/21/1
f 113/20/1 114/47/1 115/48/1 116/21/1
f 117/20/1 118/47/1 119/48/1 120/21/1
f 121/20/1 122/47/1 123/48/1 124/21/1
f 125/48/1 126/49/1 127/50/1 128/51/1
f 129/48/1 130/49/1 131/50/1 132/51/1
f 133/48/1 134/49/1 135/50/1 136/51/1
f 137/48/1 138/49/1 139/50/1 140/51/1
f 141/48/1 142/49/1 143/50/1 144/51/1
f 145/52/1 146/53/1 147/54/1 148/55/1
f 149/56/1 150/57/1 151/58/1 152/59/1
f 153/56/1 154/57/1 155/58/1 156/59/1

