# Tiled2Unity generated file. Do not modify by hand.
# Wavefront file for 'WorldMap_mesh_0003.obj'

# Vertices (Count = 468)
v -16 -48 0
v -32 -48 0
v -32 -32 0
v -16 -32 0
v -144 -48 0
v -160 -48 0
v -160 -32 0
v -144 -32 0
v -352 -48 0
v -368 -48 0
v -368 -32 0
v -352 -32 0
v -1280 -128 0
v -1296 -128 0
v -1296 -112 0
v -1280 -112 0
v -448 -144 0
v -464 -144 0
v -464 -128 0
v -448 -128 0
v -1200 -160 0
v -1216 -160 0
v -1216 -144 0
v -1200 -144 0
v -192 -192 0
v -208 -192 0
v -208 -176 0
v -192 -176 0
v -208 -192 0
v -224 -192 0
v -224 -176 0
v -208 -176 0
v -1136 -208 0
v -1152 -208 0
v -1152 -192 0
v -1136 -192 0
v -48 -224 0
v -64 -224 0
v -64 -208 0
v -48 -208 0
v -784 -224 0
v -800 -224 0
v -800 -208 0
v -784 -208 0
v -928 -224 0
v -944 -224 0
v -944 -208 0
v -928 -208 0
v -1024 -256 0
v -1040 -256 0
v -1040 -240 0
v -1024 -240 0
v -336 -272 0
v -352 -272 0
v -352 -256 0
v -336 -256 0
v -640 -272 0
v -656 -272 0
v -656 -256 0
v -640 -256 0
v -1024 -272 0
v -1040 -272 0
v -1040 -256 0
v -1024 -256 0
v -1360 -272 0
v -1376 -272 0
v -1376 -256 0
v -1360 -256 0
v -320 -352 0
v -336 -352 0
v -336 -336 0
v -320 -336 0
v -80 -368 0
v -96 -368 0
v -96 -352 0
v -80 -352 0
v -624 -368 0
v -640 -368 0
v -640 -352 0
v -624 -352 0
v -1376 -400 0
v -1392 -400 0
v -1392 -384 0
v -1376 -384 0
v -912 -416 0
v -928 -416 0
v -928 -400 0
v -912 -400 0
v -1472 -432 0
v -1488 -432 0
v -1488 -416 0
v -1472 -416 0
v -208 -448 0
v -224 -448 0
v -224 -432 0
v -208 -432 0
v -1520 -464 0
v -1536 -464 0
v -1536 -448 0
v -1520 -448 0
v -1264 -496 0
v -1280 -496 0
v -1280 -480 0
v -1264 -480 0
v -864 -512 0
v -880 -512 0
v -880 -496 0
v -864 -496 0
v -1472 -528 0
v -1488 -528 0
v -1488 -512 0
v -1472 -512 0
v -1200 -544 0
v -1216 -544 0
v -1216 -528 0
v -1200 -528 0
v -48 -560 0
v -64 -560 0
v -64 -544 0
v -48 -544 0
v -224 -560 0
v -240 -560 0
v -240 -544 0
v -224 -544 0
v -624 -576 0
v -640 -576 0
v -640 -560 0
v -624 -560 0
v -640 -576 0
v -656 -576 0
v -656 -560 0
v -640 -560 0
v -448 -592 0
v -464 -592 0
v -464 -576 0
v -448 -576 0
v -832 -592 0
v -848 -592 0
v -848 -576 0
v -832 -576 0
v -1168 -624 0
v -1184 -624 0
v -1184 -608 0
v -1168 -608 0
v -1360 -640 0
v -1376 -640 0
v -1376 -624 0
v -1360 -624 0
v -1424 -640 0
v -1440 -640 0
v -1440 -624 0
v -1424 -624 0
v -688 -672 0
v -704 -672 0
v -704 -656 0
v -688 -656 0
v -1472 -672 0
v -1488 -672 0
v -1488 -656 0
v -1472 -656 0
v -848 -688 0
v -864 -688 0
v -864 -672 0
v -848 -672 0
v -864 -688 0
v -880 -688 0
v -880 -672 0
v -864 -672 0
v -1408 -688 0
v -1424 -688 0
v -1424 -672 0
v -1408 -672 0
v -1200 -704 0
v -1216 -704 0
v -1216 -688 0
v -1200 -688 0
v -1360 -720 0
v -1376 -720 0
v -1376 -704 0
v -1360 -704 0
v -240 -736 0
v -256 -736 0
v -256 -720 0
v -240 -720 0
v -368 -752 0
v -384 -752 0
v -384 -736 0
v -368 -736 0
v -1440 -768 0
v -1456 -768 0
v -1456 -752 0
v -1440 -752 0
v -1248 -784 0
v -1264 -784 0
v -1264 -768 0
v -1248 -768 0
v -1488 -784 0
v -1504 -784 0
v -1504 -768 0
v -1488 -768 0
v -48 -800 0
v -64 -800 0
v -64 -784 0
v -48 -784 0
v -320 -832 0
v -336 -832 0
v -336 -816 0
v -320 -816 0
v -768 -848 0
v -784 -848 0
v -784 -832 0
v -768 -832 0
v -480 -864 0
v -496 -864 0
v -496 -848 0
v -480 -848 0
v -672 -864 0
v -688 -864 0
v -688 -848 0
v -672 -848 0
v -688 -864 0
v -704 -864 0
v -704 -848 0
v -688 -848 0
v -768 -864 0
v -784 -864 0
v -784 -848 0
v -768 -848 0
v -1152 -864 0
v -1168 -864 0
v -1168 -848 0
v -1152 -848 0
v -576 -880 0
v -592 -880 0
v -592 -864 0
v -576 -864 0
v -1520 -880 0
v -1536 -880 0
v -1536 -864 0
v -1520 -864 0
v -1312 -912 0
v -1328 -912 0
v -1328 -896 0
v -1312 -896 0
v -48 -928 0
v -64 -928 0
v -64 -912 0
v -48 -912 0
v -768 -928 0
v -784 -928 0
v -784 -912 0
v -768 -912 0
v -832 -928 0
v -848 -928 0
v -848 -912 0
v -832 -912 0
v -144 -944 0
v -160 -944 0
v -160 -928 0
v -144 -928 0
v -448 -944 0
v -464 -944 0
v -464 -928 0
v -448 -928 0
v -592 -944 0
v -608 -944 0
v -608 -928 0
v -592 -928 0
v -656 -960 0
v -672 -960 0
v -672 -944 0
v -656 -944 0
v -1104 -960 0
v -1120 -960 0
v -1120 -944 0
v -1104 -944 0
v -80 -992 0
v -96 -992 0
v -96 -976 0
v -80 -976 0
v -1168 -992 0
v -1184 -992 0
v -1184 -976 0
v -1168 -976 0
v -864 -1008 0
v -880 -1008 0
v -880 -992 0
v -864 -992 0
v -1024 -1008 0
v -1040 -1008 0
v -1040 -992 0
v -1024 -992 0
v -864 -1024 0
v -880 -1024 0
v -880 -1008 0
v -864 -1008 0
v -1296 -1024 0
v -1312 -1024 0
v -1312 -1008 0
v -1296 -1008 0
v -368 -1040 0
v -384 -1040 0
v -384 -1024 0
v -368 -1024 0
v -816 -1040 0
v -832 -1040 0
v -832 -1024 0
v -816 -1024 0
v -1104 -1072 0
v -1120 -1072 0
v -1120 -1056 0
v -1104 -1056 0
v -640 -1088 0
v -656 -1088 0
v -656 -1072 0
v -640 -1072 0
v -384 -1136 0
v -400 -1136 0
v -400 -1120 0
v -384 -1120 0
v -192 -1168 0
v -208 -1168 0
v -208 -1152 0
v -192 -1152 0
v -1200 -1168 0
v -1216 -1168 0
v -1216 -1152 0
v -1200 -1152 0
v -1552 -1168 0
v -1568 -1168 0
v -1568 -1152 0
v -1552 -1152 0
v -256 -1184 0
v -272 -1184 0
v -272 -1168 0
v -256 -1168 0
v -1056 -1184 0
v -1072 -1184 0
v -1072 -1168 0
v -1056 -1168 0
v -1344 -1184 0
v -1360 -1184 0
v -1360 -1168 0
v -1344 -1168 0
v -64 -1200 0
v -80 -1200 0
v -80 -1184 0
v -64 -1184 0
v -64 -1216 0
v -80 -1216 0
v -80 -1200 0
v -64 -1200 0
v -624 -1216 0
v -640 -1216 0
v -640 -1200 0
v -624 -1200 0
v -480 -1232 0
v -496 -1232 0
v -496 -1216 0
v -480 -1216 0
v -496 -1232 0
v -512 -1232 0
v -512 -1216 0
v -496 -1216 0
v -976 -1248 0
v -992 -1248 0
v -992 -1232 0
v -976 -1232 0
v -1168 -1248 0
v -1184 -1248 0
v -1184 -1232 0
v -1168 -1232 0
v -848 -1264 0
v -864 -1264 0
v -864 -1248 0
v -848 -1248 0
v -544 -1280 0
v -560 -1280 0
v -560 -1264 0
v -544 -1264 0
v -32 -1296 0
v -48 -1296 0
v -48 -1280 0
v -32 -1280 0
v -32 -1312 0
v -48 -1312 0
v -48 -1296 0
v -32 -1296 0
v -656 -1312 0
v -672 -1312 0
v -672 -1296 0
v -656 -1296 0
v -1040 -1312 0
v -1056 -1312 0
v -1056 -1296 0
v -1040 -1296 0
v -208 -1328 0
v -224 -1328 0
v -224 -1312 0
v -208 -1312 0
v -816 -1328 0
v -832 -1328 0
v -832 -1312 0
v -816 -1312 0
v -400 -1376 0
v -416 -1376 0
v -416 -1360 0
v -400 -1360 0
v -1456 -1376 0
v -1472 -1376 0
v -1472 -1360 0
v -1456 -1360 0
v -1072 -1424 0
v -1088 -1424 0
v -1088 -1408 0
v -1072 -1408 0
v -640 -1440 0
v -656 -1440 0
v -656 -1424 0
v -640 -1424 0
v -1392 -1440 0
v -1408 -1440 0
v -1408 -1424 0
v -1392 -1424 0
v -800 -1456 0
v -816 -1456 0
v -816 -1440 0
v -800 -1440 0
v -64 -1472 0
v -80 -1472 0
v -80 -1456 0
v -64 -1456 0
v -176 -1472 0
v -192 -1472 0
v -192 -1456 0
v -176 -1456 0
v -448 -1488 0
v -464 -1488 0
v -464 -1472 0
v -448 -1472 0
v -1104 -1520 0
v -1120 -1520 0
v -1120 -1504 0
v -1104 -1504 0
v -480 -1536 0
v -496 -1536 0
v -496 -1520 0
v -480 -1520 0
v -1184 -1536 0
v -1200 -1536 0
v -1200 -1520 0
v -1184 -1520 0
v -1264 -1536 0
v -1280 -1536 0
v -1280 -1520 0
v -1264 -1520 0
v -944 -1552 0
v -960 -1552 0
v -960 -1536 0
v -944 -1536 0
v -848 -1568 0
v -864 -1568 0
v -864 -1552 0
v -848 -1552 0
v -1104 -1584 0
v -1120 -1584 0
v -1120 -1568 0
v -1104 -1568 0

# Texture cooridinates (Count = 4)
vt 0 0.7053571
vt 0.125 0.7053571
vt 0.125 0.8482143
vt 0 0.8482143

# Normal
vn 0 0 -1

# Mesh description
g WorldMap_mesh_0003

# Faces
f 1/1/1 2/2/1 3/3/1 4/4/1
f 5/1/1 6/2/1 7/3/1 8/4/1
f 9/1/1 10/2/1 11/3/1 12/4/1
f 13/1/1 14/2/1 15/3/1 16/4/1
f 17/1/1 18/2/1 19/3/1 20/4/1
f 21/1/1 22/2/1 23/3/1 24/4/1
f 25/1/1 26/2/1 27/3/1 28/4/1
f 29/1/1 30/2/1 31/3/1 32/4/1
f 33/1/1 34/2/1 35/3/1 36/4/1
f 37/1/1 38/2/1 39/3/1 40/4/1
f 41/1/1 42/2/1 43/3/1 44/4/1
f 45/1/1 46/2/1 47/3/1 48/4/1
f 49/1/1 50/2/1 51/3/1 52/4/1
f 53/1/1 54/2/1 55/3/1 56/4/1
f 57/1/1 58/2/1 59/3/1 60/4/1
f 61/1/1 62/2/1 63/3/1 64/4/1
f 65/1/1 66/2/1 67/3/1 68/4/1
f 69/1/1 70/2/1 71/3/1 72/4/1
f 73/1/1 74/2/1 75/3/1 76/4/1
f 77/1/1 78/2/1 79/3/1 80/4/1
f 81/1/1 82/2/1 83/3/1 84/4/1
f 85/1/1 86/2/1 87/3/1 88/4/1
f 89/1/1 90/2/1 91/3/1 92/4/1
f 93/1/1 94/2/1 95/3/1 96/4/1
f 97/1/1 98/2/1 99/3/1 100/4/1
f 101/1/1 102/2/1 103/3/1 104/4/1
f 105/1/1 106/2/1 107/3/1 108/4/1
f 109/1/1 110/2/1 111/3/1 112/4/1
f 113/1/1 114/2/1 115/3/1 116/4/1
f 117/1/1 118/2/1 119/3/1 120/4/1
f 121/1/1 122/2/1 123/3/1 124/4/1
f 125/1/1 126/2/1 127/3/1 128/4/1
f 129/1/1 130/2/1 131/3/1 132/4/1
f 133/1/1 134/2/1 135/3/1 136/4/1
f 137/1/1 138/2/1 139/3/1 140/4/1
f 141/1/1 142/2/1 143/3/1 144/4/1
f 145/1/1 146/2/1 147/3/1 148/4/1
f 149/1/1 150/2/1 151/3/1 152/4/1
f 153/1/1 154/2/1 155/3/1 156/4/1
f 157/1/1 158/2/1 159/3/1 160/4/1
f 161/1/1 162/2/1 163/3/1 164/4/1
f 165/1/1 166/2/1 167/3/1 168/4/1
f 169/1/1 170/2/1 171/3/1 172/4/1
f 173/1/1 174/2/1 175/3/1 176/4/1
f 177/1/1 178/2/1 179/3/1 180/4/1
f 181/1/1 182/2/1 183/3/1 184/4/1
f 185/1/1 186/2/1 187/3/1 188/4/1
f 189/1/1 190/2/1 191/3/1 192/4/1
f 193/1/1 194/2/1 195/3/1 196/4/1
f 197/1/1 198/2/1 199/3/1 200/4/1
f 201/1/1 202/2/1 203/3/1 204/4/1
f 205/1/1 206/2/1 207/3/1 208/4/1
f 209/1/1 210/2/1 211/3/1 212/4/1
f 213/1/1 214/2/1 215/3/1 216/4/1
f 217/1/1 218/2/1 219/3/1 220/4/1
f 221/1/1 222/2/1 223/3/1 224/4/1
f 225/1/1 226/2/1 227/3/1 228/4/1
f 229/1/1 230/2/1 231/3/1 232/4/1
f 233/1/1 234/2/1 235/3/1 236/4/1
f 237/1/1 238/2/1 239/3/1 240/4/1
f 241/1/1 242/2/1 243/3/1 244/4/1
f 245/1/1 246/2/1 247/3/1 248/4/1
f 249/1/1 250/2/1 251/3/1 252/4/1
f 253/1/1 254/2/1 255/3/1 256/4/1
f 257/1/1 258/2/1 259/3/1 260/4/1
f 261/1/1 262/2/1 263/3/1 264/4/1
f 265/1/1 266/2/1 267/3/1 268/4/1
f 269/1/1 270/2/1 271/3/1 272/4/1
f 273/1/1 274/2/1 275/3/1 276/4/1
f 277/1/1 278/2/1 279/3/1 280/4/1
f 281/1/1 282/2/1 283/3/1 284/4/1
f 285/1/1 286/2/1 287/3/1 288/4/1
f 289/1/1 290/2/1 291/3/1 292/4/1
f 293/1/1 294/2/1 295/3/1 296/4/1
f 297/1/1 298/2/1 299/3/1 300/4/1
f 301/1/1 302/2/1 303/3/1 304/4/1
f 305/1/1 306/2/1 307/3/1 308/4/1
f 309/1/1 310/2/1 311/3/1 312/4/1
f 313/1/1 314/2/1 315/3/1 316/4/1
f 317/1/1 318/2/1 319/3/1 320/4/1
f 321/1/1 322/2/1 323/3/1 324/4/1
f 325/1/1 326/2/1 327/3/1 328/4/1
f 329/1/1 330/2/1 331/3/1 332/4/1
f 333/1/1 334/2/1 335/3/1 336/4/1
f 337/1/1 338/2/1 339/3/1 340/4/1
f 341/1/1 342/2/1 343/3/1 344/4/1
f 345/1/1 346/2/1 347/3/1 348/4/1
f 349/1/1 350/2/1 351/3/1 352/4/1
f 353/1/1 354/2/1 355/3/1 356/4/1
f 357/1/1 358/2/1 359/3/1 360/4/1
f 361/1/1 362/2/1 363/3/1 364/4/1
f 365/1/1 366/2/1 367/3/1 368/4/1
f 369/1/1 370/2/1 371/3/1 372/4/1
f 373/1/1 374/2/1 375/3/1 376/4/1
f 377/1/1 378/2/1 379/3/1 380/4/1
f 381/1/1 382/2/1 383/3/1 384/4/1
f 385/1/1 386/2/1 387/3/1 388/4/1
f 389/1/1 390/2/1 391/3/1 392/4/1
f 393/1/1 394/2/1 395/3/1 396/4/1
f 397/1/1 398/2/1 399/3/1 400/4/1
f 401/1/1 402/2/1 403/3/1 404/4/1
f 405/1/1 406/2/1 407/3/1 408/4/1
f 409/1/1 410/2/1 411/3/1 412/4/1
f 413/1/1 414/2/1 415/3/1 416/4/1
f 417/1/1 418/2/1 419/3/1 420/4/1
f 421/1/1 422/2/1 423/3/1 424/4/1
f 425/1/1 426/2/1 427/3/1 428/4/1
f 429/1/1 430/2/1 431/3/1 432/4/1
f 433/1/1 434/2/1 435/3/1 436/4/1
f 437/1/1 438/2/1 439/3/1 440/4/1
f 441/1/1 442/2/1 443/3/1 444/4/1
f 445/1/1 446/2/1 447/3/1 448/4/1
f 449/1/1 450/2/1 451/3/1 452/4/1
f 453/1/1 454/2/1 455/3/1 456/4/1
f 457/1/1 458/2/1 459/3/1 460/4/1
f 461/1/1 462/2/1 463/3/1 464/4/1
f 465/1/1 466/2/1 467/3/1 468/4/1

