# Tiled2Unity generated file. Do not modify by hand.
# Wavefront file for 'WorldMapV1_mesh_0045.obj'

# Vertices (Count = 496)
v -608 -224 -0.09333333
v -624 -224 -0.09333333
v -624 -208 -0.09333333
v -608 -208 -0.09333333
v -624 -224 -0.09333333
v -640 -224 -0.09333333
v -640 -208 -0.09333333
v -624 -208 -0.09333333
v -640 -224 -0.09333333
v -656 -224 -0.09333333
v -656 -208 -0.09333333
v -640 -208 -0.09333333
v -608 -240 -0.1
v -624 -240 -0.1
v -624 -224 -0.1
v -608 -224 -0.1
v -624 -240 -0.1
v -640 -240 -0.1
v -640 -224 -0.1
v -624 -224 -0.1
v -640 -240 -0.1
v -656 -240 -0.1
v -656 -224 -0.1
v -640 -224 -0.1
v -656 -240 -0.1
v -672 -240 -0.1
v -672 -224 -0.1
v -656 -224 -0.1
v -608 -256 -0.1066667
v -624 -256 -0.1066667
v -624 -240 -0.1066667
v -608 -240 -0.1066667
v -624 -256 -0.1066667
v -640 -256 -0.1066667
v -640 -240 -0.1066667
v -624 -240 -0.1066667
v -640 -256 -0.1066667
v -656 -256 -0.1066667
v -656 -240 -0.1066667
v -640 -240 -0.1066667
v -656 -256 -0.1066667
v -672 -256 -0.1066667
v -672 -240 -0.1066667
v -656 -240 -0.1066667
v -672 -256 -0.1066667
v -688 -256 -0.1066667
v -688 -240 -0.1066667
v -672 -240 -0.1066667
v -688 -256 -0.1066667
v -704 -256 -0.1066667
v -704 -240 -0.1066667
v -688 -240 -0.1066667
v -704 -256 -0.1066667
v -720 -256 -0.1066667
v -720 -240 -0.1066667
v -704 -240 -0.1066667
v -720 -256 -0.1066667
v -736 -256 -0.1066667
v -736 -240 -0.1066667
v -720 -240 -0.1066667
v -608 -272 -0.1133333
v -624 -272 -0.1133333
v -624 -256 -0.1133333
v -608 -256 -0.1133333
v -624 -272 -0.1133333
v -640 -272 -0.1133333
v -640 -256 -0.1133333
v -624 -256 -0.1133333
v -640 -272 -0.1133333
v -656 -272 -0.1133333
v -656 -256 -0.1133333
v -640 -256 -0.1133333
v -656 -272 -0.1133333
v -672 -272 -0.1133333
v -672 -256 -0.1133333
v -656 -256 -0.1133333
v -672 -272 -0.1133333
v -688 -272 -0.1133333
v -688 -256 -0.1133333
v -672 -256 -0.1133333
v -688 -272 -0.1133333
v -704 -272 -0.1133333
v -704 -256 -0.1133333
v -688 -256 -0.1133333
v -704 -272 -0.1133333
v -720 -272 -0.1133333
v -720 -256 -0.1133333
v -704 -256 -0.1133333
v -720 -272 -0.1133333
v -736 -272 -0.1133333
v -736 -256 -0.1133333
v -720 -256 -0.1133333
v -672 -288 -0.12
v -688 -288 -0.12
v -688 -272 -0.12
v -672 -272 -0.12
v -688 -288 -0.12
v -704 -288 -0.12
v -704 -272 -0.12
v -688 -272 -0.12
v -704 -288 -0.12
v -720 -288 -0.12
v -720 -272 -0.12
v -704 -272 -0.12
v -720 -288 -0.12
v -736 -288 -0.12
v -736 -272 -0.12
v -720 -272 -0.12
v -304 -304 -0.1266667
v -320 -304 -0.1266667
v -320 -288 -0.1266667
v -304 -288 -0.1266667
v -320 -304 -0.1266667
v -336 -304 -0.1266667
v -336 -288 -0.1266667
v -320 -288 -0.1266667
v -336 -304 -0.1266667
v -352 -304 -0.1266667
v -352 -288 -0.1266667
v -336 -288 -0.1266667
v -672 -304 -0.1266667
v -688 -304 -0.1266667
v -688 -288 -0.1266667
v -672 -288 -0.1266667
v -688 -304 -0.1266667
v -704 -304 -0.1266667
v -704 -288 -0.1266667
v -688 -288 -0.1266667
v -704 -304 -0.1266667
v -720 -304 -0.1266667
v -720 -288 -0.1266667
v -704 -288 -0.1266667
v -720 -304 -0.1266667
v -736 -304 -0.1266667
v -736 -288 -0.1266667
v -720 -288 -0.1266667
v -304 -320 -0.1333333
v -320 -320 -0.1333333
v -320 -304 -0.1333333
v -304 -304 -0.1333333
v -320 -320 -0.1333333
v -336 -320 -0.1333333
v -336 -304 -0.1333333
v -320 -304 -0.1333333
v -336 -320 -0.1333333
v -352 -320 -0.1333333
v -352 -304 -0.1333333
v -336 -304 -0.1333333
v -304 -336 -0.14
v -320 -336 -0.14
v -320 -320 -0.14
v -304 -320 -0.14
v -320 -336 -0.14
v -336 -336 -0.14
v -336 -320 -0.14
v -320 -320 -0.14
v -336 -336 -0.14
v -352 -336 -0.14
v -352 -320 -0.14
v -336 -320 -0.14
v -304 -352 -0.1466667
v -320 -352 -0.1466667
v -320 -336 -0.1466667
v -304 -336 -0.1466667
v -320 -352 -0.1466667
v -336 -352 -0.1466667
v -336 -336 -0.1466667
v -320 -336 -0.1466667
v -336 -352 -0.1466667
v -352 -352 -0.1466667
v -352 -336 -0.1466667
v -336 -336 -0.1466667
v -256 -368 -0.1533333
v -272 -368 -0.1533333
v -272 -352 -0.1533333
v -256 -352 -0.1533333
v -272 -368 -0.1533333
v -288 -368 -0.1533333
v -288 -352 -0.1533333
v -272 -352 -0.1533333
v -288 -368 -0.1533333
v -304 -368 -0.1533333
v -304 -352 -0.1533333
v -288 -352 -0.1533333
v -256 -384 -0.16
v -272 -384 -0.16
v -272 -368 -0.16
v -256 -368 -0.16
v -272 -384 -0.16
v -288 -384 -0.16
v -288 -368 -0.16
v -272 -368 -0.16
v -288 -384 -0.16
v -304 -384 -0.16
v -304 -368 -0.16
v -288 -368 -0.16
v -256 -400 -0.1666667
v -272 -400 -0.1666667
v -272 -384 -0.1666667
v -256 -384 -0.1666667
v -272 -400 -0.1666667
v -288 -400 -0.1666667
v -288 -384 -0.1666667
v -272 -384 -0.1666667
v -288 -400 -0.1666667
v -304 -400 -0.1666667
v -304 -384 -0.1666667
v -288 -384 -0.1666667
v -256 -416 -0.1733333
v -272 -416 -0.1733333
v -272 -400 -0.1733333
v -256 -400 -0.1733333
v -272 -416 -0.1733333
v -288 -416 -0.1733333
v -288 -400 -0.1733333
v -272 -400 -0.1733333
v -288 -416 -0.1733333
v -304 -416 -0.1733333
v -304 -400 -0.1733333
v -288 -400 -0.1733333
v -432 -496 -0.2066667
v -448 -496 -0.2066667
v -448 -480 -0.2066667
v -432 -480 -0.2066667
v -448 -496 -0.2066667
v -464 -496 -0.2066667
v -464 -480 -0.2066667
v -448 -480 -0.2066667
v -464 -496 -0.2066667
v -480 -496 -0.2066667
v -480 -480 -0.2066667
v -464 -480 -0.2066667
v -480 -496 -0.2066667
v -496 -496 -0.2066667
v -496 -480 -0.2066667
v -480 -480 -0.2066667
v -432 -512 -0.2133333
v -448 -512 -0.2133333
v -448 -496 -0.2133333
v -432 -496 -0.2133333
v -448 -512 -0.2133333
v -464 -512 -0.2133333
v -464 -496 -0.2133333
v -448 -496 -0.2133333
v -464 -512 -0.2133333
v -480 -512 -0.2133333
v -480 -496 -0.2133333
v -464 -496 -0.2133333
v -480 -512 -0.2133333
v -496 -512 -0.2133333
v -496 -496 -0.2133333
v -480 -496 -0.2133333
v -432 -528 -0.22
v -448 -528 -0.22
v -448 -512 -0.22
v -432 -512 -0.22
v -448 -528 -0.22
v -464 -528 -0.22
v -464 -512 -0.22
v -448 -512 -0.22
v -464 -528 -0.22
v -480 -528 -0.22
v -480 -512 -0.22
v -464 -512 -0.22
v -480 -528 -0.22
v -496 -528 -0.22
v -496 -512 -0.22
v -480 -512 -0.22
v -432 -544 -0.2266667
v -448 -544 -0.2266667
v -448 -528 -0.2266667
v -432 -528 -0.2266667
v -448 -544 -0.2266667
v -464 -544 -0.2266667
v -464 -528 -0.2266667
v -448 -528 -0.2266667
v -464 -544 -0.2266667
v -480 -544 -0.2266667
v -480 -528 -0.2266667
v -464 -528 -0.2266667
v -480 -544 -0.2266667
v -496 -544 -0.2266667
v -496 -528 -0.2266667
v -480 -528 -0.2266667
v -352 -576 -0.24
v -368 -576 -0.24
v -368 -560 -0.24
v -352 -560 -0.24
v -368 -576 -0.24
v -384 -576 -0.24
v -384 -560 -0.24
v -368 -560 -0.24
v -384 -576 -0.24
v -400 -576 -0.24
v -400 -560 -0.24
v -384 -560 -0.24
v -400 -576 -0.24
v -416 -576 -0.24
v -416 -560 -0.24
v -400 -560 -0.24
v -352 -592 -0.2466667
v -368 -592 -0.2466667
v -368 -576 -0.2466667
v -352 -576 -0.2466667
v -368 -592 -0.2466667
v -384 -592 -0.2466667
v -384 -576 -0.2466667
v -368 -576 -0.2466667
v -384 -592 -0.2466667
v -400 -592 -0.2466667
v -400 -576 -0.2466667
v -384 -576 -0.2466667
v -400 -592 -0.2466667
v -416 -592 -0.2466667
v -416 -576 -0.2466667
v -400 -576 -0.2466667
v -640 -592 -0.2466667
v -656 -592 -0.2466667
v -656 -576 -0.2466667
v -640 -576 -0.2466667
v -656 -592 -0.2466667
v -672 -592 -0.2466667
v -672 -576 -0.2466667
v -656 -576 -0.2466667
v -672 -592 -0.2466667
v -688 -592 -0.2466667
v -688 -576 -0.2466667
v -672 -576 -0.2466667
v -688 -592 -0.2466667
v -704 -592 -0.2466667
v -704 -576 -0.2466667
v -688 -576 -0.2466667
v -704 -592 -0.2466667
v -720 -592 -0.2466667
v -720 -576 -0.2466667
v -704 -576 -0.2466667
v -720 -592 -0.2466667
v -736 -592 -0.2466667
v -736 -576 -0.2466667
v -720 -576 -0.2466667
v -736 -592 -0.2466667
v -752 -592 -0.2466667
v -752 -576 -0.2466667
v -736 -576 -0.2466667
v -352 -608 -0.2533333
v -368 -608 -0.2533333
v -368 -592 -0.2533333
v -352 -592 -0.2533333
v -368 -608 -0.2533333
v -384 -608 -0.2533333
v -384 -592 -0.2533333
v -368 -592 -0.2533333
v -384 -608 -0.2533333
v -400 -608 -0.2533333
v -400 -592 -0.2533333
v -384 -592 -0.2533333
v -400 -608 -0.2533333
v -416 -608 -0.2533333
v -416 -592 -0.2533333
v -400 -592 -0.2533333
v -640 -608 -0.2533333
v -656 -608 -0.2533333
v -656 -592 -0.2533333
v -640 -592 -0.2533333
v -656 -608 -0.2533333
v -672 -608 -0.2533333
v -672 -592 -0.2533333
v -656 -592 -0.2533333
v -672 -608 -0.2533333
v -688 -608 -0.2533333
v -688 -592 -0.2533333
v -672 -592 -0.2533333
v -688 -608 -0.2533333
v -704 -608 -0.2533333
v -704 -592 -0.2533333
v -688 -592 -0.2533333
v -704 -608 -0.2533333
v -720 -608 -0.2533333
v -720 -592 -0.2533333
v -704 -592 -0.2533333
v -720 -608 -0.2533333
v -736 -608 -0.2533333
v -736 -592 -0.2533333
v -720 -592 -0.2533333
v -736 -608 -0.2533333
v -752 -608 -0.2533333
v -752 -592 -0.2533333
v -736 -592 -0.2533333
v -352 -624 -0.26
v -368 -624 -0.26
v -368 -608 -0.26
v -352 -608 -0.26
v -368 -624 -0.26
v -384 -624 -0.26
v -384 -608 -0.26
v -368 -608 -0.26
v -384 -624 -0.26
v -400 -624 -0.26
v -400 -608 -0.26
v -384 -608 -0.26
v -400 -624 -0.26
v -416 -624 -0.26
v -416 -608 -0.26
v -400 -608 -0.26
v -640 -624 -0.26
v -656 -624 -0.26
v -656 -608 -0.26
v -640 -608 -0.26
v -656 -624 -0.26
v -672 -624 -0.26
v -672 -608 -0.26
v -656 -608 -0.26
v -672 -624 -0.26
v -688 -624 -0.26
v -688 -608 -0.26
v -672 -608 -0.26
v -688 -624 -0.26
v -704 -624 -0.26
v -704 -608 -0.26
v -688 -608 -0.26
v -704 -624 -0.26
v -720 -624 -0.26
v -720 -608 -0.26
v -704 -608 -0.26
v -720 -624 -0.26
v -736 -624 -0.26
v -736 -608 -0.26
v -720 -608 -0.26
v -736 -624 -0.26
v -752 -624 -0.26
v -752 -608 -0.26
v -736 -608 -0.26
v -640 -640 -0.2666667
v -656 -640 -0.2666667
v -656 -624 -0.2666667
v -640 -624 -0.2666667
v -656 -640 -0.2666667
v -672 -640 -0.2666667
v -672 -624 -0.2666667
v -656 -624 -0.2666667
v -672 -640 -0.2666667
v -688 -640 -0.2666667
v -688 -624 -0.2666667
v -672 -624 -0.2666667
v -688 -640 -0.2666667
v -704 -640 -0.2666667
v -704 -624 -0.2666667
v -688 -624 -0.2666667
v -704 -640 -0.2666667
v -720 -640 -0.2666667
v -720 -624 -0.2666667
v -704 -624 -0.2666667
v -720 -640 -0.2666667
v -736 -640 -0.2666667
v -736 -624 -0.2666667
v -720 -624 -0.2666667
v -736 -640 -0.2666667
v -752 -640 -0.2666667
v -752 -624 -0.2666667
v -736 -624 -0.2666667
v -512 -800 -0.3333333
v -528 -800 -0.3333333
v -528 -784 -0.3333333
v -512 -784 -0.3333333
v -528 -800 -0.3333333
v -544 -800 -0.3333333
v -544 -784 -0.3333333
v -528 -784 -0.3333333
v -512 -816 -0.34
v -528 -816 -0.34
v -528 -800 -0.34
v -512 -800 -0.34
v -528 -816 -0.34
v -544 -816 -0.34
v -544 -800 -0.34
v -528 -800 -0.34
v -512 -832 -0.3466667
v -528 -832 -0.3466667
v -528 -816 -0.3466667
v -512 -816 -0.3466667
v -528 -832 -0.3466667
v -544 -832 -0.3466667
v -544 -816 -0.3466667
v -528 -816 -0.3466667
v -496 -848 -0.3533333
v -512 -848 -0.3533333
v -512 -832 -0.3533333
v -496 -832 -0.3533333
v -512 -848 -0.3533333
v -528 -848 -0.3533333
v -528 -832 -0.3533333
v -512 -832 -0.3533333
v -528 -848 -0.3533333
v -544 -848 -0.3533333
v -544 -832 -0.3533333
v -528 -832 -0.3533333

# Texture cooridinates (Count = 40)
vt 0 0.75
vt 0.125 0.75
vt 0.125 1
vt 0 1
vt 0.25 0.75
vt 0.25 1
vt 0.375 0.75
vt 0.375 1
vt 0 0.5
vt 0.125 0.5
vt 0.25 0.5
vt 0.375 0.5
vt 0.5 0.5
vt 0.5 0.75
vt 0 0.25
vt 0.125 0.25
vt 0.25 0.25
vt 0.375 0.25
vt 0.5 0.25
vt 0.5 1
vt 0 0
vt 0.125 0
vt 0.25 0
vt 0.375 0
vt 0.5 0
vt 0.625 0.75
vt 0.625 1
vt 0.75 0.75
vt 0.75 1
vt 0.875 0.75
vt 0.875 1
vt 0.625 0.5
vt 0.75 0.5
vt 0.875 0.5
vt 0.625 0.25
vt 0.75 0.25
vt 0.875 0.25
vt 0.625 0
vt 0.75 0
vt 0.875 0

# Normal
vn 0 0 -1

# Mesh description
g WorldMapV1_mesh_0045

# Faces
f 1/1/1 2/2/1 3/3/1 4/4/1
f 5/2/1 6/5/1 7/6/1 8/3/1
f 9/5/1 10/7/1 11/8/1 12/6/1
f 13/9/1 14/10/1 15/2/1 16/1/1
f 17/10/1 18/11/1 19/5/1 20/2/1
f 21/11/1 22/12/1 23/7/1 24/5/1
f 25/12/1 26/13/1 27/14/1 28/7/1
f 29/15/1 30/16/1 31/10/1 32/9/1
f 33/16/1 34/17/1 35/11/1 36/10/1
f 37/17/1 38/18/1 39/12/1 40/11/1
f 41/18/1 42/19/1 43/13/1 44/12/1
f 45/1/1 46/2/1 47/3/1 48/4/1
f 49/2/1 50/5/1 51/6/1 52/3/1
f 53/5/1 54/7/1 55/8/1 56/6/1
f 57/7/1 58/14/1 59/20/1 60/8/1
f 61/21/1 62/22/1 63/16/1 64/15/1
f 65/22/1 66/23/1 67/17/1 68/16/1
f 69/23/1 70/24/1 71/18/1 72/17/1
f 73/24/1 74/25/1 75/19/1 76/18/1
f 77/9/1 78/10/1 79/2/1 80/1/1
f 81/10/1 82/11/1 83/5/1 84/2/1
f 85/11/1 86/12/1 87/7/1 88/5/1
f 89/12/1 90/13/1 91/14/1 92/7/1
f 93/15/1 94/16/1 95/10/1 96/9/1
f 97/16/1 98/17/1 99/11/1 100/10/1
f 101/17/1 102/18/1 103/12/1 104/11/1
f 105/18/1 106/19/1 107/13/1 108/12/1
f 109/14/1 110/26/1 111/27/1 112/20/1
f 113/26/1 114/28/1 115/29/1 116/27/1
f 117/28/1 118/30/1 119/31/1 120/29/1
f 121/21/1 122/22/1 123/16/1 124/15/1
f 125/22/1 126/23/1 127/17/1 128/16/1
f 129/23/1 130/24/1 131/18/1 132/17/1
f 133/24/1 134/25/1 135/19/1 136/18/1
f 137/13/1 138/32/1 139/26/1 140/14/1
f 141/32/1 142/33/1 143/28/1 144/26/1
f 145/33/1 146/34/1 147/30/1 148/28/1
f 149/19/1 150/35/1 151/32/1 152/13/1
f 153/35/1 154/36/1 155/33/1 156/32/1
f 157/36/1 158/37/1 159/34/1 160/33/1
f 161/25/1 162/38/1 163/35/1 164/19/1
f 165/38/1 166/39/1 167/36/1 168/35/1
f 169/39/1 170/40/1 171/37/1 172/36/1
f 173/14/1 174/26/1 175/27/1 176/20/1
f 177/26/1 178/28/1 179/29/1 180/27/1
f 181/28/1 182/30/1 183/31/1 184/29/1
f 185/13/1 186/32/1 187/26/1 188/14/1
f 189/32/1 190/33/1 191/28/1 192/26/1
f 193/33/1 194/34/1 195/30/1 196/28/1
f 197/19/1 198/35/1 199/32/1 200/13/1
f 201/35/1 202/36/1 203/33/1 204/32/1
f 205/36/1 206/37/1 207/34/1 208/33/1
f 209/25/1 210/38/1 211/35/1 212/19/1
f 213/38/1 214/39/1 215/36/1 216/35/1
f 217/39/1 218/40/1 219/37/1 220/36/1
f 221/1/1 222/2/1 223/3/1 224/4/1
f 225/2/1 226/5/1 227/6/1 228/3/1
f 229/5/1 230/7/1 231/8/1 232/6/1
f 233/7/1 234/14/1 235/20/1 236/8/1
f 237/9/1 238/10/1 239/2/1 240/1/1
f 241/10/1 242/11/1 243/5/1 244/2/1
f 245/11/1 246/12/1 247/7/1 248/5/1
f 249/12/1 250/13/1 251/14/1 252/7/1
f 253/15/1 254/16/1 255/10/1 256/9/1
f 257/16/1 258/17/1 259/11/1 260/10/1
f 261/17/1 262/18/1 263/12/1 264/11/1
f 265/18/1 266/19/1 267/13/1 268/12/1
f 269/21/1 270/22/1 271/16/1 272/15/1
f 273/22/1 274/23/1 275/17/1 276/16/1
f 277/23/1 278/24/1 279/18/1 280/17/1
f 281/24/1 282/25/1 283/19/1 284/18/1
f 285/1/1 286/2/1 287/3/1 288/4/1
f 289/2/1 290/5/1 291/6/1 292/3/1
f 293/5/1 294/7/1 295/8/1 296/6/1
f 297/7/1 298/14/1 299/20/1 300/8/1
f 301/9/1 302/10/1 303/2/1 304/1/1
f 305/10/1 306/11/1 307/5/1 308/2/1
f 309/11/1 310/12/1 311/7/1 312/5/1
f 313/12/1 314/13/1 315/14/1 316/7/1
f 317/1/1 318/2/1 319/3/1 320/4/1
f 321/2/1 322/5/1 323/6/1 324/3/1
f 325/5/1 326/7/1 327/8/1 328/6/1
f 329/7/1 330/14/1 331/20/1 332/8/1
f 333/14/1 334/26/1 335/27/1 336/20/1
f 337/26/1 338/28/1 339/29/1 340/27/1
f 341/28/1 342/30/1 343/31/1 344/29/1
f 345/15/1 346/16/1 347/10/1 348/9/1
f 349/16/1 350/17/1 351/11/1 352/10/1
f 353/17/1 354/18/1 355/12/1 356/11/1
f 357/18/1 358/19/1 359/13/1 360/12/1
f 361/9/1 362/10/1 363/2/1 364/1/1
f 365/10/1 366/11/1 367/5/1 368/2/1
f 369/11/1 370/12/1 371/7/1 372/5/1
f 373/12/1 374/13/1 375/14/1 376/7/1
f 377/13/1 378/32/1 379/26/1 380/14/1
f 381/32/1 382/33/1 383/28/1 384/26/1
f 385/33/1 386/34/1 387/30/1 388/28/1
f 389/21/1 390/22/1 391/16/1 392/15/1
f 393/22/1 394/23/1 395/17/1 396/16/1
f 397/23/1 398/24/1 399/18/1 400/17/1
f 401/24/1 402/25/1 403/19/1 404/18/1
f 405/15/1 406/16/1 407/10/1 408/9/1
f 409/16/1 410/17/1 411/11/1 412/10/1
f 413/17/1 414/18/1 415/12/1 416/11/1
f 417/18/1 418/19/1 419/13/1 420/12/1
f 421/19/1 422/35/1 423/32/1 424/13/1
f 425/35/1 426/36/1 427/33/1 428/32/1
f 429/36/1 430/37/1 431/34/1 432/33/1
f 433/21/1 434/22/1 435/16/1 436/15/1
f 437/22/1 438/23/1 439/17/1 440/16/1
f 441/23/1 442/24/1 443/18/1 444/17/1
f 445/24/1 446/25/1 447/19/1 448/18/1
f 449/25/1 450/38/1 451/35/1 452/19/1
f 453/38/1 454/39/1 455/36/1 456/35/1
f 457/39/1 458/40/1 459/37/1 460/36/1
f 461/5/1 462/7/1 463/8/1 464/6/1
f 465/7/1 466/14/1 467/20/1 468/8/1
f 469/11/1 470/12/1 471/7/1 472/5/1
f 473/12/1 474/13/1 475/14/1 476/7/1
f 477/17/1 478/18/1 479/12/1 480/11/1
f 481/18/1 482/19/1 483/13/1 484/12/1
f 485/22/1 486/23/1 487/17/1 488/16/1
f 489/23/1 490/24/1 491/18/1 492/17/1
f 493/24/1 494/25/1 495/19/1 496/18/1

