# Tiled2Unity generated file. Do not modify by hand.
# Wavefront file for 'WorldMapV1_mesh_0061.obj'

# Vertices (Count = 32)
v -1488 -48 -0.02
v -1504 -48 -0.02
v -1504 -32 -0.02
v -1488 -32 -0.02
v -1504 -48 -0.02
v -1520 -48 -0.02
v -1520 -32 -0.02
v -1504 -32 -0.02
v -1488 -64 -0.02666667
v -1504 -64 -0.02666667
v -1504 -48 -0.02666667
v -1488 -48 -0.02666667
v -1504 -64 -0.02666667
v -1520 -64 -0.02666667
v -1520 -48 -0.02666667
v -1504 -48 -0.02666667
v -2112 -336 -0.14
v -2128 -336 -0.14
v -2128 -320 -0.14
v -2112 -320 -0.14
v -2128 -336 -0.14
v -2144 -336 -0.14
v -2144 -320 -0.14
v -2128 -320 -0.14
v -2112 -352 -0.1466667
v -2128 -352 -0.1466667
v -2128 -336 -0.1466667
v -2112 -336 -0.1466667
v -2128 -352 -0.1466667
v -2144 -352 -0.1466667
v -2144 -336 -0.1466667
v -2128 -336 -0.1466667

# Texture cooridinates (Count = 9)
vt 0.5 0.8333333
vt 0.75 0.8333333
vt 0.75 1
vt 0.5 1
vt 1 0.8333333
vt 1 1
vt 0.5 0.6666666
vt 0.75 0.6666666
vt 1 0.6666666

# Normal
vn 0 0 -1

# Mesh description
g WorldMapV1_mesh_0061

# Faces
f 1/1/1 2/2/1 3/3/1 4/4/1
f 5/2/1 6/5/1 7/6/1 8/3/1
f 9/7/1 10/8/1 11/2/1 12/1/1
f 13/8/1 14/9/1 15/5/1 16/2/1
f 17/1/1 18/2/1 19/3/1 20/4/1
f 21/2/1 22/5/1 23/6/1 24/3/1
f 25/7/1 26/8/1 27/2/1 28/1/1
f 29/8/1 30/9/1 31/5/1 32/2/1

