# Tiled2Unity generated file. Do not modify by hand.
# Wavefront file for 'WorldMapV1_mesh_0069.obj'

# Vertices (Count = 20)
v -2192 -816 -0.34
v -2208 -816 -0.34
v -2208 -800 -0.34
v -2192 -800 -0.34
v -880 -848 -0.3533333
v -896 -848 -0.3533333
v -896 -832 -0.3533333
v -880 -832 -0.3533333
v -608 -1152 -0.48
v -624 -1152 -0.48
v -624 -1136 -0.48
v -608 -1136 -0.48
v -576 -1440 -0.6
v -592 -1440 -0.6
v -592 -1424 -0.6
v -576 -1424 -0.6
v -1744 -2064 -0.86
v -1760 -2064 -0.86
v -1760 -2048 -0.86
v -1744 -2048 -0.86

# Texture cooridinates (Count = 10)
vt 0.125 0
vt 0.25 0
vt 0.25 0.1666667
vt 0.125 0.1666667
vt 0.875 0
vt 1 0
vt 1 0.1666667
vt 0.875 0.1666667
vt 0 0
vt 0 0.1666667

# Normal
vn 0 0 -1

# Mesh description
g WorldMapV1_mesh_0069

# Faces
f 1/1/1 2/2/1 3/3/1 4/4/1
f 5/1/1 6/2/1 7/3/1 8/4/1
f 9/5/1 10/6/1 11/7/1 12/8/1
f 13/1/1 14/2/1 15/3/1 16/4/1
f 17/9/1 18/1/1 19/4/1 20/10/1

