# Tiled2Unity generated file. Do not modify by hand.
# Wavefront file for 'WorldMapV1_mesh_0020.obj'

# Vertices (Count = 188)
v -2064 -1696 -0.7066666
v -2080 -1696 -0.7066666
v -2080 -1680 -0.7066666
v -2064 -1680 -0.7066666
v -2096 -1696 -0.7066666
v -2112 -1696 -0.7066666
v -2112 -1680 -0.7066666
v -2096 -1680 -0.7066666
v -2064 -1712 -0.7133333
v -2080 -1712 -0.7133333
v -2080 -1696 -0.7133333
v -2064 -1696 -0.7133333
v -2016 -1728 -0.72
v -2032 -1728 -0.72
v -2032 -1712 -0.72
v -2016 -1712 -0.72
v -2032 -1728 -0.72
v -2048 -1728 -0.72
v -2048 -1712 -0.72
v -2032 -1712 -0.72
v -2016 -1744 -0.7266667
v -2032 -1744 -0.7266667
v -2032 -1728 -0.7266667
v -2016 -1728 -0.7266667
v -2016 -1760 -0.7333333
v -2032 -1760 -0.7333333
v -2032 -1744 -0.7333333
v -2016 -1744 -0.7333333
v -2000 -1776 -0.74
v -2016 -1776 -0.74
v -2016 -1760 -0.74
v -2000 -1760 -0.74
v -2000 -1792 -0.7466667
v -2016 -1792 -0.7466667
v -2016 -1776 -0.7466667
v -2000 -1776 -0.7466667
v -1344 -1872 -0.78
v -1360 -1872 -0.78
v -1360 -1856 -0.78
v -1344 -1856 -0.78
v -1344 -1888 -0.7866667
v -1360 -1888 -0.7866667
v -1360 -1872 -0.7866667
v -1344 -1872 -0.7866667
v -1952 -1920 -0.8
v -1968 -1920 -0.8
v -1968 -1904 -0.8
v -1952 -1904 -0.8
v -1968 -1920 -0.8
v -1984 -1920 -0.8
v -1984 -1904 -0.8
v -1968 -1904 -0.8
v -1872 -1952 -0.8133333
v -1888 -1952 -0.8133333
v -1888 -1936 -0.8133333
v -1872 -1936 -0.8133333
v -1856 -1968 -0.82
v -1872 -1968 -0.82
v -1872 -1952 -0.82
v -1856 -1952 -0.82
v -1872 -1968 -0.82
v -1888 -1968 -0.82
v -1888 -1952 -0.82
v -1872 -1952 -0.82
v -1984 -2016 -0.84
v -2000 -2016 -0.84
v -2000 -2000 -0.84
v -1984 -2000 -0.84
v -1968 -2032 -0.8466667
v -1984 -2032 -0.8466667
v -1984 -2016 -0.8466667
v -1968 -2016 -0.8466667
v -1984 -2032 -0.8466667
v -2000 -2032 -0.8466667
v -2000 -2016 -0.8466667
v -1984 -2016 -0.8466667
v -1456 -2048 -0.8533334
v -1472 -2048 -0.8533334
v -1472 -2032 -0.8533334
v -1456 -2032 -0.8533334
v -1472 -2048 -0.8533334
v -1488 -2048 -0.8533334
v -1488 -2032 -0.8533334
v -1472 -2032 -0.8533334
v -1488 -2048 -0.8533334
v -1504 -2048 -0.8533334
v -1504 -2032 -0.8533334
v -1488 -2032 -0.8533334
v -1504 -2048 -0.8533334
v -1520 -2048 -0.8533334
v -1520 -2032 -0.8533334
v -1504 -2032 -0.8533334
v -1936 -2048 -0.8533334
v -1952 -2048 -0.8533334
v -1952 -2032 -0.8533334
v -1936 -2032 -0.8533334
v -1952 -2048 -0.8533334
v -1968 -2048 -0.8533334
v -1968 -2032 -0.8533334
v -1952 -2032 -0.8533334
v -1408 -2064 -0.86
v -1424 -2064 -0.86
v -1424 -2048 -0.86
v -1408 -2048 -0.86
v -1424 -2064 -0.86
v -1440 -2064 -0.86
v -1440 -2048 -0.86
v -1424 -2048 -0.86
v -1440 -2064 -0.86
v -1456 -2064 -0.86
v -1456 -2048 -0.86
v -1440 -2048 -0.86
v -1456 -2064 -0.86
v -1472 -2064 -0.86
v -1472 -2048 -0.86
v -1456 -2048 -0.86
v -1392 -2080 -0.8666667
v -1408 -2080 -0.8666667
v -1408 -2064 -0.8666667
v -1392 -2064 -0.8666667
v -1408 -2080 -0.8666667
v -1424 -2080 -0.8666667
v -1424 -2064 -0.8666667
v -1408 -2064 -0.8666667
v -1456 -2080 -0.8666667
v -1472 -2080 -0.8666667
v -1472 -2064 -0.8666667
v -1456 -2064 -0.8666667
v -1456 -2096 -0.8733333
v -1472 -2096 -0.8733333
v -1472 -2080 -0.8733333
v -1456 -2080 -0.8733333
v -1408 -2112 -0.88
v -1424 -2112 -0.88
v -1424 -2096 -0.88
v -1408 -2096 -0.88
v -1456 -2112 -0.88
v -1472 -2112 -0.88
v -1472 -2096 -0.88
v -1456 -2096 -0.88
v -1408 -2128 -0.8866667
v -1424 -2128 -0.8866667
v -1424 -2112 -0.8866667
v -1408 -2112 -0.8866667
v -1408 -2144 -0.8933333
v -1424 -2144 -0.8933333
v -1424 -2128 -0.8933333
v -1408 -2128 -0.8933333
v -1376 -2192 -0.9133334
v -1392 -2192 -0.9133334
v -1392 -2176 -0.9133334
v -1376 -2176 -0.9133334
v -1312 -2208 -0.92
v -1328 -2208 -0.92
v -1328 -2192 -0.92
v -1312 -2192 -0.92
v -1360 -2208 -0.92
v -1376 -2208 -0.92
v -1376 -2192 -0.92
v -1360 -2192 -0.92
v -1376 -2208 -0.92
v -1392 -2208 -0.92
v -1392 -2192 -0.92
v -1376 -2192 -0.92
v -1360 -2224 -0.9266667
v -1376 -2224 -0.9266667
v -1376 -2208 -0.9266667
v -1360 -2208 -0.9266667
v -1232 -2256 -0.94
v -1248 -2256 -0.94
v -1248 -2240 -0.94
v -1232 -2240 -0.94
v -1248 -2256 -0.94
v -1264 -2256 -0.94
v -1264 -2240 -0.94
v -1248 -2240 -0.94
v -1280 -2256 -0.94
v -1296 -2256 -0.94
v -1296 -2240 -0.94
v -1280 -2240 -0.94
v -1296 -2256 -0.94
v -1312 -2256 -0.94
v -1312 -2240 -0.94
v -1296 -2240 -0.94
v -1280 -2272 -0.9466667
v -1296 -2272 -0.9466667
v -1296 -2256 -0.9466667
v -1280 -2256 -0.9466667

# Texture cooridinates (Count = 4)
vt 0.5 0.5
vt 0.6666667 0.5
vt 0.6666667 0.5833334
vt 0.5 0.5833334

# Normal
vn 0 0 -1

# Mesh description
g WorldMapV1_mesh_0020

# Faces
f 1/1/1 2/2/1 3/3/1 4/4/1
f 5/1/1 6/2/1 7/3/1 8/4/1
f 9/1/1 10/2/1 11/3/1 12/4/1
f 13/1/1 14/2/1 15/3/1 16/4/1
f 17/1/1 18/2/1 19/3/1 20/4/1
f 21/1/1 22/2/1 23/3/1 24/4/1
f 25/1/1 26/2/1 27/3/1 28/4/1
f 29/1/1 30/2/1 31/3/1 32/4/1
f 33/1/1 34/2/1 35/3/1 36/4/1
f 37/1/1 38/2/1 39/3/1 40/4/1
f 41/1/1 42/2/1 43/3/1 44/4/1
f 45/1/1 46/2/1 47/3/1 48/4/1
f 49/1/1 50/2/1 51/3/1 52/4/1
f 53/1/1 54/2/1 55/3/1 56/4/1
f 57/1/1 58/2/1 59/3/1 60/4/1
f 61/1/1 62/2/1 63/3/1 64/4/1
f 65/1/1 66/2/1 67/3/1 68/4/1
f 69/1/1 70/2/1 71/3/1 72/4/1
f 73/1/1 74/2/1 75/3/1 76/4/1
f 77/1/1 78/2/1 79/3/1 80/4/1
f 81/1/1 82/2/1 83/3/1 84/4/1
f 85/1/1 86/2/1 87/3/1 88/4/1
f 89/1/1 90/2/1 91/3/1 92/4/1
f 93/1/1 94/2/1 95/3/1 96/4/1
f 97/1/1 98/2/1 99/3/1 100/4/1
f 101/1/1 102/2/1 103/3/1 104/4/1
f 105/1/1 106/2/1 107/3/1 108/4/1
f 109/1/1 110/2/1 111/3/1 112/4/1
f 113/1/1 114/2/1 115/3/1 116/4/1
f 117/1/1 118/2/1 119/3/1 120/4/1
f 121/1/1 122/2/1 123/3/1 124/4/1
f 125/1/1 126/2/1 127/3/1 128/4/1
f 129/1/1 130/2/1 131/3/1 132/4/1
f 133/1/1 134/2/1 135/3/1 136/4/1
f 137/1/1 138/2/1 139/3/1 140/4/1
f 141/1/1 142/2/1 143/3/1 144/4/1
f 145/1/1 146/2/1 147/3/1 148/4/1
f 149/1/1 150/2/1 151/3/1 152/4/1
f 153/1/1 154/2/1 155/3/1 156/4/1
f 157/1/1 158/2/1 159/3/1 160/4/1
f 161/1/1 162/2/1 163/3/1 164/4/1
f 165/1/1 166/2/1 167/3/1 168/4/1
f 169/1/1 170/2/1 171/3/1 172/4/1
f 173/1/1 174/2/1 175/3/1 176/4/1
f 177/1/1 178/2/1 179/3/1 180/4/1
f 181/1/1 182/2/1 183/3/1 184/4/1
f 185/1/1 186/2/1 187/3/1 188/4/1

