# Tiled2Unity generated file. Do not modify by hand.
# Wavefront file for 'WorldMapV1_mesh_0047.obj'

# Vertices (Count = 252)
v -112 -704 -0.2933333
v -128 -704 -0.2933333
v -128 -688 -0.2933333
v -112 -688 -0.2933333
v -128 -704 -0.2933333
v -144 -704 -0.2933333
v -144 -688 -0.2933333
v -128 -688 -0.2933333
v -144 -704 -0.2933333
v -160 -704 -0.2933333
v -160 -688 -0.2933333
v -144 -688 -0.2933333
v -112 -720 -0.3
v -128 -720 -0.3
v -128 -704 -0.3
v -112 -704 -0.3
v -128 -720 -0.3
v -144 -720 -0.3
v -144 -704 -0.3
v -128 -704 -0.3
v -144 -720 -0.3
v -160 -720 -0.3
v -160 -704 -0.3
v -144 -704 -0.3
v -160 -720 -0.3
v -176 -720 -0.3
v -176 -704 -0.3
v -160 -704 -0.3
v -112 -736 -0.3066667
v -128 -736 -0.3066667
v -128 -720 -0.3066667
v -112 -720 -0.3066667
v -128 -736 -0.3066667
v -144 -736 -0.3066667
v -144 -720 -0.3066667
v -128 -720 -0.3066667
v -144 -736 -0.3066667
v -160 -736 -0.3066667
v -160 -720 -0.3066667
v -144 -720 -0.3066667
v -160 -736 -0.3066667
v -176 -736 -0.3066667
v -176 -720 -0.3066667
v -160 -720 -0.3066667
v -112 -752 -0.3133333
v -128 -752 -0.3133333
v -128 -736 -0.3133333
v -112 -736 -0.3133333
v -128 -752 -0.3133333
v -144 -752 -0.3133333
v -144 -736 -0.3133333
v -128 -736 -0.3133333
v -144 -752 -0.3133333
v -160 -752 -0.3133333
v -160 -736 -0.3133333
v -144 -736 -0.3133333
v -160 -752 -0.3133333
v -176 -752 -0.3133333
v -176 -736 -0.3133333
v -160 -736 -0.3133333
v -112 -768 -0.32
v -128 -768 -0.32
v -128 -752 -0.32
v -112 -752 -0.32
v -128 -768 -0.32
v -144 -768 -0.32
v -144 -752 -0.32
v -128 -752 -0.32
v -144 -768 -0.32
v -160 -768 -0.32
v -160 -752 -0.32
v -144 -752 -0.32
v -160 -768 -0.32
v -176 -768 -0.32
v -176 -752 -0.32
v -160 -752 -0.32
v -112 -784 -0.3266667
v -128 -784 -0.3266667
v -128 -768 -0.3266667
v -112 -768 -0.3266667
v -128 -784 -0.3266667
v -144 -784 -0.3266667
v -144 -768 -0.3266667
v -128 -768 -0.3266667
v -144 -784 -0.3266667
v -160 -784 -0.3266667
v -160 -768 -0.3266667
v -144 -768 -0.3266667
v -160 -784 -0.3266667
v -176 -784 -0.3266667
v -176 -768 -0.3266667
v -160 -768 -0.3266667
v -112 -800 -0.3333333
v -128 -800 -0.3333333
v -128 -784 -0.3333333
v -112 -784 -0.3333333
v -128 -800 -0.3333333
v -144 -800 -0.3333333
v -144 -784 -0.3333333
v -128 -784 -0.3333333
v -144 -800 -0.3333333
v -160 -800 -0.3333333
v -160 -784 -0.3333333
v -144 -784 -0.3333333
v -160 -800 -0.3333333
v -176 -800 -0.3333333
v -176 -784 -0.3333333
v -160 -784 -0.3333333
v -848 -816 -0.34
v -864 -816 -0.34
v -864 -800 -0.34
v -848 -800 -0.34
v -864 -816 -0.34
v -880 -816 -0.34
v -880 -800 -0.34
v -864 -800 -0.34
v -880 -816 -0.34
v -896 -816 -0.34
v -896 -800 -0.34
v -880 -800 -0.34
v -896 -816 -0.34
v -912 -816 -0.34
v -912 -800 -0.34
v -896 -800 -0.34
v -832 -832 -0.3466667
v -848 -832 -0.3466667
v -848 -816 -0.3466667
v -832 -816 -0.3466667
v -848 -832 -0.3466667
v -864 -832 -0.3466667
v -864 -816 -0.3466667
v -848 -816 -0.3466667
v -864 -832 -0.3466667
v -880 -832 -0.3466667
v -880 -816 -0.3466667
v -864 -816 -0.3466667
v -880 -832 -0.3466667
v -896 -832 -0.3466667
v -896 -816 -0.3466667
v -880 -816 -0.3466667
v -896 -832 -0.3466667
v -912 -832 -0.3466667
v -912 -816 -0.3466667
v -896 -816 -0.3466667
v -912 -832 -0.3466667
v -928 -832 -0.3466667
v -928 -816 -0.3466667
v -912 -816 -0.3466667
v -928 -832 -0.3466667
v -944 -832 -0.3466667
v -944 -816 -0.3466667
v -928 -816 -0.3466667
v -832 -848 -0.3533333
v -848 -848 -0.3533333
v -848 -832 -0.3533333
v -832 -832 -0.3533333
v -848 -848 -0.3533333
v -864 -848 -0.3533333
v -864 -832 -0.3533333
v -848 -832 -0.3533333
v -864 -848 -0.3533333
v -880 -848 -0.3533333
v -880 -832 -0.3533333
v -864 -832 -0.3533333
v -880 -848 -0.3533333
v -896 -848 -0.3533333
v -896 -832 -0.3533333
v -880 -832 -0.3533333
v -896 -848 -0.3533333
v -912 -848 -0.3533333
v -912 -832 -0.3533333
v -896 -832 -0.3533333
v -912 -848 -0.3533333
v -928 -848 -0.3533333
v -928 -832 -0.3533333
v -912 -832 -0.3533333
v -928 -848 -0.3533333
v -944 -848 -0.3533333
v -944 -832 -0.3533333
v -928 -832 -0.3533333
v -832 -864 -0.36
v -848 -864 -0.36
v -848 -848 -0.36
v -832 -848 -0.36
v -848 -864 -0.36
v -864 -864 -0.36
v -864 -848 -0.36
v -848 -848 -0.36
v -864 -864 -0.36
v -880 -864 -0.36
v -880 -848 -0.36
v -864 -848 -0.36
v -880 -864 -0.36
v -896 -864 -0.36
v -896 -848 -0.36
v -880 -848 -0.36
v -896 -864 -0.36
v -912 -864 -0.36
v -912 -848 -0.36
v -896 -848 -0.36
v -912 -864 -0.36
v -928 -864 -0.36
v -928 -848 -0.36
v -912 -848 -0.36
v -928 -864 -0.36
v -944 -864 -0.36
v -944 -848 -0.36
v -928 -848 -0.36
v -848 -880 -0.3666667
v -864 -880 -0.3666667
v -864 -864 -0.3666667
v -848 -864 -0.3666667
v -864 -880 -0.3666667
v -880 -880 -0.3666667
v -880 -864 -0.3666667
v -864 -864 -0.3666667
v -880 -880 -0.3666667
v -896 -880 -0.3666667
v -896 -864 -0.3666667
v -880 -864 -0.3666667
v -896 -880 -0.3666667
v -912 -880 -0.3666667
v -912 -864 -0.3666667
v -896 -864 -0.3666667
v -912 -880 -0.3666667
v -928 -880 -0.3666667
v -928 -864 -0.3666667
v -912 -864 -0.3666667
v -928 -880 -0.3666667
v -944 -880 -0.3666667
v -944 -864 -0.3666667
v -928 -864 -0.3666667
v -944 -880 -0.3666667
v -960 -880 -0.3666667
v -960 -864 -0.3666667
v -944 -864 -0.3666667
v -896 -896 -0.3733333
v -912 -896 -0.3733333
v -912 -880 -0.3733333
v -896 -880 -0.3733333
v -912 -896 -0.3733333
v -928 -896 -0.3733333
v -928 -880 -0.3733333
v -912 -880 -0.3733333
v -928 -896 -0.3733333
v -944 -896 -0.3733333
v -944 -880 -0.3733333
v -928 -880 -0.3733333
v -944 -896 -0.3733333
v -960 -896 -0.3733333
v -960 -880 -0.3733333
v -944 -880 -0.3733333

# Texture cooridinates (Count = 48)
vt 0.1666667 0.5
vt 0.3333333 0.5
vt 0.3333333 0.5833334
vt 0.1666667 0.5833334
vt 0.6666667 0.6666666
vt 0.8333333 0.6666666
vt 0.8333333 0.75
vt 0.6666667 0.75
vt 0.6666667 0.5
vt 0.8333333 0.5
vt 0.8333333 0.5833334
vt 0.6666667 0.5833334
vt 0.1666667 0.3333333
vt 0.3333333 0.3333333
vt 0.3333333 0.4166667
vt 0.1666667 0.4166667
vt 0.5 0.3333333
vt 0.5 0.4166667
vt 0.3333333 0.6666666
vt 0.5 0.6666666
vt 0.5 0.75
vt 0.3333333 0.75
vt 1 0.75
vt 1 0.8333333
vt 0.8333333 0.8333333
vt 0.6666667 0.3333333
vt 0.6666667 0.4166667
vt 0.5 0.5
vt 0.3333333 0.8333333
vt 0.5 0.8333333
vt 0.5 0.9166667
vt 0.3333333 0.9166667
vt 0.1666667 0.25
vt 0.3333333 0.25
vt 0.8333333 0.9166667
vt 1 0.9166667
vt 1 1
vt 0.8333333 1
vt 1 0.6666666
vt 0.8333333 0.3333333
vt 0.8333333 0.4166667
vt 0.6666667 0.9166667
vt 0.6666667 1
vt 0.5 1
vt 0.6666667 0.25
vt 0.8333333 0.25
vt 0.5 0.5833334
vt 0.5 0.25

# Normal
vn 0 0 -1

# Mesh description
g WorldMapV1_mesh_0047

# Faces
f 1/1/1 2/2/1 3/3/1 4/4/1
f 5/5/1 6/6/1 7/7/1 8/8/1
f 9/9/1 10/10/1 11/11/1 12/12/1
f 13/13/1 14/14/1 15/15/1 16/16/1
f 17/14/1 18/17/1 19/18/1 20/15/1
f 21/19/1 22/20/1 23/21/1 24/22/1
f 25/9/1 26/10/1 27/11/1 28/12/1
f 29/7/1 30/23/1 31/24/1 32/25/1
f 33/17/1 34/26/1 35/27/1 36/18/1
f 37/15/1 38/18/1 39/28/1 40/2/1
f 41/29/1 42/30/1 43/31/1 44/32/1
f 45/33/1 46/34/1 47/14/1 48/13/1
f 49/35/1 50/36/1 51/37/1 52/38/1
f 53/17/1 54/26/1 55/27/1 56/18/1
f 57/29/1 58/30/1 59/31/1 60/32/1
f 61/1/1 62/2/1 63/3/1 64/4/1
f 65/6/1 66/39/1 67/23/1 68/7/1
f 69/18/1 70/27/1 71/9/1 72/28/1
f 73/26/1 74/40/1 75/41/1 76/27/1
f 77/7/1 78/23/1 79/24/1 80/25/1
f 81/18/1 82/27/1 83/9/1 84/28/1
f 85/17/1 86/26/1 87/27/1 88/18/1
f 89/26/1 90/40/1 91/41/1 92/27/1
f 93/33/1 94/34/1 95/14/1 96/13/1
f 97/31/1 98/42/1 99/43/1 100/44/1
f 101/42/1 102/35/1 103/38/1 104/43/1
f 105/45/1 106/46/1 107/40/1 108/26/1
f 109/1/1 110/2/1 111/3/1 112/4/1
f 113/2/1 114/28/1 115/47/1 116/3/1
f 117/5/1 118/6/1 119/7/1 120/8/1
f 121/9/1 122/10/1 123/11/1 124/12/1
f 125/1/1 126/2/1 127/3/1 128/4/1
f 129/6/1 130/39/1 131/23/1 132/7/1
f 133/17/1 134/26/1 135/27/1 136/18/1
f 137/17/1 138/26/1 139/27/1 140/18/1
f 141/19/1 142/20/1 143/21/1 144/22/1
f 145/28/1 146/9/1 147/12/1 148/47/1
f 149/9/1 150/10/1 151/11/1 152/12/1
f 153/13/1 154/14/1 155/15/1 156/16/1
f 157/15/1 158/18/1 159/28/1 160/2/1
f 161/15/1 162/18/1 163/28/1 164/2/1
f 165/18/1 166/27/1 167/9/1 168/28/1
f 169/15/1 170/18/1 171/28/1 172/2/1
f 173/18/1 174/27/1 175/9/1 176/28/1
f 177/29/1 178/30/1 179/31/1 180/32/1
f 181/33/1 182/34/1 183/14/1 184/13/1
f 185/35/1 186/36/1 187/37/1 188/38/1
f 189/14/1 190/17/1 191/18/1 192/15/1
f 193/15/1 194/18/1 195/28/1 196/2/1
f 197/15/1 198/18/1 199/28/1 200/2/1
f 201/15/1 202/18/1 203/28/1 204/2/1
f 205/27/1 206/41/1 207/10/1 208/9/1
f 209/33/1 210/34/1 211/14/1 212/13/1
f 213/48/1 214/45/1 215/26/1 216/17/1
f 217/34/1 218/48/1 219/17/1 220/14/1
f 221/35/1 222/36/1 223/37/1 224/38/1
f 225/15/1 226/18/1 227/28/1 228/2/1
f 229/19/1 230/20/1 231/21/1 232/22/1
f 233/9/1 234/10/1 235/11/1 236/12/1
f 237/33/1 238/34/1 239/14/1 240/13/1
f 241/42/1 242/35/1 243/38/1 244/43/1
f 245/31/1 246/42/1 247/43/1 248/44/1
f 249/45/1 250/46/1 251/40/1 252/26/1

