# Tiled2Unity generated file. Do not modify by hand.
# Wavefront file for 'WorldMapV1_mesh_0010.obj'

# Vertices (Count = 16)
v -1648 -1488 -0.62
v -1664 -1488 -0.62
v -1664 -1472 -0.62
v -1648 -1472 -0.62
v -1664 -1488 -0.62
v -1680 -1488 -0.62
v -1680 -1472 -0.62
v -1664 -1472 -0.62
v -1696 -1488 -0.62
v -1712 -1488 -0.62
v -1712 -1472 -0.62
v -1696 -1472 -0.62
v -1536 -1680 -0.7
v -1552 -1680 -0.7
v -1552 -1664 -0.7
v -1536 -1664 -0.7

# Texture cooridinates (Count = 14)
vt 0.1111111 0.5
vt 0.1666667 0.5
vt 0.1666667 0.5714285
vt 0.1111111 0.5714285
vt 0.2222222 0.5
vt 0.2222222 0.5714285
vt 0.2777778 0.5
vt 0.3333333 0.5
vt 0.3333333 0.5714285
vt 0.2777778 0.5714285
vt 0 0.2142857
vt 0.05555556 0.2142857
vt 0.05555556 0.2857143
vt 0 0.2857143

# Normal
vn 0 0 -1

# Mesh description
g WorldMapV1_mesh_0010

# Faces
f 1/1/1 2/2/1 3/3/1 4/4/1
f 5/2/1 6/5/1 7/6/1 8/3/1
f 9/7/1 10/8/1 11/9/1 12/10/1
f 13/11/1 14/12/1 15/13/1 16/14/1

