# Tiled2Unity generated file. Do not modify by hand.
# Wavefront file for 'WorldMapV1_mesh_0062.obj'

# Vertices (Count = 220)
v -1120 -208 -0.08666667
v -1136 -208 -0.08666667
v -1136 -192 -0.08666667
v -1120 -192 -0.08666667
v -1136 -208 -0.08666667
v -1152 -208 -0.08666667
v -1152 -192 -0.08666667
v -1136 -192 -0.08666667
v -1120 -224 -0.09333333
v -1136 -224 -0.09333333
v -1136 -208 -0.09333333
v -1120 -208 -0.09333333
v -1136 -224 -0.09333333
v -1152 -224 -0.09333333
v -1152 -208 -0.09333333
v -1136 -208 -0.09333333
v -2304 -336 -0.14
v -2320 -336 -0.14
v -2320 -320 -0.14
v -2304 -320 -0.14
v -2320 -336 -0.14
v -2336 -336 -0.14
v -2336 -320 -0.14
v -2320 -320 -0.14
v -2304 -352 -0.1466667
v -2320 -352 -0.1466667
v -2320 -336 -0.1466667
v -2304 -336 -0.1466667
v -2320 -352 -0.1466667
v -2336 -352 -0.1466667
v -2336 -336 -0.1466667
v -2320 -336 -0.1466667
v -1152 -608 -0.2533333
v -1168 -608 -0.2533333
v -1168 -592 -0.2533333
v -1152 -592 -0.2533333
v -1168 -608 -0.2533333
v -1184 -608 -0.2533333
v -1184 -592 -0.2533333
v -1168 -592 -0.2533333
v -1152 -624 -0.26
v -1168 -624 -0.26
v -1168 -608 -0.26
v -1152 -608 -0.26
v -1168 -624 -0.26
v -1184 -624 -0.26
v -1184 -608 -0.26
v -1168 -608 -0.26
v -1504 -736 -0.3066667
v -1520 -736 -0.3066667
v -1520 -720 -0.3066667
v -1504 -720 -0.3066667
v -1520 -736 -0.3066667
v -1536 -736 -0.3066667
v -1536 -720 -0.3066667
v -1520 -720 -0.3066667
v -1536 -736 -0.3066667
v -1552 -736 -0.3066667
v -1552 -720 -0.3066667
v -1536 -720 -0.3066667
v -1552 -736 -0.3066667
v -1568 -736 -0.3066667
v -1568 -720 -0.3066667
v -1552 -720 -0.3066667
v -1568 -736 -0.3066667
v -1584 -736 -0.3066667
v -1584 -720 -0.3066667
v -1568 -720 -0.3066667
v -1584 -736 -0.3066667
v -1600 -736 -0.3066667
v -1600 -720 -0.3066667
v -1584 -720 -0.3066667
v -1504 -752 -0.3133333
v -1520 -752 -0.3133333
v -1520 -736 -0.3133333
v -1504 -736 -0.3133333
v -1520 -752 -0.3133333
v -1536 -752 -0.3133333
v -1536 -736 -0.3133333
v -1520 -736 -0.3133333
v -1536 -752 -0.3133333
v -1552 -752 -0.3133333
v -1552 -736 -0.3133333
v -1536 -736 -0.3133333
v -1552 -752 -0.3133333
v -1568 -752 -0.3133333
v -1568 -736 -0.3133333
v -1552 -736 -0.3133333
v -1568 -752 -0.3133333
v -1584 -752 -0.3133333
v -1584 -736 -0.3133333
v -1568 -736 -0.3133333
v -1584 -752 -0.3133333
v -1600 -752 -0.3133333
v -1600 -736 -0.3133333
v -1584 -736 -0.3133333
v -2160 -752 -0.3133333
v -2176 -752 -0.3133333
v -2176 -736 -0.3133333
v -2160 -736 -0.3133333
v -2176 -752 -0.3133333
v -2192 -752 -0.3133333
v -2192 -736 -0.3133333
v -2176 -736 -0.3133333
v -1504 -768 -0.32
v -1520 -768 -0.32
v -1520 -752 -0.32
v -1504 -752 -0.32
v -1520 -768 -0.32
v -1536 -768 -0.32
v -1536 -752 -0.32
v -1520 -752 -0.32
v -1536 -768 -0.32
v -1552 -768 -0.32
v -1552 -752 -0.32
v -1536 -752 -0.32
v -1552 -768 -0.32
v -1568 -768 -0.32
v -1568 -752 -0.32
v -1552 -752 -0.32
v -1568 -768 -0.32
v -1584 -768 -0.32
v -1584 -752 -0.32
v -1568 -752 -0.32
v -1584 -768 -0.32
v -1600 -768 -0.32
v -1600 -752 -0.32
v -1584 -752 -0.32
v -2160 -768 -0.32
v -2176 -768 -0.32
v -2176 -752 -0.32
v -2160 -752 -0.32
v -2176 -768 -0.32
v -2192 -768 -0.32
v -2192 -752 -0.32
v -2176 -752 -0.32
v -1504 -784 -0.3266667
v -1520 -784 -0.3266667
v -1520 -768 -0.3266667
v -1504 -768 -0.3266667
v -1520 -784 -0.3266667
v -1536 -784 -0.3266667
v -1536 -768 -0.3266667
v -1520 -768 -0.3266667
v -1536 -784 -0.3266667
v -1552 -784 -0.3266667
v -1552 -768 -0.3266667
v -1536 -768 -0.3266667
v -1552 -784 -0.3266667
v -1568 -784 -0.3266667
v -1568 -768 -0.3266667
v -1552 -768 -0.3266667
v -1568 -784 -0.3266667
v -1584 -784 -0.3266667
v -1584 -768 -0.3266667
v -1568 -768 -0.3266667
v -1584 -784 -0.3266667
v -1600 -784 -0.3266667
v -1600 -768 -0.3266667
v -1584 -768 -0.3266667
v -1504 -800 -0.3333333
v -1520 -800 -0.3333333
v -1520 -784 -0.3333333
v -1504 -784 -0.3333333
v -1520 -800 -0.3333333
v -1536 -800 -0.3333333
v -1536 -784 -0.3333333
v -1520 -784 -0.3333333
v -1536 -800 -0.3333333
v -1552 -800 -0.3333333
v -1552 -784 -0.3333333
v -1536 -784 -0.3333333
v -1552 -800 -0.3333333
v -1568 -800 -0.3333333
v -1568 -784 -0.3333333
v -1552 -784 -0.3333333
v -1568 -800 -0.3333333
v -1584 -800 -0.3333333
v -1584 -784 -0.3333333
v -1568 -784 -0.3333333
v -1584 -800 -0.3333333
v -1600 -800 -0.3333333
v -1600 -784 -0.3333333
v -1584 -784 -0.3333333
v -1504 -816 -0.34
v -1520 -816 -0.34
v -1520 -800 -0.34
v -1504 -800 -0.34
v -1536 -816 -0.34
v -1552 -816 -0.34
v -1552 -800 -0.34
v -1536 -800 -0.34
v -1552 -816 -0.34
v -1568 -816 -0.34
v -1568 -800 -0.34
v -1552 -800 -0.34
v -1568 -816 -0.34
v -1584 -816 -0.34
v -1584 -800 -0.34
v -1568 -800 -0.34
v -1584 -816 -0.34
v -1600 -816 -0.34
v -1600 -800 -0.34
v -1584 -800 -0.34
v -2048 -816 -0.34
v -2064 -816 -0.34
v -2064 -800 -0.34
v -2048 -800 -0.34
v -2064 -816 -0.34
v -2080 -816 -0.34
v -2080 -800 -0.34
v -2064 -800 -0.34
v -2048 -832 -0.3466667
v -2064 -832 -0.3466667
v -2064 -816 -0.3466667
v -2048 -816 -0.3466667
v -2064 -832 -0.3466667
v -2080 -832 -0.3466667
v -2080 -816 -0.3466667
v -2064 -816 -0.3466667

# Texture cooridinates (Count = 58)
vt 0 0.9166667
vt 0.1666667 0.9166667
vt 0.1666667 1
vt 0 1
vt 0.3333333 0.9166667
vt 0.3333333 1
vt 0 0.8333333
vt 0.1666667 0.8333333
vt 0.3333333 0.8333333
vt 0 0.5833334
vt 0.1666667 0.5833334
vt 0.1666667 0.6666666
vt 0 0.6666666
vt 0.3333333 0.5833334
vt 0.3333333 0.6666666
vt 0.5 0.5833334
vt 0.5 0.6666666
vt 0.6666667 0.5833334
vt 0.6666667 0.6666666
vt 0.8333333 0.5833334
vt 0.8333333 0.6666666
vt 1 0.5833334
vt 1 0.6666666
vt 0 0.5
vt 0.1666667 0.5
vt 0.3333333 0.5
vt 0.5 0.5
vt 0.6666667 0.5
vt 0.8333333 0.5
vt 1 0.5
vt 0 0.4166667
vt 0.1666667 0.4166667
vt 0.3333333 0.4166667
vt 0.5 0.4166667
vt 0.6666667 0.4166667
vt 0.8333333 0.4166667
vt 1 0.4166667
vt 0 0.3333333
vt 0.1666667 0.3333333
vt 0.3333333 0.3333333
vt 0.5 0.3333333
vt 0.6666667 0.3333333
vt 0.8333333 0.3333333
vt 1 0.3333333
vt 0 0.25
vt 0.1666667 0.25
vt 0.3333333 0.25
vt 0.5 0.25
vt 0.6666667 0.25
vt 0.8333333 0.25
vt 1 0.25
vt 0 0.1666667
vt 0.1666667 0.1666667
vt 0.3333333 0.1666667
vt 0.5 0.1666667
vt 0.6666667 0.1666667
vt 0.8333333 0.1666667
vt 1 0.1666667

# Normal
vn 0 0 -1

# Mesh description
g WorldMapV1_mesh_0062

# Faces
f 1/1/1 2/2/1 3/3/1 4/4/1
f 5/2/1 6/5/1 7/6/1 8/3/1
f 9/7/1 10/8/1 11/2/1 12/1/1
f 13/8/1 14/9/1 15/5/1 16/2/1
f 17/1/1 18/2/1 19/3/1 20/4/1
f 21/2/1 22/5/1 23/6/1 24/3/1
f 25/7/1 26/8/1 27/2/1 28/1/1
f 29/8/1 30/9/1 31/5/1 32/2/1
f 33/1/1 34/2/1 35/3/1 36/4/1
f 37/2/1 38/5/1 39/6/1 40/3/1
f 41/7/1 42/8/1 43/2/1 44/1/1
f 45/8/1 46/9/1 47/5/1 48/2/1
f 49/10/1 50/11/1 51/12/1 52/13/1
f 53/11/1 54/14/1 55/15/1 56/12/1
f 57/14/1 58/16/1 59/17/1 60/15/1
f 61/16/1 62/18/1 63/19/1 64/17/1
f 65/18/1 66/20/1 67/21/1 68/19/1
f 69/20/1 70/22/1 71/23/1 72/21/1
f 73/24/1 74/25/1 75/11/1 76/10/1
f 77/25/1 78/26/1 79/14/1 80/11/1
f 81/26/1 82/27/1 83/16/1 84/14/1
f 85/27/1 86/28/1 87/18/1 88/16/1
f 89/28/1 90/29/1 91/20/1 92/18/1
f 93/29/1 94/30/1 95/22/1 96/20/1
f 97/1/1 98/2/1 99/3/1 100/4/1
f 101/2/1 102/5/1 103/6/1 104/3/1
f 105/31/1 106/32/1 107/25/1 108/24/1
f 109/32/1 110/33/1 111/26/1 112/25/1
f 113/33/1 114/34/1 115/27/1 116/26/1
f 117/34/1 118/35/1 119/28/1 120/27/1
f 121/35/1 122/36/1 123/29/1 124/28/1
f 125/36/1 126/37/1 127/30/1 128/29/1
f 129/7/1 130/8/1 131/2/1 132/1/1
f 133/8/1 134/9/1 135/5/1 136/2/1
f 137/38/1 138/39/1 139/32/1 140/31/1
f 141/39/1 142/40/1 143/33/1 144/32/1
f 145/40/1 146/41/1 147/34/1 148/33/1
f 149/41/1 150/42/1 151/35/1 152/34/1
f 153/42/1 154/43/1 155/36/1 156/35/1
f 157/43/1 158/44/1 159/37/1 160/36/1
f 161/45/1 162/46/1 163/39/1 164/38/1
f 165/46/1 166/47/1 167/40/1 168/39/1
f 169/47/1 170/48/1 171/41/1 172/40/1
f 173/48/1 174/49/1 175/42/1 176/41/1
f 177/49/1 178/50/1 179/43/1 180/42/1
f 181/50/1 182/51/1 183/44/1 184/43/1
f 185/52/1 186/53/1 187/46/1 188/45/1
f 189/54/1 190/55/1 191/48/1 192/47/1
f 193/55/1 194/56/1 195/49/1 196/48/1
f 197/56/1 198/57/1 199/50/1 200/49/1
f 201/57/1 202/58/1 203/51/1 204/50/1
f 205/1/1 206/2/1 207/3/1 208/4/1
f 209/2/1 210/5/1 211/6/1 212/3/1
f 213/7/1 214/8/1 215/2/1 216/1/1
f 217/8/1 218/9/1 219/5/1 220/2/1

