# Tiled2Unity generated file. Do not modify by hand.
# Wavefront file for 'WorldMapV1_mesh_0009.obj'

# Vertices (Count = 12)
v -1952 -1984 -0.8266667
v -1968 -1984 -0.8266667
v -1968 -1968 -0.8266667
v -1952 -1968 -0.8266667
v -1968 -1984 -0.8266667
v -1984 -1984 -0.8266667
v -1984 -1968 -0.8266667
v -1968 -1968 -0.8266667
v -1984 -1984 -0.8266667
v -2000 -1984 -0.8266667
v -2000 -1968 -0.8266667
v -1984 -1968 -0.8266667

# Texture cooridinates (Count = 8)
vt 0.5 0.3333333
vt 0.6666667 0.3333333
vt 0.6666667 0.4166667
vt 0.5 0.4166667
vt 0.6666667 0.5
vt 0.5 0.5
vt 0.3333333 0.4166667
vt 0.3333333 0.5

# Normal
vn 0 0 -1

# Mesh description
g WorldMapV1_mesh_0009

# Faces
f 1/1/1 2/2/1 3/3/1 4/4/1
f 5/4/1 6/3/1 7/5/1 8/6/1
f 9/7/1 10/4/1 11/6/1 12/8/1

