# Tiled2Unity generated file. Do not modify by hand.
# Wavefront file for 'WorldMapV1_mesh_0040.obj'

# Vertices (Count = 256)
v -256 -672 -0.28
v -272 -672 -0.28
v -272 -656 -0.28
v -256 -656 -0.28
v -272 -672 -0.28
v -288 -672 -0.28
v -288 -656 -0.28
v -272 -656 -0.28
v -704 -672 -0.28
v -720 -672 -0.28
v -720 -656 -0.28
v -704 -656 -0.28
v -720 -672 -0.28
v -736 -672 -0.28
v -736 -656 -0.28
v -720 -656 -0.28
v -256 -688 -0.2866667
v -272 -688 -0.2866667
v -272 -672 -0.2866667
v -256 -672 -0.2866667
v -272 -688 -0.2866667
v -288 -688 -0.2866667
v -288 -672 -0.2866667
v -272 -672 -0.2866667
v -704 -688 -0.2866667
v -720 -688 -0.2866667
v -720 -672 -0.2866667
v -704 -672 -0.2866667
v -720 -688 -0.2866667
v -736 -688 -0.2866667
v -736 -672 -0.2866667
v -720 -672 -0.2866667
v -256 -704 -0.2933333
v -272 -704 -0.2933333
v -272 -688 -0.2933333
v -256 -688 -0.2933333
v -272 -704 -0.2933333
v -288 -704 -0.2933333
v -288 -688 -0.2933333
v -272 -688 -0.2933333
v -704 -704 -0.2933333
v -720 -704 -0.2933333
v -720 -688 -0.2933333
v -704 -688 -0.2933333
v -720 -704 -0.2933333
v -736 -704 -0.2933333
v -736 -688 -0.2933333
v -720 -688 -0.2933333
v -256 -720 -0.3
v -272 -720 -0.3
v -272 -704 -0.3
v -256 -704 -0.3
v -272 -720 -0.3
v -288 -720 -0.3
v -288 -704 -0.3
v -272 -704 -0.3
v -704 -720 -0.3
v -720 -720 -0.3
v -720 -704 -0.3
v -704 -704 -0.3
v -720 -720 -0.3
v -736 -720 -0.3
v -736 -704 -0.3
v -720 -704 -0.3
v -272 -736 -0.3066667
v -288 -736 -0.3066667
v -288 -720 -0.3066667
v -272 -720 -0.3066667
v -288 -736 -0.3066667
v -304 -736 -0.3066667
v -304 -720 -0.3066667
v -288 -720 -0.3066667
v -688 -736 -0.3066667
v -704 -736 -0.3066667
v -704 -720 -0.3066667
v -688 -720 -0.3066667
v -704 -736 -0.3066667
v -720 -736 -0.3066667
v -720 -720 -0.3066667
v -704 -720 -0.3066667
v -272 -752 -0.3133333
v -288 -752 -0.3133333
v -288 -736 -0.3133333
v -272 -736 -0.3133333
v -288 -752 -0.3133333
v -304 -752 -0.3133333
v -304 -736 -0.3133333
v -288 -736 -0.3133333
v -688 -752 -0.3133333
v -704 -752 -0.3133333
v -704 -736 -0.3133333
v -688 -736 -0.3133333
v -704 -752 -0.3133333
v -720 -752 -0.3133333
v -720 -736 -0.3133333
v -704 -736 -0.3133333
v -272 -768 -0.32
v -288 -768 -0.32
v -288 -752 -0.32
v -272 -752 -0.32
v -288 -768 -0.32
v -304 -768 -0.32
v -304 -752 -0.32
v -288 -752 -0.32
v -688 -768 -0.32
v -704 -768 -0.32
v -704 -752 -0.32
v -688 -752 -0.32
v -704 -768 -0.32
v -720 -768 -0.32
v -720 -752 -0.32
v -704 -752 -0.32
v -272 -784 -0.3266667
v -288 -784 -0.3266667
v -288 -768 -0.3266667
v -272 -768 -0.3266667
v -288 -784 -0.3266667
v -304 -784 -0.3266667
v -304 -768 -0.3266667
v -288 -768 -0.3266667
v -688 -784 -0.3266667
v -704 -784 -0.3266667
v -704 -768 -0.3266667
v -688 -768 -0.3266667
v -704 -784 -0.3266667
v -720 -784 -0.3266667
v -720 -768 -0.3266667
v -704 -768 -0.3266667
v -272 -800 -0.3333333
v -288 -800 -0.3333333
v -288 -784 -0.3333333
v -272 -784 -0.3333333
v -288 -800 -0.3333333
v -304 -800 -0.3333333
v -304 -784 -0.3333333
v -288 -784 -0.3333333
v -688 -800 -0.3333333
v -704 -800 -0.3333333
v -704 -784 -0.3333333
v -688 -784 -0.3333333
v -704 -800 -0.3333333
v -720 -800 -0.3333333
v -720 -784 -0.3333333
v -704 -784 -0.3333333
v -272 -816 -0.34
v -288 -816 -0.34
v -288 -800 -0.34
v -272 -800 -0.34
v -288 -816 -0.34
v -304 -816 -0.34
v -304 -800 -0.34
v -288 -800 -0.34
v -688 -816 -0.34
v -704 -816 -0.34
v -704 -800 -0.34
v -688 -800 -0.34
v -704 -816 -0.34
v -720 -816 -0.34
v -720 -800 -0.34
v -704 -800 -0.34
v -272 -928 -0.3866667
v -288 -928 -0.3866667
v -288 -912 -0.3866667
v -272 -912 -0.3866667
v -288 -928 -0.3866667
v -304 -928 -0.3866667
v -304 -912 -0.3866667
v -288 -912 -0.3866667
v -688 -928 -0.3866667
v -704 -928 -0.3866667
v -704 -912 -0.3866667
v -688 -912 -0.3866667
v -704 -928 -0.3866667
v -720 -928 -0.3866667
v -720 -912 -0.3866667
v -704 -912 -0.3866667
v -272 -944 -0.3933333
v -288 -944 -0.3933333
v -288 -928 -0.3933333
v -272 -928 -0.3933333
v -288 -944 -0.3933333
v -304 -944 -0.3933333
v -304 -928 -0.3933333
v -288 -928 -0.3933333
v -688 -944 -0.3933333
v -704 -944 -0.3933333
v -704 -928 -0.3933333
v -688 -928 -0.3933333
v -704 -944 -0.3933333
v -720 -944 -0.3933333
v -720 -928 -0.3933333
v -704 -928 -0.3933333
v -272 -960 -0.4
v -288 -960 -0.4
v -288 -944 -0.4
v -272 -944 -0.4
v -288 -960 -0.4
v -304 -960 -0.4
v -304 -944 -0.4
v -288 -944 -0.4
v -688 -960 -0.4
v -704 -960 -0.4
v -704 -944 -0.4
v -688 -944 -0.4
v -704 -960 -0.4
v -720 -960 -0.4
v -720 -944 -0.4
v -704 -944 -0.4
v -272 -976 -0.4066667
v -288 -976 -0.4066667
v -288 -960 -0.4066667
v -272 -960 -0.4066667
v -288 -976 -0.4066667
v -304 -976 -0.4066667
v -304 -960 -0.4066667
v -288 -960 -0.4066667
v -688 -976 -0.4066667
v -704 -976 -0.4066667
v -704 -960 -0.4066667
v -688 -960 -0.4066667
v -704 -976 -0.4066667
v -720 -976 -0.4066667
v -720 -960 -0.4066667
v -704 -960 -0.4066667
v -272 -992 -0.4133333
v -288 -992 -0.4133333
v -288 -976 -0.4133333
v -272 -976 -0.4133333
v -288 -992 -0.4133333
v -304 -992 -0.4133333
v -304 -976 -0.4133333
v -288 -976 -0.4133333
v -688 -992 -0.4133333
v -704 -992 -0.4133333
v -704 -976 -0.4133333
v -688 -976 -0.4133333
v -704 -992 -0.4133333
v -720 -992 -0.4133333
v -720 -976 -0.4133333
v -704 -976 -0.4133333
v -272 -1008 -0.42
v -288 -1008 -0.42
v -288 -992 -0.42
v -272 -992 -0.42
v -288 -1008 -0.42
v -304 -1008 -0.42
v -304 -992 -0.42
v -288 -992 -0.42
v -688 -1008 -0.42
v -704 -1008 -0.42
v -704 -992 -0.42
v -688 -992 -0.42
v -704 -1008 -0.42
v -720 -1008 -0.42
v -720 -992 -0.42
v -704 -992 -0.42

# Texture cooridinates (Count = 36)
vt 0.4 0.875
vt 0.5 0.875
vt 0.5 1
vt 0.4 1
vt 0.6 0.875
vt 0.6 1
vt 0.4 0.75
vt 0.5 0.75
vt 0.6 0.75
vt 0.4 0.625
vt 0.5 0.625
vt 0.6 0.625
vt 0.4 0.5
vt 0.5 0.5
vt 0.6 0.5
vt 0.7 0.875
vt 0.8 0.875
vt 0.8 1
vt 0.7 1
vt 0.9 0.875
vt 0.9 1
vt 0.7 0.75
vt 0.8 0.75
vt 0.9 0.75
vt 0.7 0.625
vt 0.8 0.625
vt 0.9 0.625
vt 0.7 0.5
vt 0.8 0.5
vt 0.9 0.5
vt 0.7 0.375
vt 0.8 0.375
vt 0.9 0.375
vt 0.7 0.25
vt 0.8 0.25
vt 0.9 0.25

# Normal
vn 0 0 -1

# Mesh description
g WorldMapV1_mesh_0040

# Faces
f 1/1/1 2/2/1 3/3/1 4/4/1
f 5/2/1 6/5/1 7/6/1 8/3/1
f 9/1/1 10/2/1 11/3/1 12/4/1
f 13/2/1 14/5/1 15/6/1 16/3/1
f 17/7/1 18/8/1 19/2/1 20/1/1
f 21/8/1 22/9/1 23/5/1 24/2/1
f 25/7/1 26/8/1 27/2/1 28/1/1
f 29/8/1 30/9/1 31/5/1 32/2/1
f 33/10/1 34/11/1 35/8/1 36/7/1
f 37/11/1 38/12/1 39/9/1 40/8/1
f 41/10/1 42/11/1 43/8/1 44/7/1
f 45/11/1 46/12/1 47/9/1 48/8/1
f 49/13/1 50/14/1 51/11/1 52/10/1
f 53/14/1 54/15/1 55/12/1 56/11/1
f 57/13/1 58/14/1 59/11/1 60/10/1
f 61/14/1 62/15/1 63/12/1 64/11/1
f 65/16/1 66/17/1 67/18/1 68/19/1
f 69/17/1 70/20/1 71/21/1 72/18/1
f 73/16/1 74/17/1 75/18/1 76/19/1
f 77/17/1 78/20/1 79/21/1 80/18/1
f 81/22/1 82/23/1 83/17/1 84/16/1
f 85/23/1 86/24/1 87/20/1 88/17/1
f 89/22/1 90/23/1 91/17/1 92/16/1
f 93/23/1 94/24/1 95/20/1 96/17/1
f 97/25/1 98/26/1 99/23/1 100/22/1
f 101/26/1 102/27/1 103/24/1 104/23/1
f 105/25/1 106/26/1 107/23/1 108/22/1
f 109/26/1 110/27/1 111/24/1 112/23/1
f 113/28/1 114/29/1 115/26/1 116/25/1
f 117/29/1 118/30/1 119/27/1 120/26/1
f 121/28/1 122/29/1 123/26/1 124/25/1
f 125/29/1 126/30/1 127/27/1 128/26/1
f 129/31/1 130/32/1 131/29/1 132/28/1
f 133/32/1 134/33/1 135/30/1 136/29/1
f 137/31/1 138/32/1 139/29/1 140/28/1
f 141/32/1 142/33/1 143/30/1 144/29/1
f 145/34/1 146/35/1 147/32/1 148/31/1
f 149/35/1 150/36/1 151/33/1 152/32/1
f 153/34/1 154/35/1 155/32/1 156/31/1
f 157/35/1 158/36/1 159/33/1 160/32/1
f 161/16/1 162/17/1 163/18/1 164/19/1
f 165/17/1 166/20/1 167/21/1 168/18/1
f 169/16/1 170/17/1 171/18/1 172/19/1
f 173/17/1 174/20/1 175/21/1 176/18/1
f 177/22/1 178/23/1 179/17/1 180/16/1
f 181/23/1 182/24/1 183/20/1 184/17/1
f 185/22/1 186/23/1 187/17/1 188/16/1
f 189/23/1 190/24/1 191/20/1 192/17/1
f 193/25/1 194/26/1 195/23/1 196/22/1
f 197/26/1 198/27/1 199/24/1 200/23/1
f 201/25/1 202/26/1 203/23/1 204/22/1
f 205/26/1 206/27/1 207/24/1 208/23/1
f 209/28/1 210/29/1 211/26/1 212/25/1
f 213/29/1 214/30/1 215/27/1 216/26/1
f 217/28/1 218/29/1 219/26/1 220/25/1
f 221/29/1 222/30/1 223/27/1 224/26/1
f 225/31/1 226/32/1 227/29/1 228/28/1
f 229/32/1 230/33/1 231/30/1 232/29/1
f 233/31/1 234/32/1 235/29/1 236/28/1
f 237/32/1 238/33/1 239/30/1 240/29/1
f 241/34/1 242/35/1 243/32/1 244/31/1
f 245/35/1 246/36/1 247/33/1 248/32/1
f 249/34/1 250/35/1 251/32/1 252/31/1
f 253/35/1 254/36/1 255/33/1 256/32/1

