# Tiled2Unity generated file. Do not modify by hand.
# Wavefront file for 'WorldMapV1_mesh_0077.obj'

# Vertices (Count = 20)
v -592 -528 -0.22
v -608 -528 -0.22
v -608 -512 -0.22
v -592 -512 -0.22
v -912 -528 -0.22
v -928 -528 -0.22
v -928 -512 -0.22
v -912 -512 -0.22
v -752 -864 -0.36
v -768 -864 -0.36
v -768 -848 -0.36
v -752 -848 -0.36
v -976 -976 -0.4066667
v -992 -976 -0.4066667
v -992 -960 -0.4066667
v -976 -960 -0.4066667
v -624 -992 -0.4133333
v -640 -992 -0.4133333
v -640 -976 -0.4133333
v -624 -976 -0.4133333

# Texture cooridinates (Count = 4)
vt 0.125 0
vt 0.25 0
vt 0.25 0.5
vt 0.125 0.5

# Normal
vn 0 0 -1

# Mesh description
g WorldMapV1_mesh_0077

# Faces
f 1/1/1 2/2/1 3/3/1 4/4/1
f 5/1/1 6/2/1 7/3/1 8/4/1
f 9/1/1 10/2/1 11/3/1 12/4/1
f 13/1/1 14/2/1 15/3/1 16/4/1
f 17/1/1 18/2/1 19/3/1 20/4/1

