# Tiled2Unity generated file. Do not modify by hand.
# Wavefront file for 'WorldMapV1_mesh_0037.obj'

# Vertices (Count = 576)
v -304 -656 -0.2733333
v -320 -656 -0.2733333
v -320 -640 -0.2733333
v -304 -640 -0.2733333
v -320 -656 -0.2733333
v -336 -656 -0.2733333
v -336 -640 -0.2733333
v -320 -640 -0.2733333
v -336 -656 -0.2733333
v -352 -656 -0.2733333
v -352 -640 -0.2733333
v -336 -640 -0.2733333
v -352 -656 -0.2733333
v -368 -656 -0.2733333
v -368 -640 -0.2733333
v -352 -640 -0.2733333
v -368 -656 -0.2733333
v -384 -656 -0.2733333
v -384 -640 -0.2733333
v -368 -640 -0.2733333
v -384 -656 -0.2733333
v -400 -656 -0.2733333
v -400 -640 -0.2733333
v -384 -640 -0.2733333
v -400 -656 -0.2733333
v -416 -656 -0.2733333
v -416 -640 -0.2733333
v -400 -640 -0.2733333
v -416 -656 -0.2733333
v -432 -656 -0.2733333
v -432 -640 -0.2733333
v -416 -640 -0.2733333
v -432 -656 -0.2733333
v -448 -656 -0.2733333
v -448 -640 -0.2733333
v -432 -640 -0.2733333
v -448 -656 -0.2733333
v -464 -656 -0.2733333
v -464 -640 -0.2733333
v -448 -640 -0.2733333
v -464 -656 -0.2733333
v -480 -656 -0.2733333
v -480 -640 -0.2733333
v -464 -640 -0.2733333
v -480 -656 -0.2733333
v -496 -656 -0.2733333
v -496 -640 -0.2733333
v -480 -640 -0.2733333
v -496 -656 -0.2733333
v -512 -656 -0.2733333
v -512 -640 -0.2733333
v -496 -640 -0.2733333
v -512 -656 -0.2733333
v -528 -656 -0.2733333
v -528 -640 -0.2733333
v -512 -640 -0.2733333
v -528 -656 -0.2733333
v -544 -656 -0.2733333
v -544 -640 -0.2733333
v -528 -640 -0.2733333
v -544 -656 -0.2733333
v -560 -656 -0.2733333
v -560 -640 -0.2733333
v -544 -640 -0.2733333
v -560 -656 -0.2733333
v -576 -656 -0.2733333
v -576 -640 -0.2733333
v -560 -640 -0.2733333
v -576 -656 -0.2733333
v -592 -656 -0.2733333
v -592 -640 -0.2733333
v -576 -640 -0.2733333
v -592 -656 -0.2733333
v -608 -656 -0.2733333
v -608 -640 -0.2733333
v -592 -640 -0.2733333
v -608 -656 -0.2733333
v -624 -656 -0.2733333
v -624 -640 -0.2733333
v -608 -640 -0.2733333
v -624 -656 -0.2733333
v -640 -656 -0.2733333
v -640 -640 -0.2733333
v -624 -640 -0.2733333
v -640 -656 -0.2733333
v -656 -656 -0.2733333
v -656 -640 -0.2733333
v -640 -640 -0.2733333
v -656 -656 -0.2733333
v -672 -656 -0.2733333
v -672 -640 -0.2733333
v -656 -640 -0.2733333
v -672 -656 -0.2733333
v -688 -656 -0.2733333
v -688 -640 -0.2733333
v -672 -640 -0.2733333
v -304 -672 -0.28
v -320 -672 -0.28
v -320 -656 -0.28
v -304 -656 -0.28
v -320 -672 -0.28
v -336 -672 -0.28
v -336 -656 -0.28
v -320 -656 -0.28
v -336 -672 -0.28
v -352 -672 -0.28
v -352 -656 -0.28
v -336 -656 -0.28
v -352 -672 -0.28
v -368 -672 -0.28
v -368 -656 -0.28
v -352 -656 -0.28
v -368 -672 -0.28
v -384 -672 -0.28
v -384 -656 -0.28
v -368 -656 -0.28
v -384 -672 -0.28
v -400 -672 -0.28
v -400 -656 -0.28
v -384 -656 -0.28
v -400 -672 -0.28
v -416 -672 -0.28
v -416 -656 -0.28
v -400 -656 -0.28
v -416 -672 -0.28
v -432 -672 -0.28
v -432 -656 -0.28
v -416 -656 -0.28
v -432 -672 -0.28
v -448 -672 -0.28
v -448 -656 -0.28
v -432 -656 -0.28
v -448 -672 -0.28
v -464 -672 -0.28
v -464 -656 -0.28
v -448 -656 -0.28
v -464 -672 -0.28
v -480 -672 -0.28
v -480 -656 -0.28
v -464 -656 -0.28
v -480 -672 -0.28
v -496 -672 -0.28
v -496 -656 -0.28
v -480 -656 -0.28
v -496 -672 -0.28
v -512 -672 -0.28
v -512 -656 -0.28
v -496 -656 -0.28
v -512 -672 -0.28
v -528 -672 -0.28
v -528 -656 -0.28
v -512 -656 -0.28
v -528 -672 -0.28
v -544 -672 -0.28
v -544 -656 -0.28
v -528 -656 -0.28
v -544 -672 -0.28
v -560 -672 -0.28
v -560 -656 -0.28
v -544 -656 -0.28
v -560 -672 -0.28
v -576 -672 -0.28
v -576 -656 -0.28
v -560 -656 -0.28
v -576 -672 -0.28
v -592 -672 -0.28
v -592 -656 -0.28
v -576 -656 -0.28
v -592 -672 -0.28
v -608 -672 -0.28
v -608 -656 -0.28
v -592 -656 -0.28
v -608 -672 -0.28
v -624 -672 -0.28
v -624 -656 -0.28
v -608 -656 -0.28
v -624 -672 -0.28
v -640 -672 -0.28
v -640 -656 -0.28
v -624 -656 -0.28
v -640 -672 -0.28
v -656 -672 -0.28
v -656 -656 -0.28
v -640 -656 -0.28
v -656 -672 -0.28
v -672 -672 -0.28
v -672 -656 -0.28
v -656 -656 -0.28
v -672 -672 -0.28
v -688 -672 -0.28
v -688 -656 -0.28
v -672 -656 -0.28
v -304 -688 -0.2866667
v -320 -688 -0.2866667
v -320 -672 -0.2866667
v -304 -672 -0.2866667
v -320 -688 -0.2866667
v -336 -688 -0.2866667
v -336 -672 -0.2866667
v -320 -672 -0.2866667
v -336 -688 -0.2866667
v -352 -688 -0.2866667
v -352 -672 -0.2866667
v -336 -672 -0.2866667
v -352 -688 -0.2866667
v -368 -688 -0.2866667
v -368 -672 -0.2866667
v -352 -672 -0.2866667
v -368 -688 -0.2866667
v -384 -688 -0.2866667
v -384 -672 -0.2866667
v -368 -672 -0.2866667
v -384 -688 -0.2866667
v -400 -688 -0.2866667
v -400 -672 -0.2866667
v -384 -672 -0.2866667
v -400 -688 -0.2866667
v -416 -688 -0.2866667
v -416 -672 -0.2866667
v -400 -672 -0.2866667
v -416 -688 -0.2866667
v -432 -688 -0.2866667
v -432 -672 -0.2866667
v -416 -672 -0.2866667
v -432 -688 -0.2866667
v -448 -688 -0.2866667
v -448 -672 -0.2866667
v -432 -672 -0.2866667
v -448 -688 -0.2866667
v -464 -688 -0.2866667
v -464 -672 -0.2866667
v -448 -672 -0.2866667
v -464 -688 -0.2866667
v -480 -688 -0.2866667
v -480 -672 -0.2866667
v -464 -672 -0.2866667
v -480 -688 -0.2866667
v -496 -688 -0.2866667
v -496 -672 -0.2866667
v -480 -672 -0.2866667
v -496 -688 -0.2866667
v -512 -688 -0.2866667
v -512 -672 -0.2866667
v -496 -672 -0.2866667
v -512 -688 -0.2866667
v -528 -688 -0.2866667
v -528 -672 -0.2866667
v -512 -672 -0.2866667
v -528 -688 -0.2866667
v -544 -688 -0.2866667
v -544 -672 -0.2866667
v -528 -672 -0.2866667
v -544 -688 -0.2866667
v -560 -688 -0.2866667
v -560 -672 -0.2866667
v -544 -672 -0.2866667
v -560 -688 -0.2866667
v -576 -688 -0.2866667
v -576 -672 -0.2866667
v -560 -672 -0.2866667
v -576 -688 -0.2866667
v -592 -688 -0.2866667
v -592 -672 -0.2866667
v -576 -672 -0.2866667
v -592 -688 -0.2866667
v -608 -688 -0.2866667
v -608 -672 -0.2866667
v -592 -672 -0.2866667
v -608 -688 -0.2866667
v -624 -688 -0.2866667
v -624 -672 -0.2866667
v -608 -672 -0.2866667
v -624 -688 -0.2866667
v -640 -688 -0.2866667
v -640 -672 -0.2866667
v -624 -672 -0.2866667
v -640 -688 -0.2866667
v -656 -688 -0.2866667
v -656 -672 -0.2866667
v -640 -672 -0.2866667
v -656 -688 -0.2866667
v -672 -688 -0.2866667
v -672 -672 -0.2866667
v -656 -672 -0.2866667
v -672 -688 -0.2866667
v -688 -688 -0.2866667
v -688 -672 -0.2866667
v -672 -672 -0.2866667
v -304 -704 -0.2933333
v -320 -704 -0.2933333
v -320 -688 -0.2933333
v -304 -688 -0.2933333
v -320 -704 -0.2933333
v -336 -704 -0.2933333
v -336 -688 -0.2933333
v -320 -688 -0.2933333
v -336 -704 -0.2933333
v -352 -704 -0.2933333
v -352 -688 -0.2933333
v -336 -688 -0.2933333
v -352 -704 -0.2933333
v -368 -704 -0.2933333
v -368 -688 -0.2933333
v -352 -688 -0.2933333
v -368 -704 -0.2933333
v -384 -704 -0.2933333
v -384 -688 -0.2933333
v -368 -688 -0.2933333
v -384 -704 -0.2933333
v -400 -704 -0.2933333
v -400 -688 -0.2933333
v -384 -688 -0.2933333
v -400 -704 -0.2933333
v -416 -704 -0.2933333
v -416 -688 -0.2933333
v -400 -688 -0.2933333
v -416 -704 -0.2933333
v -432 -704 -0.2933333
v -432 -688 -0.2933333
v -416 -688 -0.2933333
v -432 -704 -0.2933333
v -448 -704 -0.2933333
v -448 -688 -0.2933333
v -432 -688 -0.2933333
v -448 -704 -0.2933333
v -464 -704 -0.2933333
v -464 -688 -0.2933333
v -448 -688 -0.2933333
v -464 -704 -0.2933333
v -480 -704 -0.2933333
v -480 -688 -0.2933333
v -464 -688 -0.2933333
v -480 -704 -0.2933333
v -496 -704 -0.2933333
v -496 -688 -0.2933333
v -480 -688 -0.2933333
v -496 -704 -0.2933333
v -512 -704 -0.2933333
v -512 -688 -0.2933333
v -496 -688 -0.2933333
v -512 -704 -0.2933333
v -528 -704 -0.2933333
v -528 -688 -0.2933333
v -512 -688 -0.2933333
v -528 -704 -0.2933333
v -544 -704 -0.2933333
v -544 -688 -0.2933333
v -528 -688 -0.2933333
v -544 -704 -0.2933333
v -560 -704 -0.2933333
v -560 -688 -0.2933333
v -544 -688 -0.2933333
v -560 -704 -0.2933333
v -576 -704 -0.2933333
v -576 -688 -0.2933333
v -560 -688 -0.2933333
v -576 -704 -0.2933333
v -592 -704 -0.2933333
v -592 -688 -0.2933333
v -576 -688 -0.2933333
v -592 -704 -0.2933333
v -608 -704 -0.2933333
v -608 -688 -0.2933333
v -592 -688 -0.2933333
v -608 -704 -0.2933333
v -624 -704 -0.2933333
v -624 -688 -0.2933333
v -608 -688 -0.2933333
v -624 -704 -0.2933333
v -640 -704 -0.2933333
v -640 -688 -0.2933333
v -624 -688 -0.2933333
v -640 -704 -0.2933333
v -656 -704 -0.2933333
v -656 -688 -0.2933333
v -640 -688 -0.2933333
v -656 -704 -0.2933333
v -672 -704 -0.2933333
v -672 -688 -0.2933333
v -656 -688 -0.2933333
v -672 -704 -0.2933333
v -688 -704 -0.2933333
v -688 -688 -0.2933333
v -672 -688 -0.2933333
v -304 -720 -0.3
v -320 -720 -0.3
v -320 -704 -0.3
v -304 -704 -0.3
v -320 -720 -0.3
v -336 -720 -0.3
v -336 -704 -0.3
v -320 -704 -0.3
v -336 -720 -0.3
v -352 -720 -0.3
v -352 -704 -0.3
v -336 -704 -0.3
v -352 -720 -0.3
v -368 -720 -0.3
v -368 -704 -0.3
v -352 -704 -0.3
v -368 -720 -0.3
v -384 -720 -0.3
v -384 -704 -0.3
v -368 -704 -0.3
v -384 -720 -0.3
v -400 -720 -0.3
v -400 -704 -0.3
v -384 -704 -0.3
v -400 -720 -0.3
v -416 -720 -0.3
v -416 -704 -0.3
v -400 -704 -0.3
v -416 -720 -0.3
v -432 -720 -0.3
v -432 -704 -0.3
v -416 -704 -0.3
v -432 -720 -0.3
v -448 -720 -0.3
v -448 -704 -0.3
v -432 -704 -0.3
v -448 -720 -0.3
v -464 -720 -0.3
v -464 -704 -0.3
v -448 -704 -0.3
v -464 -720 -0.3
v -480 -720 -0.3
v -480 -704 -0.3
v -464 -704 -0.3
v -480 -720 -0.3
v -496 -720 -0.3
v -496 -704 -0.3
v -480 -704 -0.3
v -496 -720 -0.3
v -512 -720 -0.3
v -512 -704 -0.3
v -496 -704 -0.3
v -512 -720 -0.3
v -528 -720 -0.3
v -528 -704 -0.3
v -512 -704 -0.3
v -528 -720 -0.3
v -544 -720 -0.3
v -544 -704 -0.3
v -528 -704 -0.3
v -544 -720 -0.3
v -560 -720 -0.3
v -560 -704 -0.3
v -544 -704 -0.3
v -560 -720 -0.3
v -576 -720 -0.3
v -576 -704 -0.3
v -560 -704 -0.3
v -576 -720 -0.3
v -592 -720 -0.3
v -592 -704 -0.3
v -576 -704 -0.3
v -592 -720 -0.3
v -608 -720 -0.3
v -608 -704 -0.3
v -592 -704 -0.3
v -608 -720 -0.3
v -624 -720 -0.3
v -624 -704 -0.3
v -608 -704 -0.3
v -624 -720 -0.3
v -640 -720 -0.3
v -640 -704 -0.3
v -624 -704 -0.3
v -640 -720 -0.3
v -656 -720 -0.3
v -656 -704 -0.3
v -640 -704 -0.3
v -656 -720 -0.3
v -672 -720 -0.3
v -672 -704 -0.3
v -656 -704 -0.3
v -672 -720 -0.3
v -688 -720 -0.3
v -688 -704 -0.3
v -672 -704 -0.3
v -304 -736 -0.3066667
v -320 -736 -0.3066667
v -320 -720 -0.3066667
v -304 -720 -0.3066667
v -320 -736 -0.3066667
v -336 -736 -0.3066667
v -336 -720 -0.3066667
v -320 -720 -0.3066667
v -336 -736 -0.3066667
v -352 -736 -0.3066667
v -352 -720 -0.3066667
v -336 -720 -0.3066667
v -352 -736 -0.3066667
v -368 -736 -0.3066667
v -368 -720 -0.3066667
v -352 -720 -0.3066667
v -368 -736 -0.3066667
v -384 -736 -0.3066667
v -384 -720 -0.3066667
v -368 -720 -0.3066667
v -384 -736 -0.3066667
v -400 -736 -0.3066667
v -400 -720 -0.3066667
v -384 -720 -0.3066667
v -400 -736 -0.3066667
v -416 -736 -0.3066667
v -416 -720 -0.3066667
v -400 -720 -0.3066667
v -416 -736 -0.3066667
v -432 -736 -0.3066667
v -432 -720 -0.3066667
v -416 -720 -0.3066667
v -432 -736 -0.3066667
v -448 -736 -0.3066667
v -448 -720 -0.3066667
v -432 -720 -0.3066667
v -448 -736 -0.3066667
v -464 -736 -0.3066667
v -464 -720 -0.3066667
v -448 -720 -0.3066667
v -464 -736 -0.3066667
v -480 -736 -0.3066667
v -480 -720 -0.3066667
v -464 -720 -0.3066667
v -480 -736 -0.3066667
v -496 -736 -0.3066667
v -496 -720 -0.3066667
v -480 -720 -0.3066667
v -496 -736 -0.3066667
v -512 -736 -0.3066667
v -512 -720 -0.3066667
v -496 -720 -0.3066667
v -512 -736 -0.3066667
v -528 -736 -0.3066667
v -528 -720 -0.3066667
v -512 -720 -0.3066667
v -528 -736 -0.3066667
v -544 -736 -0.3066667
v -544 -720 -0.3066667
v -528 -720 -0.3066667
v -544 -736 -0.3066667
v -560 -736 -0.3066667
v -560 -720 -0.3066667
v -544 -720 -0.3066667
v -560 -736 -0.3066667
v -576 -736 -0.3066667
v -576 -720 -0.3066667
v -560 -720 -0.3066667
v -576 -736 -0.3066667
v -592 -736 -0.3066667
v -592 -720 -0.3066667
v -576 -720 -0.3066667
v -592 -736 -0.3066667
v -608 -736 -0.3066667
v -608 -720 -0.3066667
v -592 -720 -0.3066667
v -608 -736 -0.3066667
v -624 -736 -0.3066667
v -624 -720 -0.3066667
v -608 -720 -0.3066667
v -624 -736 -0.3066667
v -640 -736 -0.3066667
v -640 -720 -0.3066667
v -624 -720 -0.3066667
v -640 -736 -0.3066667
v -656 -736 -0.3066667
v -656 -720 -0.3066667
v -640 -720 -0.3066667
v -656 -736 -0.3066667
v -672 -736 -0.3066667
v -672 -720 -0.3066667
v -656 -720 -0.3066667
v -672 -736 -0.3066667
v -688 -736 -0.3066667
v -688 -720 -0.3066667
v -672 -720 -0.3066667

# Texture cooridinates (Count = 35)
vt 0 0.3333333
vt 0.1666667 0.3333333
vt 0.1666667 0.4166667
vt 0 0.4166667
vt 0.3333333 0.3333333
vt 0.3333333 0.4166667
vt 0.5 0.3333333
vt 0.5 0.4166667
vt 0.6666667 0.3333333
vt 0.6666667 0.4166667
vt 0.8333333 0.3333333
vt 0.8333333 0.4166667
vt 1 0.3333333
vt 1 0.4166667
vt 0 0.25
vt 0.1666667 0.25
vt 0.3333333 0.25
vt 0.5 0.25
vt 0.6666667 0.25
vt 0.8333333 0.25
vt 1 0.25
vt 0 0.1666667
vt 0.1666667 0.1666667
vt 0.3333333 0.1666667
vt 0.5 0.1666667
vt 0.6666667 0.1666667
vt 0.8333333 0.1666667
vt 1 0.1666667
vt 0 0.08333331
vt 0.1666667 0.08333331
vt 0.3333333 0.08333331
vt 0.5 0.08333331
vt 0.6666667 0.08333331
vt 0.8333333 0.08333331
vt 1 0.08333331

# Normal
vn 0 0 -1

# Mesh description
g WorldMapV1_mesh_0037

# Faces
f 1/1/1 2/2/1 3/3/1 4/4/1
f 5/2/1 6/5/1 7/6/1 8/3/1
f 9/5/1 10/7/1 11/8/1 12/6/1
f 13/7/1 14/9/1 15/10/1 16/8/1
f 17/2/1 18/5/1 19/6/1 20/3/1
f 21/2/1 22/5/1 23/6/1 24/3/1
f 25/2/1 26/5/1 27/6/1 28/3/1
f 29/2/1 30/5/1 31/6/1 32/3/1
f 33/2/1 34/5/1 35/6/1 36/3/1
f 37/2/1 38/5/1 39/6/1 40/3/1
f 41/2/1 42/5/1 43/6/1 44/3/1
f 45/2/1 46/5/1 47/6/1 48/3/1
f 49/2/1 50/5/1 51/6/1 52/3/1
f 53/2/1 54/5/1 55/6/1 56/3/1
f 57/2/1 58/5/1 59/6/1 60/3/1
f 61/2/1 62/5/1 63/6/1 64/3/1
f 65/2/1 66/5/1 67/6/1 68/3/1
f 69/2/1 70/5/1 71/6/1 72/3/1
f 73/2/1 74/5/1 75/6/1 76/3/1
f 77/2/1 78/5/1 79/6/1 80/3/1
f 81/5/1 82/7/1 83/8/1 84/6/1
f 85/7/1 86/9/1 87/10/1 88/8/1
f 89/9/1 90/11/1 91/12/1 92/10/1
f 93/11/1 94/13/1 95/14/1 96/12/1
f 97/15/1 98/16/1 99/2/1 100/1/1
f 101/16/1 102/17/1 103/5/1 104/2/1
f 105/17/1 106/18/1 107/7/1 108/5/1
f 109/18/1 110/19/1 111/9/1 112/7/1
f 113/16/1 114/17/1 115/5/1 116/2/1
f 117/16/1 118/17/1 119/5/1 120/2/1
f 121/16/1 122/17/1 123/5/1 124/2/1
f 125/16/1 126/17/1 127/5/1 128/2/1
f 129/16/1 130/17/1 131/5/1 132/2/1
f 133/16/1 134/17/1 135/5/1 136/2/1
f 137/16/1 138/17/1 139/5/1 140/2/1
f 141/16/1 142/17/1 143/5/1 144/2/1
f 145/16/1 146/17/1 147/5/1 148/2/1
f 149/16/1 150/17/1 151/5/1 152/2/1
f 153/16/1 154/17/1 155/5/1 156/2/1
f 157/16/1 158/17/1 159/5/1 160/2/1
f 161/16/1 162/17/1 163/5/1 164/2/1
f 165/16/1 166/17/1 167/5/1 168/2/1
f 169/16/1 170/17/1 171/5/1 172/2/1
f 173/16/1 174/17/1 175/5/1 176/2/1
f 177/17/1 178/18/1 179/7/1 180/5/1
f 181/18/1 182/19/1 183/9/1 184/7/1
f 185/19/1 186/20/1 187/11/1 188/9/1
f 189/20/1 190/21/1 191/13/1 192/11/1
f 193/22/1 194/23/1 195/16/1 196/15/1
f 197/23/1 198/24/1 199/17/1 200/16/1
f 201/24/1 202/25/1 203/18/1 204/17/1
f 205/25/1 206/26/1 207/19/1 208/18/1
f 209/23/1 210/24/1 211/17/1 212/16/1
f 213/23/1 214/24/1 215/17/1 216/16/1
f 217/23/1 218/24/1 219/17/1 220/16/1
f 221/23/1 222/24/1 223/17/1 224/16/1
f 225/23/1 226/24/1 227/17/1 228/16/1
f 229/23/1 230/24/1 231/17/1 232/16/1
f 233/23/1 234/24/1 235/17/1 236/16/1
f 237/23/1 238/24/1 239/17/1 240/16/1
f 241/23/1 242/24/1 243/17/1 244/16/1
f 245/23/1 246/24/1 247/17/1 248/16/1
f 249/23/1 250/24/1 251/17/1 252/16/1
f 253/23/1 254/24/1 255/17/1 256/16/1
f 257/23/1 258/24/1 259/17/1 260/16/1
f 261/23/1 262/24/1 263/17/1 264/16/1
f 265/23/1 266/24/1 267/17/1 268/16/1
f 269/23/1 270/24/1 271/17/1 272/16/1
f 273/24/1 274/25/1 275/18/1 276/17/1
f 277/25/1 278/26/1 279/19/1 280/18/1
f 281/26/1 282/27/1 283/20/1 284/19/1
f 285/27/1 286/28/1 287/21/1 288/20/1
f 289/29/1 290/30/1 291/23/1 292/22/1
f 293/30/1 294/31/1 295/24/1 296/23/1
f 297/31/1 298/32/1 299/25/1 300/24/1
f 301/32/1 302/33/1 303/26/1 304/25/1
f 305/30/1 306/31/1 307/24/1 308/23/1
f 309/30/1 310/31/1 311/24/1 312/23/1
f 313/30/1 314/31/1 315/24/1 316/23/1
f 317/30/1 318/31/1 319/24/1 320/23/1
f 321/30/1 322/31/1 323/24/1 324/23/1
f 325/30/1 326/31/1 327/24/1 328/23/1
f 329/30/1 330/31/1 331/24/1 332/23/1
f 333/30/1 334/31/1 335/24/1 336/23/1
f 337/30/1 338/31/1 339/24/1 340/23/1
f 341/30/1 342/31/1 343/24/1 344/23/1
f 345/30/1 346/31/1 347/24/1 348/23/1
f 349/30/1 350/31/1 351/24/1 352/23/1
f 353/30/1 354/31/1 355/24/1 356/23/1
f 357/30/1 358/31/1 359/24/1 360/23/1
f 361/30/1 362/31/1 363/24/1 364/23/1
f 365/30/1 366/31/1 367/24/1 368/23/1
f 369/31/1 370/32/1 371/25/1 372/24/1
f 373/32/1 374/33/1 375/26/1 376/25/1
f 377/33/1 378/34/1 379/27/1 380/26/1
f 381/34/1 382/35/1 383/28/1 384/27/1
f 385/22/1 386/23/1 387/16/1 388/15/1
f 389/23/1 390/24/1 391/17/1 392/16/1
f 393/24/1 394/25/1 395/18/1 396/17/1
f 397/25/1 398/26/1 399/19/1 400/18/1
f 401/26/1 402/27/1 403/20/1 404/19/1
f 405/24/1 406/25/1 407/18/1 408/17/1
f 409/23/1 410/24/1 411/17/1 412/16/1
f 413/23/1 414/24/1 415/17/1 416/16/1
f 417/24/1 418/25/1 419/18/1 420/17/1
f 421/25/1 422/26/1 423/19/1 424/18/1
f 425/23/1 426/24/1 427/17/1 428/16/1
f 429/24/1 430/25/1 431/18/1 432/17/1
f 433/23/1 434/24/1 435/17/1 436/16/1
f 437/24/1 438/25/1 439/18/1 440/17/1
f 441/25/1 442/26/1 443/19/1 444/18/1
f 445/26/1 446/27/1 447/20/1 448/19/1
f 449/23/1 450/24/1 451/17/1 452/16/1
f 453/24/1 454/25/1 455/18/1 456/17/1
f 457/25/1 458/26/1 459/19/1 460/18/1
f 461/23/1 462/24/1 463/17/1 464/16/1
f 465/24/1 466/25/1 467/18/1 468/17/1
f 469/25/1 470/26/1 471/19/1 472/18/1
f 473/26/1 474/27/1 475/20/1 476/19/1
f 477/27/1 478/28/1 479/21/1 480/20/1
f 481/29/1 482/30/1 483/23/1 484/22/1
f 485/30/1 486/31/1 487/24/1 488/23/1
f 489/31/1 490/32/1 491/25/1 492/24/1
f 493/32/1 494/33/1 495/26/1 496/25/1
f 497/33/1 498/34/1 499/27/1 500/26/1
f 501/31/1 502/32/1 503/25/1 504/24/1
f 505/30/1 506/31/1 507/24/1 508/23/1
f 509/30/1 510/31/1 511/24/1 512/23/1
f 513/31/1 514/32/1 515/25/1 516/24/1
f 517/32/1 518/33/1 519/26/1 520/25/1
f 521/30/1 522/31/1 523/24/1 524/23/1
f 525/31/1 526/32/1 527/25/1 528/24/1
f 529/30/1 530/31/1 531/24/1 532/23/1
f 533/31/1 534/32/1 535/25/1 536/24/1
f 537/32/1 538/33/1 539/26/1 540/25/1
f 541/33/1 542/34/1 543/27/1 544/26/1
f 545/30/1 546/31/1 547/24/1 548/23/1
f 549/31/1 550/32/1 551/25/1 552/24/1
f 553/32/1 554/33/1 555/26/1 556/25/1
f 557/30/1 558/31/1 559/24/1 560/23/1
f 561/31/1 562/32/1 563/25/1 564/24/1
f 565/32/1 566/33/1 567/26/1 568/25/1
f 569/33/1 570/34/1 571/27/1 572/26/1
f 573/34/1 574/35/1 575/28/1 576/27/1

