# Tiled2Unity generated file. Do not modify by hand.
# Wavefront file for 'WorldMapV1_mesh_0043.obj'

# Vertices (Count = 72)
v -1920 -64 -0.02666667
v -1936 -64 -0.02666667
v -1936 -48 -0.02666667
v -1920 -48 -0.02666667
v -1936 -64 -0.02666667
v -1952 -64 -0.02666667
v -1952 -48 -0.02666667
v -1936 -48 -0.02666667
v -1952 -64 -0.02666667
v -1968 -64 -0.02666667
v -1968 -48 -0.02666667
v -1952 -48 -0.02666667
v -1920 -80 -0.03333334
v -1936 -80 -0.03333334
v -1936 -64 -0.03333334
v -1920 -64 -0.03333334
v -1936 -80 -0.03333334
v -1952 -80 -0.03333334
v -1952 -64 -0.03333334
v -1936 -64 -0.03333334
v -1952 -80 -0.03333334
v -1968 -80 -0.03333334
v -1968 -64 -0.03333334
v -1952 -64 -0.03333334
v -1920 -96 -0.04
v -1936 -96 -0.04
v -1936 -80 -0.04
v -1920 -80 -0.04
v -1936 -96 -0.04
v -1952 -96 -0.04
v -1952 -80 -0.04
v -1936 -80 -0.04
v -1952 -96 -0.04
v -1968 -96 -0.04
v -1968 -80 -0.04
v -1952 -80 -0.04
v -1920 -112 -0.04666667
v -1936 -112 -0.04666667
v -1936 -96 -0.04666667
v -1920 -96 -0.04666667
v -1936 -112 -0.04666667
v -1952 -112 -0.04666667
v -1952 -96 -0.04666667
v -1936 -96 -0.04666667
v -1952 -112 -0.04666667
v -1968 -112 -0.04666667
v -1968 -96 -0.04666667
v -1952 -96 -0.04666667
v -1920 -128 -0.05333333
v -1936 -128 -0.05333333
v -1936 -112 -0.05333333
v -1920 -112 -0.05333333
v -1936 -128 -0.05333333
v -1952 -128 -0.05333333
v -1952 -112 -0.05333333
v -1936 -112 -0.05333333
v -1952 -128 -0.05333333
v -1968 -128 -0.05333333
v -1968 -112 -0.05333333
v -1952 -112 -0.05333333
v -1920 -144 -0.06
v -1936 -144 -0.06
v -1936 -128 -0.06
v -1920 -128 -0.06
v -1936 -144 -0.06
v -1952 -144 -0.06
v -1952 -128 -0.06
v -1936 -128 -0.06
v -1952 -144 -0.06
v -1968 -144 -0.06
v -1968 -128 -0.06
v -1952 -128 -0.06

# Texture cooridinates (Count = 16)
vt 0.7 0.8
vt 0.75 0.8
vt 0.75 0.85
vt 0.7 0.85
vt 0.8 0.8
vt 0.8 0.85
vt 0.85 0.8
vt 0.85 0.85
vt 0.7 0.75
vt 0.75 0.75
vt 0.8 0.75
vt 0.85 0.75
vt 0.7 0.7
vt 0.75 0.7
vt 0.8 0.7
vt 0.85 0.7

# Normal
vn 0 0 -1

# Mesh description
g WorldMapV1_mesh_0043

# Faces
f 1/1/1 2/2/1 3/3/1 4/4/1
f 5/2/1 6/5/1 7/6/1 8/3/1
f 9/5/1 10/7/1 11/8/1 12/6/1
f 13/9/1 14/10/1 15/2/1 16/1/1
f 17/10/1 18/11/1 19/5/1 20/2/1
f 21/11/1 22/12/1 23/7/1 24/5/1
f 25/1/1 26/2/1 27/3/1 28/4/1
f 29/2/1 30/5/1 31/6/1 32/3/1
f 33/5/1 34/7/1 35/8/1 36/6/1
f 37/1/1 38/2/1 39/3/1 40/4/1
f 41/2/1 42/5/1 43/6/1 44/3/1
f 45/5/1 46/7/1 47/8/1 48/6/1
f 49/9/1 50/10/1 51/2/1 52/1/1
f 53/10/1 54/11/1 55/5/1 56/2/1
f 57/11/1 58/12/1 59/7/1 60/5/1
f 61/13/1 62/14/1 63/10/1 64/9/1
f 65/14/1 66/15/1 67/11/1 68/10/1
f 69/15/1 70/16/1 71/12/1 72/11/1

