# Tiled2Unity generated file. Do not modify by hand.
# Wavefront file for 'WorldMapV1_mesh_0003.obj'

# Vertices (Count = 200)
v -1600 -400 -0.1666667
v -1616 -400 -0.1666667
v -1616 -384 -0.1666667
v -1600 -384 -0.1666667
v -1600 -416 -0.1733333
v -1616 -416 -0.1733333
v -1616 -400 -0.1733333
v -1600 -400 -0.1733333
v -1440 -720 -0.3
v -1456 -720 -0.3
v -1456 -704 -0.3
v -1440 -704 -0.3
v -1456 -720 -0.3
v -1472 -720 -0.3
v -1472 -704 -0.3
v -1456 -704 -0.3
v -1472 -720 -0.3
v -1488 -720 -0.3
v -1488 -704 -0.3
v -1472 -704 -0.3
v -1488 -720 -0.3
v -1504 -720 -0.3
v -1504 -704 -0.3
v -1488 -704 -0.3
v -1440 -736 -0.3066667
v -1456 -736 -0.3066667
v -1456 -720 -0.3066667
v -1440 -720 -0.3066667
v -1488 -736 -0.3066667
v -1504 -736 -0.3066667
v -1504 -720 -0.3066667
v -1488 -720 -0.3066667
v -1504 -736 -0.3066667
v -1520 -736 -0.3066667
v -1520 -720 -0.3066667
v -1504 -720 -0.3066667
v -1520 -736 -0.3066667
v -1536 -736 -0.3066667
v -1536 -720 -0.3066667
v -1520 -720 -0.3066667
v -1440 -752 -0.3133333
v -1456 -752 -0.3133333
v -1456 -736 -0.3133333
v -1440 -736 -0.3133333
v -1456 -752 -0.3133333
v -1472 -752 -0.3133333
v -1472 -736 -0.3133333
v -1456 -736 -0.3133333
v -1472 -752 -0.3133333
v -1488 -752 -0.3133333
v -1488 -736 -0.3133333
v -1472 -736 -0.3133333
v -1488 -752 -0.3133333
v -1504 -752 -0.3133333
v -1504 -736 -0.3133333
v -1488 -736 -0.3133333
v -1504 -752 -0.3133333
v -1520 -752 -0.3133333
v -1520 -736 -0.3133333
v -1504 -736 -0.3133333
v -1520 -752 -0.3133333
v -1536 -752 -0.3133333
v -1536 -736 -0.3133333
v -1520 -736 -0.3133333
v -1536 -752 -0.3133333
v -1552 -752 -0.3133333
v -1552 -736 -0.3133333
v -1536 -736 -0.3133333
v -1440 -768 -0.32
v -1456 -768 -0.32
v -1456 -752 -0.32
v -1440 -752 -0.32
v -1456 -768 -0.32
v -1472 -768 -0.32
v -1472 -752 -0.32
v -1456 -752 -0.32
v -1472 -768 -0.32
v -1488 -768 -0.32
v -1488 -752 -0.32
v -1472 -752 -0.32
v -1488 -768 -0.32
v -1504 -768 -0.32
v -1504 -752 -0.32
v -1488 -752 -0.32
v -1504 -768 -0.32
v -1520 -768 -0.32
v -1520 -752 -0.32
v -1504 -752 -0.32
v -1520 -768 -0.32
v -1536 -768 -0.32
v -1536 -752 -0.32
v -1520 -752 -0.32
v -1536 -768 -0.32
v -1552 -768 -0.32
v -1552 -752 -0.32
v -1536 -752 -0.32
v -1552 -768 -0.32
v -1568 -768 -0.32
v -1568 -752 -0.32
v -1552 -752 -0.32
v -1456 -784 -0.3266667
v -1472 -784 -0.3266667
v -1472 -768 -0.3266667
v -1456 -768 -0.3266667
v -1536 -784 -0.3266667
v -1552 -784 -0.3266667
v -1552 -768 -0.3266667
v -1536 -768 -0.3266667
v -1552 -784 -0.3266667
v -1568 -784 -0.3266667
v -1568 -768 -0.3266667
v -1552 -768 -0.3266667
v -1568 -784 -0.3266667
v -1584 -784 -0.3266667
v -1584 -768 -0.3266667
v -1568 -768 -0.3266667
v -1456 -800 -0.3333333
v -1472 -800 -0.3333333
v -1472 -784 -0.3333333
v -1456 -784 -0.3333333
v -1472 -800 -0.3333333
v -1488 -800 -0.3333333
v -1488 -784 -0.3333333
v -1472 -784 -0.3333333
v -1488 -800 -0.3333333
v -1504 -800 -0.3333333
v -1504 -784 -0.3333333
v -1488 -784 -0.3333333
v -1504 -800 -0.3333333
v -1520 -800 -0.3333333
v -1520 -784 -0.3333333
v -1504 -784 -0.3333333
v -1520 -800 -0.3333333
v -1536 -800 -0.3333333
v -1536 -784 -0.3333333
v -1520 -784 -0.3333333
v -1536 -800 -0.3333333
v -1552 -800 -0.3333333
v -1552 -784 -0.3333333
v -1536 -784 -0.3333333
v -1552 -800 -0.3333333
v -1568 -800 -0.3333333
v -1568 -784 -0.3333333
v -1552 -784 -0.3333333
v -1568 -800 -0.3333333
v -1584 -800 -0.3333333
v -1584 -784 -0.3333333
v -1568 -784 -0.3333333
v -1888 -1936 -0.8066667
v -1904 -1936 -0.8066667
v -1904 -1920 -0.8066667
v -1888 -1920 -0.8066667
v -1904 -1936 -0.8066667
v -1920 -1936 -0.8066667
v -1920 -1920 -0.8066667
v -1904 -1920 -0.8066667
v -1920 -1936 -0.8066667
v -1936 -1936 -0.8066667
v -1936 -1920 -0.8066667
v -1920 -1920 -0.8066667
v -1936 -1936 -0.8066667
v -1952 -1936 -0.8066667
v -1952 -1920 -0.8066667
v -1936 -1920 -0.8066667
v -1952 -1936 -0.8066667
v -1968 -1936 -0.8066667
v -1968 -1920 -0.8066667
v -1952 -1920 -0.8066667
v -1968 -1936 -0.8066667
v -1984 -1936 -0.8066667
v -1984 -1920 -0.8066667
v -1968 -1920 -0.8066667
v -1984 -1936 -0.8066667
v -2000 -1936 -0.8066667
v -2000 -1920 -0.8066667
v -1984 -1920 -0.8066667
v -2000 -1936 -0.8066667
v -2016 -1936 -0.8066667
v -2016 -1920 -0.8066667
v -2000 -1920 -0.8066667
v -1872 -1952 -0.8133333
v -1888 -1952 -0.8133333
v -1888 -1936 -0.8133333
v -1872 -1936 -0.8133333
v -1888 -1952 -0.8133333
v -1904 -1952 -0.8133333
v -1904 -1936 -0.8133333
v -1888 -1936 -0.8133333
v -1904 -1952 -0.8133333
v -1920 -1952 -0.8133333
v -1920 -1936 -0.8133333
v -1904 -1936 -0.8133333
v -1904 -1968 -0.82
v -1920 -1968 -0.82
v -1920 -1952 -0.82
v -1904 -1952 -0.82
v -1920 -1968 -0.82
v -1936 -1968 -0.82
v -1936 -1952 -0.82
v -1920 -1952 -0.82

# Texture cooridinates (Count = 13)
vt 0.6666667 0.9166667
vt 0.8333333 0.9166667
vt 0.8333333 1
vt 0.6666667 1
vt 0.3333333 0.4166667
vt 0.5 0.4166667
vt 0.5 0.5
vt 0.3333333 0.5
vt 0.3333333 0.3333333
vt 0.5 0.3333333
vt 0.6666667 0.4166667
vt 0.6666667 0.5
vt 0.6666667 0.3333333

# Normal
vn 0 0 -1

# Mesh description
g WorldMapV1_mesh_0003

# Faces
f 1/1/1 2/2/1 3/3/1 4/4/1
f 5/1/1 6/2/1 7/3/1 8/4/1
f 9/5/1 10/6/1 11/7/1 12/8/1
f 13/9/1 14/10/1 15/6/1 16/5/1
f 17/5/1 18/6/1 19/7/1 20/8/1
f 21/5/1 22/6/1 23/7/1 24/8/1
f 25/5/1 26/6/1 27/7/1 28/8/1
f 29/6/1 30/11/1 31/12/1 32/7/1
f 33/6/1 34/11/1 35/12/1 36/7/1
f 37/6/1 38/11/1 39/12/1 40/7/1
f 41/10/1 42/13/1 43/11/1 44/6/1
f 45/9/1 46/10/1 47/6/1 48/5/1
f 49/9/1 50/10/1 51/6/1 52/5/1
f 53/6/1 54/11/1 55/12/1 56/7/1
f 57/5/1 58/6/1 59/7/1 60/8/1
f 61/10/1 62/13/1 63/11/1 64/6/1
f 65/10/1 66/13/1 67/11/1 68/6/1
f 69/10/1 70/13/1 71/11/1 72/6/1
f 73/9/1 74/10/1 75/6/1 76/5/1
f 77/5/1 78/6/1 79/7/1 80/8/1
f 81/10/1 82/13/1 83/11/1 84/6/1
f 85/10/1 86/13/1 87/11/1 88/6/1
f 89/6/1 90/11/1 91/12/1 92/7/1
f 93/5/1 94/6/1 95/7/1 96/8/1
f 97/6/1 98/11/1 99/12/1 100/7/1
f 101/10/1 102/13/1 103/11/1 104/6/1
f 105/10/1 106/13/1 107/11/1 108/6/1
f 109/6/1 110/11/1 111/12/1 112/7/1
f 113/9/1 114/10/1 115/6/1 116/5/1
f 117/5/1 118/6/1 119/7/1 120/8/1
f 121/10/1 122/13/1 123/11/1 124/6/1
f 125/9/1 126/10/1 127/6/1 128/5/1
f 129/5/1 130/6/1 131/7/1 132/8/1
f 133/10/1 134/13/1 135/11/1 136/6/1
f 137/6/1 138/11/1 139/12/1 140/7/1
f 141/10/1 142/13/1 143/11/1 144/6/1
f 145/10/1 146/13/1 147/11/1 148/6/1
f 149/9/1 150/10/1 151/6/1 152/5/1
f 153/9/1 154/10/1 155/6/1 156/5/1
f 157/9/1 158/10/1 159/6/1 160/5/1
f 161/6/1 162/11/1 163/12/1 164/7/1
f 165/10/1 166/13/1 167/11/1 168/6/1
f 169/9/1 170/10/1 171/6/1 172/5/1
f 173/10/1 174/13/1 175/11/1 176/6/1
f 177/6/1 178/11/1 179/12/1 180/7/1
f 181/5/1 182/6/1 183/7/1 184/8/1
f 185/10/1 186/13/1 187/11/1 188/6/1
f 189/5/1 190/6/1 191/7/1 192/8/1
f 193/6/1 194/11/1 195/12/1 196/7/1
f 197/10/1 198/13/1 199/11/1 200/6/1

