# Tiled2Unity generated file. Do not modify by hand.
# Wavefront file for 'WorldMapV1_mesh_0067.obj'

# Vertices (Count = 12)
v -128 -752 -0.3133333
v -144 -752 -0.3133333
v -144 -736 -0.3133333
v -128 -736 -0.3133333
v -1312 -1568 -0.6533333
v -1328 -1568 -0.6533333
v -1328 -1552 -0.6533333
v -1312 -1552 -0.6533333
v -2192 -1568 -0.6533333
v -2208 -1568 -0.6533333
v -2208 -1552 -0.6533333
v -2192 -1552 -0.6533333

# Texture cooridinates (Count = 8)
vt 0.75 0
vt 0.875 0
vt 0.875 0.1666667
vt 0.75 0.1666667
vt 0.5 0
vt 0.625 0
vt 0.625 0.1666667
vt 0.5 0.1666667

# Normal
vn 0 0 -1

# Mesh description
g WorldMapV1_mesh_0067

# Faces
f 1/1/1 2/2/1 3/3/1 4/4/1
f 5/5/1 6/6/1 7/7/1 8/8/1
f 9/6/1 10/1/1 11/4/1 12/7/1

