# Tiled2Unity generated file. Do not modify by hand.
# Wavefront file for 'WorldMapV1_mesh_0065.obj'

# Vertices (Count = 64)
v -1600 -512 -0.2133333
v -1616 -512 -0.2133333
v -1616 -496 -0.2133333
v -1600 -496 -0.2133333
v -1616 -512 -0.2133333
v -1632 -512 -0.2133333
v -1632 -496 -0.2133333
v -1616 -496 -0.2133333
v -1856 -512 -0.2133333
v -1872 -512 -0.2133333
v -1872 -496 -0.2133333
v -1856 -496 -0.2133333
v -1872 -512 -0.2133333
v -1888 -512 -0.2133333
v -1888 -496 -0.2133333
v -1872 -496 -0.2133333
v -1600 -528 -0.22
v -1616 -528 -0.22
v -1616 -512 -0.22
v -1600 -512 -0.22
v -1616 -528 -0.22
v -1632 -528 -0.22
v -1632 -512 -0.22
v -1616 -512 -0.22
v -1856 -528 -0.22
v -1872 -528 -0.22
v -1872 -512 -0.22
v -1856 -512 -0.22
v -1872 -528 -0.22
v -1888 -528 -0.22
v -1888 -512 -0.22
v -1872 -512 -0.22
v -1600 -544 -0.2266667
v -1616 -544 -0.2266667
v -1616 -528 -0.2266667
v -1600 -528 -0.2266667
v -1616 -544 -0.2266667
v -1632 -544 -0.2266667
v -1632 -528 -0.2266667
v -1616 -528 -0.2266667
v -1856 -544 -0.2266667
v -1872 -544 -0.2266667
v -1872 -528 -0.2266667
v -1856 -528 -0.2266667
v -1872 -544 -0.2266667
v -1888 -544 -0.2266667
v -1888 -528 -0.2266667
v -1872 -528 -0.2266667
v -1600 -560 -0.2333333
v -1616 -560 -0.2333333
v -1616 -544 -0.2333333
v -1600 -544 -0.2333333
v -1616 -560 -0.2333333
v -1632 -560 -0.2333333
v -1632 -544 -0.2333333
v -1616 -544 -0.2333333
v -1856 -560 -0.2333333
v -1872 -560 -0.2333333
v -1872 -544 -0.2333333
v -1856 -544 -0.2333333
v -1872 -560 -0.2333333
v -1888 -560 -0.2333333
v -1888 -544 -0.2333333
v -1872 -544 -0.2333333

# Texture cooridinates (Count = 15)
vt 0.4 0.875
vt 0.5 0.875
vt 0.5 1
vt 0.4 1
vt 0.6 0.875
vt 0.6 1
vt 0.4 0.75
vt 0.5 0.75
vt 0.6 0.75
vt 0.4 0.625
vt 0.5 0.625
vt 0.6 0.625
vt 0.4 0.5
vt 0.5 0.5
vt 0.6 0.5

# Normal
vn 0 0 -1

# Mesh description
g WorldMapV1_mesh_0065

# Faces
f 1/1/1 2/2/1 3/3/1 4/4/1
f 5/2/1 6/5/1 7/6/1 8/3/1
f 9/1/1 10/2/1 11/3/1 12/4/1
f 13/2/1 14/5/1 15/6/1 16/3/1
f 17/7/1 18/8/1 19/2/1 20/1/1
f 21/8/1 22/9/1 23/5/1 24/2/1
f 25/7/1 26/8/1 27/2/1 28/1/1
f 29/8/1 30/9/1 31/5/1 32/2/1
f 33/10/1 34/11/1 35/8/1 36/7/1
f 37/11/1 38/12/1 39/9/1 40/8/1
f 41/10/1 42/11/1 43/8/1 44/7/1
f 45/11/1 46/12/1 47/9/1 48/8/1
f 49/13/1 50/14/1 51/11/1 52/10/1
f 53/14/1 54/15/1 55/12/1 56/11/1
f 57/13/1 58/14/1 59/11/1 60/10/1
f 61/14/1 62/15/1 63/12/1 64/11/1

