# Tiled2Unity generated file. Do not modify by hand.
# Wavefront file for 'WorldMapV1_mesh_0011.obj'

# Vertices (Count = 112)
v -1936 -2192 -0.9133334
v -1952 -2192 -0.9133334
v -1952 -2176 -0.9133334
v -1936 -2176 -0.9133334
v -1952 -2192 -0.9133334
v -1968 -2192 -0.9133334
v -1968 -2176 -0.9133334
v -1952 -2176 -0.9133334
v -1968 -2192 -0.9133334
v -1984 -2192 -0.9133334
v -1984 -2176 -0.9133334
v -1968 -2176 -0.9133334
v -1984 -2192 -0.9133334
v -2000 -2192 -0.9133334
v -2000 -2176 -0.9133334
v -1984 -2176 -0.9133334
v -2000 -2192 -0.9133334
v -2016 -2192 -0.9133334
v -2016 -2176 -0.9133334
v -2000 -2176 -0.9133334
v -2016 -2192 -0.9133334
v -2032 -2192 -0.9133334
v -2032 -2176 -0.9133334
v -2016 -2176 -0.9133334
v -1936 -2208 -0.92
v -1952 -2208 -0.92
v -1952 -2192 -0.92
v -1936 -2192 -0.92
v -1968 -2304 -0.96
v -1984 -2304 -0.96
v -1984 -2288 -0.96
v -1968 -2288 -0.96
v -1968 -2320 -0.9666666
v -1984 -2320 -0.9666666
v -1984 -2304 -0.9666666
v -1968 -2304 -0.9666666
v -1952 -2336 -0.9733334
v -1968 -2336 -0.9733334
v -1968 -2320 -0.9733334
v -1952 -2320 -0.9733334
v -1968 -2336 -0.9733334
v -1984 -2336 -0.9733334
v -1984 -2320 -0.9733334
v -1968 -2320 -0.9733334
v -1920 -2352 -0.98
v -1936 -2352 -0.98
v -1936 -2336 -0.98
v -1920 -2336 -0.98
v -1936 -2352 -0.98
v -1952 -2352 -0.98
v -1952 -2336 -0.98
v -1936 -2336 -0.98
v -1952 -2352 -0.98
v -1968 -2352 -0.98
v -1968 -2336 -0.98
v -1952 -2336 -0.98
v -1968 -2352 -0.98
v -1984 -2352 -0.98
v -1984 -2336 -0.98
v -1968 -2336 -0.98
v -1920 -2368 -0.9866667
v -1936 -2368 -0.9866667
v -1936 -2352 -0.9866667
v -1920 -2352 -0.9866667
v -1936 -2368 -0.9866667
v -1952 -2368 -0.9866667
v -1952 -2352 -0.9866667
v -1936 -2352 -0.9866667
v -1952 -2368 -0.9866667
v -1968 -2368 -0.9866667
v -1968 -2352 -0.9866667
v -1952 -2352 -0.9866667
v -1968 -2368 -0.9866667
v -1984 -2368 -0.9866667
v -1984 -2352 -0.9866667
v -1968 -2352 -0.9866667
v -1920 -2384 -0.9933333
v -1936 -2384 -0.9933333
v -1936 -2368 -0.9933333
v -1920 -2368 -0.9933333
v -1936 -2384 -0.9933333
v -1952 -2384 -0.9933333
v -1952 -2368 -0.9933333
v -1936 -2368 -0.9933333
v -1952 -2384 -0.9933333
v -1968 -2384 -0.9933333
v -1968 -2368 -0.9933333
v -1952 -2368 -0.9933333
v -1968 -2384 -0.9933333
v -1984 -2384 -0.9933333
v -1984 -2368 -0.9933333
v -1968 -2368 -0.9933333
v -1904 -2400 -1
v -1920 -2400 -1
v -1920 -2384 -1
v -1904 -2384 -1
v -1920 -2400 -1
v -1936 -2400 -1
v -1936 -2384 -1
v -1920 -2384 -1
v -1936 -2400 -1
v -1952 -2400 -1
v -1952 -2384 -1
v -1936 -2384 -1
v -1952 -2400 -1
v -1968 -2400 -1
v -1968 -2384 -1
v -1952 -2384 -1
v -1968 -2400 -1
v -1984 -2400 -1
v -1984 -2384 -1
v -1968 -2384 -1

# Texture cooridinates (Count = 21)
vt 0.05882353 0.4210526
vt 0.1176471 0.4210526
vt 0.1176471 0.4736842
vt 0.05882353 0.4736842
vt 0 0.1578947
vt 0.05882353 0.1578947
vt 0.05882353 0.2105263
vt 0 0.2105263
vt 0 0.1052632
vt 0.05882353 0.1052632
vt 0.2941177 0.1052632
vt 0.3529412 0.1052632
vt 0.3529412 0.1578947
vt 0.2941177 0.1578947
vt 0.1176471 0.1578947
vt 0.1176471 0.2105263
vt 0.1176471 0.1052632
vt 0.1764706 0.1052632
vt 0.1764706 0.1578947
vt 0.05882353 0.05263156
vt 0.1176471 0.05263156

# Normal
vn 0 0 -1

# Mesh description
g WorldMapV1_mesh_0011

# Faces
f 1/1/1 2/2/1 3/3/1 4/4/1
f 5/1/1 6/2/1 7/3/1 8/4/1
f 9/1/1 10/2/1 11/3/1 12/4/1
f 13/1/1 14/2/1 15/3/1 16/4/1
f 17/1/1 18/2/1 19/3/1 20/4/1
f 21/1/1 22/2/1 23/3/1 24/4/1
f 25/1/1 26/2/1 27/3/1 28/4/1
f 29/5/1 30/6/1 31/7/1 32/8/1
f 33/9/1 34/10/1 35/6/1 36/5/1
f 37/5/1 38/6/1 39/7/1 40/8/1
f 41/11/1 42/12/1 43/13/1 44/14/1
f 45/5/1 46/6/1 47/7/1 48/8/1
f 49/6/1 50/15/1 51/16/1 52/7/1
f 53/11/1 54/12/1 55/13/1 56/14/1
f 57/17/1 58/18/1 59/19/1 60/15/1
f 61/9/1 62/10/1 63/6/1 64/5/1
f 65/10/1 66/17/1 67/15/1 68/6/1
f 69/20/1 70/21/1 71/17/1 72/10/1
f 73/17/1 74/18/1 75/19/1 76/15/1
f 77/9/1 78/10/1 79/6/1 80/5/1
f 81/20/1 82/21/1 83/17/1 84/10/1
f 85/10/1 86/17/1 87/15/1 88/6/1
f 89/20/1 90/21/1 91/17/1 92/10/1
f 93/5/1 94/6/1 95/7/1 96/8/1
f 97/11/1 98/12/1 99/13/1 100/14/1
f 101/17/1 102/18/1 103/19/1 104/15/1
f 105/20/1 106/21/1 107/17/1 108/10/1
f 109/10/1 110/17/1 111/15/1 112/6/1

