# Tiled2Unity generated file. Do not modify by hand.
# Wavefront file for 'WorldMapV1_mesh_0030.obj'

# Vertices (Count = 320)
v -304 -1152 -0.48
v -320 -1152 -0.48
v -320 -1136 -0.48
v -304 -1136 -0.48
v -688 -1152 -0.48
v -704 -1152 -0.48
v -704 -1136 -0.48
v -688 -1136 -0.48
v -176 -1184 -0.4933333
v -192 -1184 -0.4933333
v -192 -1168 -0.4933333
v -176 -1168 -0.4933333
v -928 -1184 -0.4933333
v -944 -1184 -0.4933333
v -944 -1168 -0.4933333
v -928 -1168 -0.4933333
v -944 -1184 -0.4933333
v -960 -1184 -0.4933333
v -960 -1168 -0.4933333
v -944 -1168 -0.4933333
v -480 -1200 -0.5
v -496 -1200 -0.5
v -496 -1184 -0.5
v -480 -1184 -0.5
v -1040 -1200 -0.5
v -1056 -1200 -0.5
v -1056 -1184 -0.5
v -1040 -1184 -0.5
v -320 -1216 -0.5066667
v -336 -1216 -0.5066667
v -336 -1200 -0.5066667
v -320 -1200 -0.5066667
v -880 -1232 -0.5133333
v -896 -1232 -0.5133333
v -896 -1216 -0.5133333
v -880 -1216 -0.5133333
v -64 -1248 -0.52
v -80 -1248 -0.52
v -80 -1232 -0.52
v -64 -1232 -0.52
v -64 -1264 -0.5266666
v -80 -1264 -0.5266666
v -80 -1248 -0.5266666
v -64 -1248 -0.5266666
v -112 -1264 -0.5266666
v -128 -1264 -0.5266666
v -128 -1248 -0.5266666
v -112 -1248 -0.5266666
v -864 -1280 -0.5333334
v -880 -1280 -0.5333334
v -880 -1264 -0.5333334
v -864 -1264 -0.5333334
v -512 -1296 -0.54
v -528 -1296 -0.54
v -528 -1280 -0.54
v -512 -1280 -0.54
v -48 -1328 -0.5533333
v -64 -1328 -0.5533333
v -64 -1312 -0.5533333
v -48 -1312 -0.5533333
v -752 -1328 -0.5533333
v -768 -1328 -0.5533333
v -768 -1312 -0.5533333
v -752 -1312 -0.5533333
v -768 -1328 -0.5533333
v -784 -1328 -0.5533333
v -784 -1312 -0.5533333
v -768 -1312 -0.5533333
v -784 -1328 -0.5533333
v -800 -1328 -0.5533333
v -800 -1312 -0.5533333
v -784 -1312 -0.5533333
v -48 -1344 -0.56
v -64 -1344 -0.56
v -64 -1328 -0.56
v -48 -1328 -0.56
v -64 -1344 -0.56
v -80 -1344 -0.56
v -80 -1328 -0.56
v -64 -1328 -0.56
v -752 -1344 -0.56
v -768 -1344 -0.56
v -768 -1328 -0.56
v -752 -1328 -0.56
v -944 -1344 -0.56
v -960 -1344 -0.56
v -960 -1328 -0.56
v -944 -1328 -0.56
v -64 -1360 -0.5666667
v -80 -1360 -0.5666667
v -80 -1344 -0.5666667
v -64 -1344 -0.5666667
v -96 -1408 -0.5866666
v -112 -1408 -0.5866666
v -112 -1392 -0.5866666
v -96 -1392 -0.5866666
v -112 -1408 -0.5866666
v -128 -1408 -0.5866666
v -128 -1392 -0.5866666
v -112 -1392 -0.5866666
v -208 -1408 -0.5866666
v -224 -1408 -0.5866666
v -224 -1392 -0.5866666
v -208 -1392 -0.5866666
v -208 -1424 -0.5933333
v -224 -1424 -0.5933333
v -224 -1408 -0.5933333
v -208 -1408 -0.5933333
v -768 -1424 -0.5933333
v -784 -1424 -0.5933333
v -784 -1408 -0.5933333
v -768 -1408 -0.5933333
v -240 -1440 -0.6
v -256 -1440 -0.6
v -256 -1424 -0.6
v -240 -1424 -0.6
v -48 -1456 -0.6066667
v -64 -1456 -0.6066667
v -64 -1440 -0.6066667
v -48 -1440 -0.6066667
v -240 -1456 -0.6066667
v -256 -1456 -0.6066667
v -256 -1440 -0.6066667
v -240 -1440 -0.6066667
v -48 -1472 -0.6133333
v -64 -1472 -0.6133333
v -64 -1456 -0.6133333
v -48 -1456 -0.6133333
v -128 -1472 -0.6133333
v -144 -1472 -0.6133333
v -144 -1456 -0.6133333
v -128 -1456 -0.6133333
v -864 -1504 -0.6266667
v -880 -1504 -0.6266667
v -880 -1488 -0.6266667
v -864 -1488 -0.6266667
v -864 -1520 -0.6333333
v -880 -1520 -0.6333333
v -880 -1504 -0.6333333
v -864 -1504 -0.6333333
v -32 -1536 -0.64
v -48 -1536 -0.64
v -48 -1520 -0.64
v -32 -1520 -0.64
v -32 -1552 -0.6466666
v -48 -1552 -0.6466666
v -48 -1536 -0.6466666
v -32 -1536 -0.6466666
v -144 -1552 -0.6466666
v -160 -1552 -0.6466666
v -160 -1536 -0.6466666
v -144 -1536 -0.6466666
v -80 -1568 -0.6533333
v -96 -1568 -0.6533333
v -96 -1552 -0.6533333
v -80 -1552 -0.6533333
v -144 -1568 -0.6533333
v -160 -1568 -0.6533333
v -160 -1552 -0.6533333
v -144 -1552 -0.6533333
v -288 -1584 -0.66
v -304 -1584 -0.66
v -304 -1568 -0.66
v -288 -1568 -0.66
v -608 -1584 -0.66
v -624 -1584 -0.66
v -624 -1568 -0.66
v -608 -1568 -0.66
v -880 -1584 -0.66
v -896 -1584 -0.66
v -896 -1568 -0.66
v -880 -1568 -0.66
v -1024 -1584 -0.66
v -1040 -1584 -0.66
v -1040 -1568 -0.66
v -1024 -1568 -0.66
v -1024 -1600 -0.6666667
v -1040 -1600 -0.6666667
v -1040 -1584 -0.6666667
v -1024 -1584 -0.6666667
v -1040 -1600 -0.6666667
v -1056 -1600 -0.6666667
v -1056 -1584 -0.6666667
v -1040 -1584 -0.6666667
v -560 -1648 -0.6866667
v -576 -1648 -0.6866667
v -576 -1632 -0.6866667
v -560 -1632 -0.6866667
v -560 -1664 -0.6933333
v -576 -1664 -0.6933333
v -576 -1648 -0.6933333
v -560 -1648 -0.6933333
v -1056 -1680 -0.7
v -1072 -1680 -0.7
v -1072 -1664 -0.7
v -1056 -1664 -0.7
v -1056 -1696 -0.7066666
v -1072 -1696 -0.7066666
v -1072 -1680 -0.7066666
v -1056 -1680 -0.7066666
v -1056 -1712 -0.7133333
v -1072 -1712 -0.7133333
v -1072 -1696 -0.7133333
v -1056 -1696 -0.7133333
v -576 -1744 -0.7266667
v -592 -1744 -0.7266667
v -592 -1728 -0.7266667
v -576 -1728 -0.7266667
v -80 -1760 -0.7333333
v -96 -1760 -0.7333333
v -96 -1744 -0.7333333
v -80 -1744 -0.7333333
v -576 -1760 -0.7333333
v -592 -1760 -0.7333333
v -592 -1744 -0.7333333
v -576 -1744 -0.7333333
v -944 -1776 -0.74
v -960 -1776 -0.74
v -960 -1760 -0.74
v -944 -1760 -0.74
v -896 -1824 -0.76
v -912 -1824 -0.76
v -912 -1808 -0.76
v -896 -1808 -0.76
v -128 -1856 -0.7733333
v -144 -1856 -0.7733333
v -144 -1840 -0.7733333
v -128 -1840 -0.7733333
v -144 -1856 -0.7733333
v -160 -1856 -0.7733333
v -160 -1840 -0.7733333
v -144 -1840 -0.7733333
v -192 -1856 -0.7733333
v -208 -1856 -0.7733333
v -208 -1840 -0.7733333
v -192 -1840 -0.7733333
v -672 -1856 -0.7733333
v -688 -1856 -0.7733333
v -688 -1840 -0.7733333
v -672 -1840 -0.7733333
v -928 -1904 -0.7933334
v -944 -1904 -0.7933334
v -944 -1888 -0.7933334
v -928 -1888 -0.7933334
v -896 -1952 -0.8133333
v -912 -1952 -0.8133333
v -912 -1936 -0.8133333
v -896 -1936 -0.8133333
v -80 -1968 -0.82
v -96 -1968 -0.82
v -96 -1952 -0.82
v -80 -1952 -0.82
v -800 -2016 -0.84
v -816 -2016 -0.84
v -816 -2000 -0.84
v -800 -2000 -0.84
v -816 -2016 -0.84
v -832 -2016 -0.84
v -832 -2000 -0.84
v -816 -2000 -0.84
v -1024 -2032 -0.8466667
v -1040 -2032 -0.8466667
v -1040 -2016 -0.8466667
v -1024 -2016 -0.8466667
v -720 -2096 -0.8733333
v -736 -2096 -0.8733333
v -736 -2080 -0.8733333
v -720 -2080 -0.8733333
v -416 -2144 -0.8933333
v -432 -2144 -0.8933333
v -432 -2128 -0.8933333
v -416 -2128 -0.8933333
v -432 -2144 -0.8933333
v -448 -2144 -0.8933333
v -448 -2128 -0.8933333
v -432 -2128 -0.8933333
v -80 -2160 -0.9
v -96 -2160 -0.9
v -96 -2144 -0.9
v -80 -2144 -0.9
v -640 -2160 -0.9
v -656 -2160 -0.9
v -656 -2144 -0.9
v -640 -2144 -0.9
v -112 -2240 -0.9333333
v -128 -2240 -0.9333333
v -128 -2224 -0.9333333
v -112 -2224 -0.9333333
v -352 -2288 -0.9533333
v -368 -2288 -0.9533333
v -368 -2272 -0.9533333
v -352 -2272 -0.9533333
v -368 -2288 -0.9533333
v -384 -2288 -0.9533333
v -384 -2272 -0.9533333
v -368 -2272 -0.9533333
v -384 -2288 -0.9533333
v -400 -2288 -0.9533333
v -400 -2272 -0.9533333
v -384 -2272 -0.9533333
v -1040 -2304 -0.96
v -1056 -2304 -0.96
v -1056 -2288 -0.96
v -1040 -2288 -0.96
v -272 -2320 -0.9666666
v -288 -2320 -0.9666666
v -288 -2304 -0.9666666
v -272 -2304 -0.9666666
v -1040 -2320 -0.9666666
v -1056 -2320 -0.9666666
v -1056 -2304 -0.9666666
v -1040 -2304 -0.9666666
v -896 -2336 -0.9733334
v -912 -2336 -0.9733334
v -912 -2320 -0.9733334
v -896 -2320 -0.9733334
v -912 -2336 -0.9733334
v -928 -2336 -0.9733334
v -928 -2320 -0.9733334
v -912 -2320 -0.9733334

# Texture cooridinates (Count = 4)
vt 0.125 0
vt 0.25 0
vt 0.25 0.5
vt 0.125 0.5

# Normal
vn 0 0 -1

# Mesh description
g WorldMapV1_mesh_0030

# Faces
f 1/1/1 2/2/1 3/3/1 4/4/1
f 5/1/1 6/2/1 7/3/1 8/4/1
f 9/1/1 10/2/1 11/3/1 12/4/1
f 13/1/1 14/2/1 15/3/1 16/4/1
f 17/1/1 18/2/1 19/3/1 20/4/1
f 21/1/1 22/2/1 23/3/1 24/4/1
f 25/1/1 26/2/1 27/3/1 28/4/1
f 29/1/1 30/2/1 31/3/1 32/4/1
f 33/1/1 34/2/1 35/3/1 36/4/1
f 37/1/1 38/2/1 39/3/1 40/4/1
f 41/1/1 42/2/1 43/3/1 44/4/1
f 45/1/1 46/2/1 47/3/1 48/4/1
f 49/1/1 50/2/1 51/3/1 52/4/1
f 53/1/1 54/2/1 55/3/1 56/4/1
f 57/1/1 58/2/1 59/3/1 60/4/1
f 61/1/1 62/2/1 63/3/1 64/4/1
f 65/1/1 66/2/1 67/3/1 68/4/1
f 69/1/1 70/2/1 71/3/1 72/4/1
f 73/1/1 74/2/1 75/3/1 76/4/1
f 77/1/1 78/2/1 79/3/1 80/4/1
f 81/1/1 82/2/1 83/3/1 84/4/1
f 85/1/1 86/2/1 87/3/1 88/4/1
f 89/1/1 90/2/1 91/3/1 92/4/1
f 93/1/1 94/2/1 95/3/1 96/4/1
f 97/1/1 98/2/1 99/3/1 100/4/1
f 101/1/1 102/2/1 103/3/1 104/4/1
f 105/1/1 106/2/1 107/3/1 108/4/1
f 109/1/1 110/2/1 111/3/1 112/4/1
f 113/1/1 114/2/1 115/3/1 116/4/1
f 117/1/1 118/2/1 119/3/1 120/4/1
f 121/1/1 122/2/1 123/3/1 124/4/1
f 125/1/1 126/2/1 127/3/1 128/4/1
f 129/1/1 130/2/1 131/3/1 132/4/1
f 133/1/1 134/2/1 135/3/1 136/4/1
f 137/1/1 138/2/1 139/3/1 140/4/1
f 141/1/1 142/2/1 143/3/1 144/4/1
f 145/1/1 146/2/1 147/3/1 148/4/1
f 149/1/1 150/2/1 151/3/1 152/4/1
f 153/1/1 154/2/1 155/3/1 156/4/1
f 157/1/1 158/2/1 159/3/1 160/4/1
f 161/1/1 162/2/1 163/3/1 164/4/1
f 165/1/1 166/2/1 167/3/1 168/4/1
f 169/1/1 170/2/1 171/3/1 172/4/1
f 173/1/1 174/2/1 175/3/1 176/4/1
f 177/1/1 178/2/1 179/3/1 180/4/1
f 181/1/1 182/2/1 183/3/1 184/4/1
f 185/1/1 186/2/1 187/3/1 188/4/1
f 189/1/1 190/2/1 191/3/1 192/4/1
f 193/1/1 194/2/1 195/3/1 196/4/1
f 197/1/1 198/2/1 199/3/1 200/4/1
f 201/1/1 202/2/1 203/3/1 204/4/1
f 205/1/1 206/2/1 207/3/1 208/4/1
f 209/1/1 210/2/1 211/3/1 212/4/1
f 213/1/1 214/2/1 215/3/1 216/4/1
f 217/1/1 218/2/1 219/3/1 220/4/1
f 221/1/1 222/2/1 223/3/1 224/4/1
f 225/1/1 226/2/1 227/3/1 228/4/1
f 229/1/1 230/2/1 231/3/1 232/4/1
f 233/1/1 234/2/1 235/3/1 236/4/1
f 237/1/1 238/2/1 239/3/1 240/4/1
f 241/1/1 242/2/1 243/3/1 244/4/1
f 245/1/1 246/2/1 247/3/1 248/4/1
f 249/1/1 250/2/1 251/3/1 252/4/1
f 253/1/1 254/2/1 255/3/1 256/4/1
f 257/1/1 258/2/1 259/3/1 260/4/1
f 261/1/1 262/2/1 263/3/1 264/4/1
f 265/1/1 266/2/1 267/3/1 268/4/1
f 269/1/1 270/2/1 271/3/1 272/4/1
f 273/1/1 274/2/1 275/3/1 276/4/1
f 277/1/1 278/2/1 279/3/1 280/4/1
f 281/1/1 282/2/1 283/3/1 284/4/1
f 285/1/1 286/2/1 287/3/1 288/4/1
f 289/1/1 290/2/1 291/3/1 292/4/1
f 293/1/1 294/2/1 295/3/1 296/4/1
f 297/1/1 298/2/1 299/3/1 300/4/1
f 301/1/1 302/2/1 303/3/1 304/4/1
f 305/1/1 306/2/1 307/3/1 308/4/1
f 309/1/1 310/2/1 311/3/1 312/4/1
f 313/1/1 314/2/1 315/3/1 316/4/1
f 317/1/1 318/2/1 319/3/1 320/4/1

